<mxfile host="app.diagrams.net" agent="Mozilla/5.0 (Windows NT 10.0; Win64; x64) AppleWebKit/537.36 (KHTML, like Gecko) Chrome/131.0.0.0 Safari/537.36 Edg/131.0.0.0" version="27.1.6">
  <diagram name="第 1 页" id="pVDt7p5ZFMD5EzwMEirN">
    <mxGraphModel dx="1418" dy="762" grid="1" gridSize="10" guides="1" tooltips="1" connect="1" arrows="1" fold="1" page="1" pageScale="1" pageWidth="827" pageHeight="1169" math="0" shadow="0">
      <root>
        <mxCell id="0" />
        <mxCell id="1" parent="0" />
        <mxCell id="9LpieoBSz1Jyjha2kcl3-1" value="" style="rounded=1;whiteSpace=wrap;html=1;" vertex="1" parent="1">
          <mxGeometry x="771.5" y="400" width="220" height="440" as="geometry" />
        </mxCell>
        <mxCell id="9LpieoBSz1Jyjha2kcl3-2" value="" style="points=[];aspect=fixed;html=1;align=center;shadow=0;dashed=0;fillColor=#FF6A00;strokeColor=none;shape=mxgraph.alibaba_cloud.imp_low_code_video_factory;" vertex="1" parent="1">
          <mxGeometry x="216" y="431" width="48" height="48.6" as="geometry" />
        </mxCell>
        <mxCell id="9LpieoBSz1Jyjha2kcl3-3" value="" style="sketch=0;pointerEvents=1;shadow=0;dashed=0;html=1;strokeColor=none;fillColor=#005F4B;labelPosition=center;verticalLabelPosition=bottom;verticalAlign=top;align=center;outlineConnect=0;shape=mxgraph.veeam2.audio_file;" vertex="1" parent="1">
          <mxGeometry x="411" y="431" width="40" height="50.4" as="geometry" />
        </mxCell>
        <mxCell id="9LpieoBSz1Jyjha2kcl3-4" value="" style="sketch=0;outlineConnect=0;fontColor=#232F3E;gradientColor=none;fillColor=#C925D1;strokeColor=none;dashed=0;verticalLabelPosition=bottom;verticalAlign=top;align=center;html=1;fontSize=12;fontStyle=0;aspect=fixed;pointerEvents=1;shape=mxgraph.aws4.rds_optimized_writes;" vertex="1" parent="1">
          <mxGeometry x="572" y="590" width="63.8" height="63.8" as="geometry" />
        </mxCell>
        <mxCell id="9LpieoBSz1Jyjha2kcl3-5" value="" style="shape=image;html=1;verticalAlign=top;verticalLabelPosition=bottom;labelBackgroundColor=#ffffff;imageAspect=0;aspect=fixed;image=https://cdn3.iconfinder.com/data/icons/document-icons-2/30/647704-pdf-128.png;whiteSpace=wrap;" vertex="1" parent="1">
          <mxGeometry x="403" y="739" width="48" height="48" as="geometry" />
        </mxCell>
        <mxCell id="9LpieoBSz1Jyjha2kcl3-6" value="" style="shape=image;html=1;verticalAlign=top;verticalLabelPosition=bottom;labelBackgroundColor=#ffffff;imageAspect=0;aspect=fixed;image=https://cdn3.iconfinder.com/data/icons/brands-applications/512/Doc_B-128.png" vertex="1" parent="1">
          <mxGeometry x="212" y="739" width="48" height="48" as="geometry" />
        </mxCell>
        <mxCell id="9LpieoBSz1Jyjha2kcl3-7" value="" style="shape=image;verticalLabelPosition=bottom;labelBackgroundColor=default;verticalAlign=top;aspect=fixed;imageAspect=0;image=data:image/png,iVBORw0KGgoAAAANSUhEUgAAAbcAAAGLCAYAAABEL9w9AAAAAXNSR0IArs4c6QAAAARnQU1BAACxjwv8YQUAAAAJcEhZcwAADsMAAA7DAcdvqGQAAP+lSURBVHhe7P0JoGVFde+PN4KzxjnGmEQzvN97ef8kL3kv5mXy5ZnEvGiiScyAgswyCSgIDnGMRk2iBhVMAJnHpmkaBBQUEJwQRVQQBBUjKk4JhEGkQRz2f33qnM9mnbp1zj3n3m76dnt2729X1apVtWvvWlXfqtq1z13VzY/5MT/mx/yYH1vYMSe3+TE/5sf8mB9b3DEnt/kxP+bH/JgfW9wxJ7f5MT/mx/yYH1vcMSe3+TE/5sf8mB9b3DEnt/kxP+bH/JgfW9wxJ7f5MT/mx/yYH1vcMSe3+TE/5sf8mB9b3DEnt/kxP+bH/JgfW9wxJ7f5MT/mx/yYH1vcMSe3+bGijx/+8IdD3+D4wQ9+sEA2P5Z2tJ6jsvkznh+b+zEnt/mx4o95R7txDgcKAD+YH/NjSznm5DY/VvTRIraNSXbfXn93wfe+972hpH2gc/ud3+tuuf3OsYjoqQ7zubeP+aBhfmzJx5zc5seKPZxV3FsHhHXxtTd2x3/kuuISbh1fvXl9d/LHru+O+/CXuqMu/kJ3+AXXLMBJl361u/abt08kOEiN6xz7oX8ruPS6G+9Vkhv3bO/t5z4/5sfGOObkNj9W/NHqaJezhLb+7h92n/nKTd2X/uPbQ8nggLR2PfIj3e+87j3FheTQySSHf93l13d/ecj7u199xdndL730jOL+3384v4Aw+N2/P7d79Rmf6q664ZZCcCIf5P3UN13Q/fJL1na/9eozi/+t5352QbmYRU6aSRpfYynHfGlyfmwpx5zc5seKPWpSc0YhlnLQ6b/z4s91T37jed2L13xyAZH871ef1W2z43Hdw/c4qZDcASd/vJCZBIf+2997Vff/e8m67r47Hlvwh2++qMzUmMkp22an07pfes0Z3cvP+Ex34dXf6j59/Y2F6JitSTuQKfk/dPfju612OLrbesc13U8fsKY79PzPDzW67ppvfLvM6D5x/S3dZ756c/eFb9w8jOnKLA/ZJdf9+wJ86kv/seDeFjt4pnNymx9byjEnt/mxWRzTENrN317fXfP1W8usDOCvZzDM2n78+ad099vxmO6nXnBq9y8XXjuMGRzo/8nB7++2ftphPcntd/wlZRkS3d2PvqT7vTe+r8h3O+qSQloQFmBmxlLkVjue2K3a7tjiPu4Fa7s/fetF3YtOuay4+j/wuZvK9Uz75Ned0z1i75OLu+NhHyikd+i5VxaXMLM6XAh57WVf6S646ptllscM84/ffH6ft0B+5EWfLwS62NF6rksdPMyP+bFSjjm5zY8VfzCbyJ3tHXfc0f3Hf/xH99X//M5QMjjO/vSXuxcc96HSsYPnv+Oi7gv/PqrDDOxBu55QyG3VdkcV8qgPdF571pXdo59/avdfX3JW9z9eflYhtCe+6PTuIbseV2Z3zJiuv/H2YYrR4yNfvLV7xAuC4J75jjKLe+CuJ3aPef7q7hF7nNjjrw69qMzKPJ5x8AVlBgfBicfst6b3Ewced8C6QnDbHfaR7ldfelr3Y887oceDnn1M7/+Z/U8rZPjBa78+vMLoAel961vfKrjpppu69etHSXA+g5sfm/sxJ7f5seTD2dRS8YPgq1lxx/o7u/dffUP32nd9unvH+Z/rbrptfff9iAAvXv3x7lE7HNs9bPcTC/527Se7b956Rx8vHrz76m7r0Fv1p+8oJFiX65Iv3tj95Ts+2D34eSd3j913TfewvdZ099/5+IJVzz6i+/mD1vW6R158bffStZ8uaXIeJ156fcn7CQes7Vb92b92q55z5Agetvfa7ulvu6h72elXlBngzx64rrvvTsd3W21/dMGqbY8oLjKWODN+5ZVnd7/9+nMLca76m8MKttruyO41Z366vOtzaZR3f2859+ryzOK2e1x/0x3d4Rd9rnvF6Z8sePO7P9t98HPfXKC3GObH/FjJx5zc5seSj9yZLwV1Z/ndu7+3ALXOdd+6rRDbb//d2d0vv+zM7g3nXNmT1uHnX9392ivP6R6739oys/nOd0dJDdx6x909uW3z54d3+x7/0ZEyffrL/9n9zt+dVYhv6+cePQKI7VF7nVzSHHfJl7ozP31DIVHI62lvuaCkzXmxTPrW864qcc9428UFf/2OiweEFwRXiOyZQUxgSGS4D91zTSE+CK/opDiw/eGXdO94/xe6A1d/oixJAmZpcXuF+H/zNWcXsoPg/vTN53a3rR99jhDZH/7Dud1P7xezw5gV/u9XnVlIDtLLeothfsyPlXzMyW1+LPnIHflSkDtKZlh0zGd/6qs96IQhs6xH+ICTLi0zKjZgMAPK5PWuT32te+o/nleIBt0axN9/lxMHM7cgK2ZovIejPHTu5AvpOVMTj99/XSG2t7znM93dd9/d/e+/e08hKPIpeQXBPX6/1SWP+j5rQEqkhbDAY/ZZ05PXA3c7udv/pI+Vez38/dcMZmjDONzfCFInbhIgulXP+NeyHPrnbz2/Hyhw/zzTd8QggJ2d//XFZ3aP2W9d919evK57zbuuXECCGa3BxvyYHyv5mJPb/Fjy0eq4Z0HuKOl0/+YdF3X/JzpzwMzs6W85v/vb0z9d4tQ747Ivdc962/mFaCAVZmF3fffuntyOuuhz3apn/ktPOjUktoLhbIyZGuVhGRIZZKYL2UFkEEMu+7Vf+8/RvIZAxju7rFuD5UrI7RF7nlyWGC/67NeKywxur+MGxJaBjDiIro7LoEy//ppzy6wNsERpHITGrs5ff8UZ5frKV3/sK+XeDAMImsHBf357sEwJ6Z15+VeKLsuvwIHH/JgfK/WYk9v8WPLR6rhnQe5QT/nol7qfh7CGpCIeu9fx3d7HXdrr4UdWCCjIBHLLM7fjPvTFieQ2griW12Nm9gf/+L7Scf/Z295fliUhvnKd0KnJDQIjD9+n5XxZqrzqa6P6giXKki7SMAtztgSRfPk/1zdnT8i++O/f7slGMANkdsaOTMCmFd+3QW4sT6oLGfk+TnJjtpYHDoDZ2Z+9/eLuT/75gu7//dN53Ykf+bdy7w/c5fjud157TpEDdF6x7tPlPuckNz9W4jEnt/mx5KPVeWfwzolZALjh1u8uiM+dKsuSdLQnfOgLI6QD8kzjV152RiEvyQ2wkQRiO/2yL5f3cMolkYJIU5OQ14HEgJtC6Kwpy9ved03/7u1/vGzdgk0jLKOCQy+4tnvy68/r84fw6vdvgvKV8oTOf4978b6Wgj8/9EPdqqccXJYgge/ZWuTGM0T+0D1WF5JjWZL3bf/rVed0f/BPFxQSQ09yg8x+9oA1ZcbGRpPfe8N5RQYeuvvJxX3iAYMdmfscf2lZQoXolvrx+PyYHxv6mJPb/Fjy0eq8AbMaOvdjgqheufZTBYecf035uDgv2dGRQiKQn50wOPjca8pMSoL7n688u8iIO+2yr5bdipmsmL1BcL/1d+eMENhrz/xk2VHJppO3nH3FYDfl3qsH5BLpebfGNf7XK88qRJbvQRy05lMD8guS+73Xv6eQWUsPgvO65M9mk1qHmRZlhdgoB9fM983s7KgPfqE76NTLyy5K3Po9V8a7PvXlslOTXZJ7HntpvxzZIjd+RQUChNyY4RUyfM4RBfghOEgdXeoEgvv//e053Y5Hfqw77MLPFxKD0Lba4fhu1a4xw95xTbfNDsd0D9n9lO7Rew/AJpv5MT9WyjEnt/mx5KPuvAUk9rLVl3VPCrL5yRecVvBrrzyzzB4kOfToSCEtZkR2woL3bnlmhWscs7vf/8fzy2yp3xwyJDvJjeW/vFwp3nbu1aWjZufi/3vL+0uZTrrkC33ZIVoI7PRPfrVfikQfkl31h+8oS5bq5jQQl+QGIB3k6kAYpZxRPojtFWs/MXK/ALJjp2S/gzLw+ndf3V3xlZu7r9129wL9DJYsCwHtemIhNj4PgNCMh+ggMWTusrzvDkf3BMdsjGdhXfD+jtkacY/Ye01ZkpTcSIcfYlv1nHcWonv43qd173jfZ4aWMfg4fX7Mj015zMltfiz5yB18BgT2iywPRqd3nx1PKMD/Y3uc0v3ciwZLWew4pENmW/8Zn/rGghkKszVJDbDZgw4367Ct/yn/OHiHlQGx5U0mgDBkw3dxpEPWKjuk5qxx/5Mv6+WQGgTHTC7rA+6H2ZjXh8CYSUmOuMwqjYNcmMFyDxnM1PLOyOIPgmM3JTO6rMt7OO6HvPO7OJYbncHhVy65vfDEe95f/o+/PbN7XPlQfE0hLIDMumDGRhwEV4gwiE1yYzkTMvyJ/U4rM7jfCyJkefLUj3+pHyBQX3OSmx+b6piT2/xY8lF38oBZGcuQzNQgNX8NREBwT/nH84oO78/Ku7MgkhefOjqTYbek5IYOuyMhOJY71ZG0ylJfkAZu/u4t46SPfvmeWV7o1u/PMvg8gA+3eY/Uis+gI2cWSJ6Z3PI7N65lPCTIh9/Io1gLAIlBaJKbBFfvomTZ0g0k/NxWn/5DXyybSyAzZovIuP7PvmhtITyIVV1x7Ac+3/30Aev6GVze1EJcWcJMxAZeeurgl10gL2dwuJCjm04gfe6HZzQ/5se9fczJbX4s+bDzFozUDz73M2U5EmKD4PKmEmYrxN9nu3cW0pPYWFLMOyLFM992UYlDT11IjpkV5MOyJDMX8wf1jI0OHvJpbdun47XszCT1W2a/f5sEZokQF6TFx9mWx3h+qaS+7rEfvq7EeZ8ZzJqYibEM6S+RMBuqZ7bIISs3kPBrJOqwecfZHDKITT3AkmTOC/ArJauedkghrnrHJptKfEdHfJkBnjQgNzaQMIN7wC4nlBkcbgbv8njOkD3PJgN74VnNj/mxMY45uc2PiQcjc35dnhkZf3Ns9Uf/rfwyPTIJBdB5OWODuCAwSM5OXrBkufVT31pmcc7KIDBG+blDBeQL6TmDK+/VEiAKlvsymdXgF0HQ62dOEFGkfdWZVxZCg/zYKMJnAIBOty7zOJA3+bEEST6g1mGjyao/OWRw7SBAwm6qieI1ASHxCyX7HveR7uqvf7upw4fevl8DvGNrfUYAgUBoEqHv3Wo97ptlSJYT6zjKA8FxfyxTkgfuS9d8otgI9QSJMXsjrgezueccU34BBQJk2fLAky8tnxCQ1jDkxzOZH/NjQx5zcpsfzYMf1oXQ+PMr/FDvn7z1gu5/veac7s8Ovbj82PCr1n2y+7szP1MAqe177EfL+7RCWrxrG0NudLblHdUzDh3sQgyiYfMIHWfdqQI2j6z6oyCyIDeWLnlHx4fdvJODMCApiYxfHwGZ3Pg5rkJoQ3Kjk+U3J5nhUZ6y3f8P3zH4ri3Ajr+6zDXoiHkfV/INwnIm1sLaT1xfZo3osiSYZ4hRvBHwvs/fmuS9G7Mz3sN97us3j+hBYs96x0UdOx8hLJYn+Q3JrCMgLcisEOCQdJjltXSnAZ8MsIRJPszM+MUWDuoPP8SVwfPl/dyjY1b38N1PKLsq+YSAd3V8xM77ROpk/gnB/NjQx5zc5sfIQSfDrIw/l/IHb76g+68vPbN75F4ndA963gndz7/0nO73/uG87sf3PaX7yf0HuyDFI/cYzNYy2FTSmgmx7Md7N36BJBMbMwS2+gNnIcwk0Klndnz0vd+Jg+/b2CBCHk+KWSMzOWaRI+QWBMqH1XwKwCzDOMpCOnZNAj4xYMMIOnWZBeTETKN8/zacjfkOrQXun52RzPLquCjCCCCsrX7/rf2GElzC+ZMBnsvfveuKsqvSZcb8SyQt8CPJPD+WI9lkUr93Y8DBr48wO8vg2VP+rAsgON6tlZlaYLFPAE76+Fe7//3a87pH73dG2VUJKfI5AfeHnOc5P+bHhj7m5DY/+gNSe99VXy9/JwwSu8/OQVgBiA2iY7bGDI4wcndDuhMSkvuZF53RPfL5p5WlSUCn2iK4VucOqbnk2Po8oIYkRedcvl8jbcyQ+OFkZMTxvg0SYramvqjLQyfNJhIID4JrkRzE+SdveV+ZSZIv4L1arTcNIPO8lNjaLclvTfLOTR0+C+h1WGb8m8PKT24ZvxTwTRszMd6pAWd4bPfnV0xaaQ5972cLsfGeDV3KyB9Ppa5rsLTNrJRNJixfMmuD4Ji18bxbB7Njnj8DIfzzmd38mPWYk9v8KAd/uRnygtSYlUFe99v5mG7rvziszOI4eNf2P15xZpEX4mObf8zQ+OOfbBSx0+ZviD31LRcMZnBDnbx7UOTO8p0XxWwoyKmQRmAWcgP1B9zsnKw3l9SoyyP2OvpDZWbGb0q24rmX8g4wrseyY0tnMdBh0+FDaFGUHizt8eduIDA2lPBhd44nDOFJbiw35o+1ZwXkxecAbBSpd0RCdPscd8mCNCwjQmgQ27RgJyXLk7/3hvMGM7dIP2nGxrPh2zquxaCDZz5/Lzc/Zjnm5LYZH61Ocym48ss3di877fLuFw46vXvAzsd12zz3qILPfu2W7is33V50+MUN4sCq5w4RBPCnB19YlurqnYX8Ogm/AMI7OMjtc9+4dSS+Bvqlw4zr4tZb9Un/xIPe1e11zEfuyYtnMMTd3/t+94y3vr9b9fuHdj+1/+ndzbffNRKf9Z725vcVHTpclujydUDpvP9s0Hn/6svftSAefPE/vlPA7IsOnzKRF++/wDTkXM/cAD919W//cXtB/n4t4ys331muxV8IZ9ZIp9+XK8jvj9/03vJeNJeXemLzDu9PlZnfnx/ygbJT8j7bH9X9+qvf3X3+m7d1X7/ljuLWZSCf++10XNHF1S9ymGcIlGcg22anE8qf2snlFF+58bZCvA/Z7YTud1/37lInx3/kuu6zN/xnmc2hMz/mx6RjTm6b8VF3CEtBTWyrnn149/C9Ti1Lc+qwYeIn9j21xBXyGXZaEA0dfM4PQFQsT0Jqft9GB/W+qxfuJgTkUTaZRAdL/id89EsLyPJrN3+nkB5lxV/kPIMEOuNTPv7l7kOf/9aCOLH+zrvK/XEv3AOdZr4OgDjyrOP/vvG9TXLOnT7P67dfN9ieT77nxGDAONL+0ZvOL/j9N547EjcJn//GLWUnJvny3izHQYz80HLeoAK4H2aVEFkmOP66Ab9DyXtFZ5vmBWGs/cQNpVyfvH70Q/mMwy64tvuxPU8dITHu9ZF7nlT+zBBxhIljOXjd5dd3H/3CfxS/upncVm37r92j9zmtECYEW98LaanzB+wUM78hyfEJwskfu77U9fyYH5OOObltxkfuCBYDo/saEtt/f+m7emJjRlO/QyozmT85pHROkA9p/u7sq5sdPsQEsTGrY0myzNyGS5N0TqR95RlXjID8Af7Xn33FgjwF8Vd8NV2TZzAjmLk95Hkn9STdIrfLv3TTYDbjO6XQq2eSIHf8pHn6wRcVcgOEjYP4fH64kERO2wLkBeGzPLnqDw4uxGhc+Svaaz9RZml1mQqJxSABgoM0lDNAgaT5PpDZ6GvPurIQmTPPxYDeL73k9J6cVm17ePeg3U4qH80zo/rQNd/ojv7AteXd5tvfe1UhJq8NeSIrdjQkuB/f59Qyc4O8BDZpGgA5cg+/+br3lve622z/zu4n9jml3Af5zY/5MemYk9tmfOSOYBJ4qc9onQ5OsMPvoFM+VmZspaMPYmN2Rpzp6JTB//n7dxdC+KM3X9g969APjOSdAdmxsaQQW5AZG0zo0FyaZJmSOFD8w06N60KKrTxbgDgoF7Ow6HdnAsuVi5EbWBOzA3cDorfu8hu6q796U3HBe64YnX2xnHjkxdf15IYfGXE8F38hBJwYzzinbQEyoWxuLOFns1jCRM5GDEiS+JrgmK3R+bNkyW7HHMdmlD9804WD5/7sIwqB/9uN0/31be6FGdpgxjUgNogs51/jrHhG53/mGz1psZzIR++Um084eJ/HMuhPvfC0kZkbszKWJNGDgJmp4UfvAbudUmZx3CNLpxAnREqaO++8M2p4fsyPwTEnt834yB3JOEBsbz3vqrJLje3bvNDnRT0v9yE2Zmrl/VN0+HlzBO/bkLsUyawp51uDjgmyhNAgOGZvzNKIY6aAjI0nyHEhPN7bkff/eeP5CzricYAofuPVZxdCPO2TX2sS2CR89N9u6smNWVnrnRuAPCECdvaBoz8wmPmU2VeAtJKXYHYHeblFf3XMgJFDSCz7QXDMwMg7p5uEZx1yUSE23sER5pruloSkmN21yj8ODF5IVzbEhAsx1NeERCE93rc5s8Nl5u3Mjc1HrfyxA9JCNi5fQk4tXYAeM78sg8hYQn3igWeMzOYOPPWThdj+20veVcoCsfH+9EmvWFeWK5k9zo/54TEnt834yB1CC2yl5hcxIDO37UMqbNWH3CCjVjo66TKzYdNIdOSTvuOqccanvtpcrsxyZl6SW0F0sry/q9O0ALGV92WB33rNWU0CGweWJM++8muF3Pi9Rv5UTOsa48D7L4mNzSiZ3Oj8mZFJboPntvgMbVZwTXdL8tx2P/qSZlnHgbqU3CCfmty4DzadMDODzJl5eV1kzNqcebbyZ2mSe5cE8SNr6Y4DMzrK+JuvHt3Mo5wZHEuWHE/++/fEvRzfPX7fNWW2Nz/mh8ec3DbjIzf8caAzY0mwvPcawp/H+v1/eO8CfXdF9uT2J4cUgiTu89+6vWzGAPjrtJNQbxaA6PrlweiwGK3neJYpmdE9et/BzPJXXn522Vhh2XDZHRl97AjYUPKk17ynzAjqOADBObOo3/EsBshQYmPZMpMCYEZGZw7yzG1Dg92SlIWZ9jS/f5lRfg6sQW6UlQ0hP/nC0wuJFWIKPZY3iUevkFvIvC/y4/r8AVbeoZHWDSfO2ngW9cxsHJjh805t1fbHNDeYZHKDdD22O+wj3aOC4LCh+fdw88NjTm6b8ZEbPqAzqD88ZnMIS4L9xg4R5AZB5GUtlqzqXZFsHCGOZUOXKcHT3/qBQlB06IzwefEP8E+7xCixUY56IwmbM0r8sCyiEG7IWN6DpKKPLeBd2pvec3UpI3pP+Yf3FSIzvol0vWnAOyPujXuGGCUbwXIey48APXZ11jobEq0y1qjfybFE7W91ZnJjk4ufA1AngA0kEhnxkBXxP3fg6WVWSn48h0JiMaOT2IX6kN44gmMpEZsp7wKD1NhBybUhslpXcmNpElsjTw7sgPd73Atg4ML7uDnR/Wgfc3LbjI/c8Hm3Bjnxe36Mzv0WaHV0tMzU3NSx6m8GnUfZ4DEkD96NkaaQF7v6ILAgEZYtHT2zVMmGEknmN17z7rLBonyfxm8zki/403d0/3rRPb+2n8Eon+VJ0rD9n/d4XBt98sq6pSx0spSlJriQ73vCx0aIihkb7xBZblRv3Ldux3zwc2VDA+/b2BySr5vBM/QvXaNb75jMRDMJ3Cv5sMMRspiW9NgVyW9G+r5NQJzIW7slAc8ZHTaXMANimZHPBogr5MZzHSLP3JiZQUbMgEh7ZswM/Q6PmZLxpHNQ1JNbkBmkt/exl5Rny2YTdIt+xEFw9bs3SKm8X6MsQWrsnnQHZT2TB5IbOhDcr73irEJkHvxCyp5HfbB8O8dSKO/k5gT3o3vMyW0zPnLDpzP7f/90XtnQwQ8Y8/NTyH3HApnxno2NJfwMEv5++XE40uaTgGe+9cJCYq3OhaVIyYZOEhlkxcyQ/At5Brm986KFfwcNYuBXTNgdB9kutkEFYmUZErAk6bdpzCxZroQgo8/tAbnR2UluEF2L3PzODb1V/2/yhgx2RPpsIH02djhoAJlwJiEvV/Kd2zQbStDx3VreUMI7MfLgV0yooxbBIetJgx+nDheygoicaTNTwoUcyBcXEmRGNO7j8Uxu2geDH75j488P/cuF9/zFA8ByobM37p0lS2ZqxkOsXK8Q1vYx2BqCcGvmRl1JgmWWF3rk4XHl9f/ePXavk7sn7L+ue+qb319mdszg5seP5jEnt834yA2fToudkBANszc7GWZzzNogvDzzwM8W/0JuLPVF55M/A2iBazgrYjclMmYh/BkbdkBCrBBXva2f5Uvi/EQAoJc7whboOEkLgTJTg9ggyD4dzyCB2QLv8SC5Q9539YJ4ALn17/rintkkUl8XQGJvf28MDPzWLVw6dDfFgBYBtMAMyM8A6KCZpbb0BETGxpl+V2SUk3TETbNbsie34fJj+bNCoeu7U1FfdxLcUOJsLH8gPgl+wJ3BjMp4ZnPMwniPBnjnhvvP8exzPpAvZJxneA973sklLw+IbtWzjy6bpx6115pCkJn85seP1jEnt834yI2fmRp/I4vOzqVEyIgOjVld1hVsHsnkNmlXJGRGh4n+/3zFu3pyWwwskTFbg2BdGoXYyMtyLhk8gxkxLblRtpNj5J8/5OZzgKzTIoEaxzJzjrT+DmT+uHscIDdmZ37jRnqeF3H1bknkuUwi74oE+Ov6ra87Cf1uySGhZoJaDIVo4x6YxTmTg3RaupNQ8onrM2uDEFnWzAd5bl0I/fhCcL/80nVliTIT4Pz40Tnm5LYZHzR4NpDwo7LMuvh1d78x83syiISlyLqjcFdkIbYpZm7EsSxIGshyFmJipuWvltBBEc7Le0sGz2BG1OTGkl8z7wDEzEyNd2a49UyzRQIZvGeT1HCfefD5Ja+Wbg0IrhDbnxxSyCS/d8MPmKFNeo7UE9+EQQitv1yQrzcN3GXqsmWd3yQwq+ZeIDZmc2UzUENvErA5fpmEGVxrRnbZl26+h9wCEnHr4F0cS5bzZcst95iT22Z20CghNDaQMDNjCRLCcEnSnZCCBs6SYO4kIKqyTBidewbvqXjXRb5ZH5Qt5H9wcCGFxZYTM5ipsAzHMiidbV7WWzbiecyKTG7MyPhAm+fH1v7mNSag7vxr0LHyXCE2wGyM+2/ptsDzOumjXxwhtoxWmWpQl3wy0BqMtPKcBXV+kwCJsATJ92kQZEtnWkiM9TEycwvwYTfXqg82nlAOvotj+fOT1319GDM/tqRjTm6bycEInY6KPxMCobEEyYwMkuIPhY7shgxIbrxryzOy1ZdeN5hFBenRybtjkY7YTp9NJfWyI79DCfEtthFEQGjos2GAzQtcg1lLS3cWsJGEvMAJl3yxSWCTALkx+ywbT4bv0gCzgVmXSVsdfgazQgcOzN7YYDHtzG0SIDt2UrIBhBkZf6mbmfi43ZPj0Mp7FuS82LzB7Iwt+Vm+FGDrEOER1TIwgyryh5Ravy0JuWHXhdyC5MgjH5QR/PO7P12+keTD75/ff02R8Tfn5seWdczJbTM5TrrkC922/3xxISvhHwVlxsZPa0F2AhmEBwnaOUCOyOkASAdBGEeHAqnREdP5M5uZ9UPtDDaZrPrjt90zgww/spbuLGB2SfkBnwtAVtHPTg2+faNj4zu4R+8dzwJyi3uG6GaZkYJWh5/B9np+Potv8vhu75wgIH/Oajk4/VNfGyxZPu2Q7gnROfMrJbzXZJMHs7Rpl3xbeddg5sOGGMoO8p/oyXmx1X/V7xzc/IvjNRhEQETMnlrv7pC7sUQZvzH5T+++qtwndc+uypqUKKu/WIIOuzc9iIPMxIN3Pr67/67rii2wg3P+ycCWd8zJbRMerT+gKfhDmzRIOgEASf3a367rHrnP4Bckfu1V7+me+k/vK2DWVY+Y9zz6w91fvH3QcAmTF+87+NiWl/rM/rI+eOHJnyjx6KGzz/GXluWkWk9EMceCjsfNDAJZS3cW8AnDqm2PLIDQua/W85sGPNMH73Zi96h91nY/f+Da/o+b3nrH4PcRAfdfp8uArL73/R+MyKKYvSsiOIKsPysuueab3W+98Zz+D7P6R1pxAc+5risIL98T7xNbeWfwHHhGZTBB3uFii8bH2YMBFX/gFP0sb4E/RPqIvQd/vQDbrcta/jJ4xP3v157Xy6hrrn+f5x7TY9V2RzX/RA+62+x4XFmxIMw9M1hDlvGMgy8YSQdxZ/JeDPNjZR9zctuER+5IMuhkISsa/m+99j2F1BjhEgdZPelVZ/W7zmjcuWNoAR0Jiw5i3G/9QYjEozdN/lGcgtZshE0HLB1JbIyiZ+k4xiGTG/762W0IQOqrtj2s23r7Iwv5TfqL3hBbOAWEceMcC3XVB+xE1C94prWsxoEnX9oTXE90Y+qX3xeVBB+19+ru78/6dDPPDGyuvDdM5Ik9GB9nDwdiEEmW1+BeH7r7yYUIKSs2t6Ccz47ZdCCTW6n3kEls99v5hLL7cxqboswQoaTGdSG7rEO5X3zKJwpoY9xPjm9hfqzsY05um/DIHUmGMzV+8QGSYZbFKNp4fi0C4gHMzmiIuYPI4L1D/viWcEuPfCQ0Z2+A3wzk41vKU6eJokwEHRllA4stx9GRQiqPf+HaAohxsJPt+yPgLzQ7AwH5uW0IMHuF0CA2cP+dju0eu8/qfnCRwRJnLXMWF7c0QmaG1UOmX/CMpiE1QR1gG9SrMytmUNhPXVeFHCJeEoTgJpG2YCmQWRT58/F/fuZxTgTlYKPTA3c5vpQT2XGXfKkQ21bPGXxc7syNmSRl7GdlFbn93EGD98TIITbIOROb1/qpF5za/cQLTi/lNA5Qfw/YdfApQ2t2+bSDLy6DMP4eHjO6V51xVUkzyW7nx8o+5uS2CY/ciUAAjLhpeDRUZjrOoJ78hveNkFsZiUYjhXx++W/PKkuTT/vn95fRaL08CUnw50PQbS1XAQgPEiNP8mLkigw/16dzg/zqdFGUDQbKBpFAKMyaHrbn6m4NP40Vz2kc8vPbUBjMDGPWtlMQXIAy8Vyok1pXcoPQJDVc5OEdGwfwL0Zki8VTB3kXIi4dMkRR15XkJh673z3LsJMASVA35F8PJuIsaC3nUXbIxhnazx6wpmyGws6ZcWKrb3vfNaW8lI/3nc7YJDfKbPklL4Cf+87X87s+ZmiAtOhlHcjtH865agFh7X3MpeVDd1cZHrXXyYXgaAdzctt8jzm5bcLDToIGzsi2vFPb86TSkUBmzCIkODoDOxcaNh0EMzJmVYWAomFDYBAS6e3gaODott6xAV7uP+UN7+mvw4jYOBq3vxTfIkYb+YYAZA6JOmPCDzG3dIXPb0OC+3zCgYP3O5BcQfhb5Abi7AkMP6jlIJOa4Q1BbtOC+2LgBLAFwq08J4E6es1ZV5X0EGmICrCTw98/ICplzNolNvC4/dYUHeKczddlxPb+64vPHJBbpIHIcjzXAYa9lnkysySdS4+sBEi8lBk5Mmd1PF+WISW1QnA7rin+J7/unO6iz3x1Tm6b8TEnt0140GHwe3h0OMzASsMK0HEQR2fh8iCNNRMcgHSIk5jUZSlp2p1/6EmOz3j7B0snnuO5ZovYAA28BumZPYJ65DwJ6LMcKbmxweN9V9/AUxoLn8OGBlvQeffjzlM6WTrPli6QsOpwS5bD+pcKyoStUD90+rPu9mzlOQ4MtnynB55wwNru1I9/qdQd9Qzp5fqGFFhy9PlBLvVsq1UmZneQFOne8p7PNHUE98wSPZ9BkDckxrXK7C3KSD60IUA4kx7Prv4Vl8fvv657yhvPK7M2SI8Vklxe7imT3fxY2cec3DbhQaOD2JixQWqSDCPkm25bXzqETF7EsUQJwdE4JbTs/uKL1zU7gnGgQ/Rnlervilrg2gB/bvjCXW2Aber1ctUk0DmyHAkg/TqejoVOTPCMWh3xvQlJC9QzM9ysl9MJN5PkTSW1n/s2nMHAw2cN8fD86vqahFae48AS5v13ObF/Z8c1qeuIWjJaZZoW2K1kBSBS833ii04vcfy4N+EFG0qG/ofttWZkObLM1q5pD8iweciUZyzBzY+VfczJbRMevGP7/w48tRBbJil2Q4JMbJOAHptASNPqCCYBkpDcxu2iFHQSlikvQWWwCcAf7AUPft7JI6Pd5YAZSp7dMbtqdcT3JiCtcApcelQuyU0ivVlQP0d3t0I2EA+z31k+RG9dYxxqcgMsNTK7YpPILIMY0SrTtIDcygaR4SyNZ9G6BqjJTUBsDMAkONy/PW2w8UVg5+d8+vryrg4CzTO6+bGyjzm5bYKD0R8/6Mo2f2ZuzECYiTEy5J0ZZCNpSVySii5paXjO4oAzKkCYkT0bRdh1CVjGzDp0hFzfPFniMq4Gce66BPgd5TLDZEmHJSHITGKzw2DpaLkER/pMbLwL490Yz7LVGd/biLO4ElcmNOXIuA/86o9Dnr2NQ9mmz07GIcHlup0GrTwnAVuB4LgeYMcj2/r5Zg3XZcpp0SpTBjb84/ueVtC6N2TYODskscHWNQRthWVKSM3yQ2x8skI+v/bywYrDASdc2qf5i0MuLkuUT33TBd0vvuTMYtssW/L9HCsL8w+/V/YxJ7d7+aCRHXjqJ8vP/kASNMrcgbDsKIFAamzogFj46SbICRKCqMinbuwZpCm/GjHs/AoiP8iTTpHdlWxYIR82oDDqZxbXyguUDR+RB9cH+NmRRofB9mlna/gzwUFuvrOy01gK6OxXbX/sCFgWo8z5+d3bgLBwM5HFWWA4Azmu6QCEp6t/GjCDYDZLXVOHrXqbhFaekwAJYCdeD9uF4Nw44oaRadEqk8BeyveGwx2U2Br3m3XIAz0GhdPYF7bO+znetfFbqQyMjJPcGKSxe5KZGnaM/epi4w977vHd0153Xrd3EB+zPK49J7mVeczJ7V48aID8Lh5/ioOfCILA2EhCZ2EHAnFBSJAaJMRSIXJGqMhIw6wNWW7oNegI2G3IaBtAZoUwhySHy7VaaVuQ3CRdCQ5IZEBiM44OARJaLrnR6Zft7IncVsKy5GLkRjzIREc4k9g4fyuc0aqnWdDKcxaU5b5hPUNwLE+GeGq0yiQYtECe/acBcQ02mfD5ALsqWQ71F0jGQSKDlFvxGSw38g4uD9IgNF4ZICOMDoT2hrOvKvkyi3vqG88pP3lGeefHyjrm5HYvHfwGHqNdftOw/LBr2kDCDMsOg9Eq784gJD5YRsYIs8zChqREPPJWpzAOjFohuHLNyAeSYhbX0m2BETukyrVx+e6Nn0n6+YPW9R0CnQMdkLvdmLEBCHop72RqMEvhg2q36JM3z4HRszNPn+O9jTiLK4lBYCHq/eqJOBfIWlguuWFDPB9Q76Zs5TkLGLBYx9it76KmRS5LC+TvR91++yaZgkc//9RCLDyjVv7YIMuQkGErPoNrQVbk60BNMJtzc0rGoRdfX0jPpco5wa2sY05u99LBn9mgc37SKwazNmdukkyr8wD510gES5fE5Y6A92eMUGlgWV5DgoOk+GSgpTMJdGB0BPijCGXWyQiXDoDv6ZZLYnRUGXU8Hanv3fBzz3xsTafEgCB/7H5vIs7iZnLLMzZna8qUj3u3Nk5OHvrruqnB70nyTNwAUu+GzfkuBXEuGdxHLksL1C0DKH6RJJNcT3bbHVVm73l5USDDPrALZvxek3dstBHy9u/SCWZm2DKDNImN9ONmiORzwCmfLnq8l0OPPOfHyjjm5HYvHMzaaGxsInFJEtBwWG5sdRwAEoH4ICNIDX3CyInPHQHESTxLl7N+77RURBHudTBDEGwwKb9qMvw1EWZzyOvnuDHhrCwTVpwFxhlWD7fGpC3/yFtxrTrJYCAisQF+QovnY3yd36yIc0mgLbCsSPlyeVvgxwhYCWgRHOTGR98MAFvXKZ9KhA7L+zw/yIfNJ2VTScjZ+t9KxyzX1YhJ5MaskTzQgxTZgMImK641Pzb9MSe3jXQwMoSEaMi8r/rrQ99fGhnLRMjFYjMN8nHTAHllfTsAPqAt2/mH78I2J3Kz456ErM/IWPBcyixOcltksLAxMIncCDtTy/rKptkROQmtOsnAXngmPbkNn4/xrTxnQZwzAXtnqZBPCNhd+aDnnVLeq+Uyt8AMKbeZDNpHbSMCG0GH1QTwkD1OLaQmICR2QdIuySenheCIh+Se9OrBe7UcD5jpSWyATSkQIdeaH5v+mJPbBj6cpUFozNToTH7tFWd1j9prTfHnw06CTprlQkBjzB0I4Buj/DuAvD/DtfGTno+36byY4dXkRudA3rwnE6TJOktBFGGTgt+e5J4z2AHqc7o3EWdxJTJJT5mEVutlSOb66/ha3qqTDGypfFQ//FFlfiwZuzQ+57sUxDkTaBfsrsw7LJmVLXUw1rrGJEBQheCwlSC3MjML8oKYavLiOef4X375OYUEmZ0BNpZAes7wCsn91RFlFjk/VsYxJ7dlHLkxCDoUflH8V15+dvfTB6wrI1Qa8/954/mlcWddSOet7/1saTh2zqRvNWQAqb32jE8XEDYfRqirL/tK+UaHRkfDNI5R5KHnf7bPv+Bpg7+j1eqwNid88ku3dAfE6Fm8Kp7L+z/zzaZuC3d/fzK+94OuKVN+53e/V9zvhuCuu4O8hvI4ez3i1Fl/190FhnEBesqyPMfhZj9u654yqPuzLrshbOIT3X5hG0d86Lru89+4vY+PYi4Jzj7xQ9KLwXT88dunvvn9Qbbv7FY9c7A5il/jZwYbxblXcOyHPl++XfuJfYck9zeD3w7d74RPlLaXdWlnD9z1nu/6MpCzSsKKiX85g5kcbTrnMQnzY+Mec3JbxtEyWAgII+fPfLAjUnLLH4dmvcfss6ZbtW2MZHc6vttq+6O7Qy/8fPNX3cGZV3y9fIPz5ndfWcI5v3E481NfKX+xepvnHtWteu5xMdI8vHv4XqcWwssdITNDyoQ+70Jy3JaEPAOWQKZFi3xAJp2MOh4ChNzII4Ij8RnEAfy1Tg7n+1oK4hJLwlLJDUhw7Br+rdedV+wwitKDgRl2yAzIXZ45fkOAJUgGoLwvY6cjYFBYkxugjWY9ygyxbbXdkWWVBFLzBxLyoBIQpi0x+MxyMT827jEnt2UcLYNltLz60uu6px98USG4//6SM4rLkmTW4U+AMAKE0CA2gcyZ2WLI1x2HEz/6b90Ddj6ukBvAzyyPuNzR0ZmUZZaY1T3xoHdtsl2H9xYgOYliHCSyTCoZyNGp42sCJF4dZnuQXHhHZngtEG/+GZJj675mQWSxALfc8b3ua7es70GYV0gtXdAisxqtdCCKsAAQGyTSz5JiQEZ7aeluCkCMD91jdXffHY/tN3oB/Iecf81IWU+57KvdH/7Dud0xH/pCk+Dmx8Y95uS2jKM2VoGB8wsIEhuNlBkXcSzBMJvjnUMmtQwIj5lei9Ay6uuOQ9lYEDM2kJdG7eQgwDy7w2V2l2c5WyIyAU0DycVweHt5OH28YfUgIwkPcnP2pq5xWd9lTuPwA+Pxt+5pFkQRR/C5b367+93XvbvfIMF7JMIfvOabvY6ztllmbsI8RBRhAXpyC1vFDh/yvJMWbPYQzIwWQyvdOEBAmYSYdf3r+z9XyqSMsjBz+9kXre1/VAFik+hIgx6E5gavP37z+U2Cmx8b95iT2zKObKgC8uLl9LMOGczcttphQG684yIe4st/54plyX6kuu0RhdjUbxFaRn3tSWDJpV52sZNj6YVOxJmdHcuWMHurCXopy5ISS3h7ElMO0Ug2yLIfN8txJbf8vs449UGdvuWv72nWwUgmKXD1DTeP/HQamyX4SP9fL/rCCClltEhsHOq0UYQm2LDhz8Zhhxty5sagkfduNfHxHu4xz1/dPe4Fa/tVFgiMGdoxH/xcCZPmjE9+uZAbeid89EtlxeN3//7cQmx54MgsjvJLfBAc+png5sfGPebktoxDIxU0QogNYuLHZAthDYkqEws6J156fXfsR/6tNA5Ge/ghGdb0cRkttggtI197KbCTowzM1CwvBPfmc0ffyW2JgCgmIZNOOD251EAvnD5eP244xVWPGZlLk+iYRn+G8hyfZa17mgVRrBFcfv3NMXNn+zvExiDryPJB8yvPuHqBrmiR2DjUaaMITdAeWE0ALqEvFRAS7+0gL0iTjSSgftfHxhZsn3dpkhufCUCyh7zv6l6Pdgy58dG2bZry0obUUe9P33pRydPZHeHTLrvnLyjMj417zMltGYeGTANil5QztkfEbI0ZG6NEkJc1MmqyKnlc/pXiZjk7KnkPd+QHPl8ajfJWnjS0elfmONjJMeJ/67lX9uXFv9xZG9/zMUImL9yVOAuEICYBAoKQJBZJBZmow0LyiujiIoPUcA0TJ5CBfH1gnGH8yEpc455mQWQzghtvu7MQ2Z8efGH3qy9/V/frr353t9cxH+vef82NC3RFi8TGIaejrTCAwq4hsSjORgFtIb/DYybobuGsBzmxqYTy2H5OuOSLZaCZ2xMzL8gN4suEhg7p2agCmaJHuyc9ef74C9/V/cwLTx3ZuDI/Nu4xJ7cZD34BHEBoACPmz9Hzju2ZB59fPgFg2/8fven83vDHIRPYOPANkEuVvI9zpyTIeVEOOglGpzRmRryLLee0OrwNAcmyLHFGuXFp6C3djYVplugkjHFwhgWUSVxu6ZeUsp7p0BXomybUR+LjHMnffHXRVxe/ca17mgVhAguWJgHv3lhCO+NTXy2El+PUN02LxFrIeXz0upu6X3jxGT3hMJMa915tEmyDoqUD0Qy+RxvuFi47ho/q34HPAtoYRAW5Ue53XjT4KwiQ1S+9NO5n+Nuvv/qKs8uzy2lZuvyx3Y4rg8c5ud07x5zcZjwwTLcoM3Lj18GZrf3Plw82jzBSy0YteBdXf8+TSWwcILcH7nZyT3AsmRiX8zrsos+XeEamgGXGtZeNjohpnICZIcTX6vA2BJipseOyjJKHnx8wsm3pLgezvmMSpsskAiScQhzxvAhLVBATLvqmyS5xok4jTCtRKc/XNM58keEan/31/dT+jFpOOLJYNlpE1oL63O+qHU4YfOs23LzE+15mUuMIqsa0eoI26ztl0FqWpD3QLmgf4waFrIqwbMl7ONoam0SQM3Dz3Rqwnea0v/mas7sH7XRU91eHXtTP+ObHxj3m5DbDQSNh5Mb6PbOj337dud1vvPrswcaR5xxRiK3VMCBCjL0mvkxi41CTGyNO43JeEArxdhiULy+n0CGU92pDsiGf3NltSDBrZLQsueHyDFq6mxTxXASEAeh89WdZlkMwWSZRSWqSknE1MeJHbhhdgD9fI/uJFxEc+Fv3VGEc2YHIYtloEVkL6nPvD9n9lG6bHY7pbYOZPe+8ZiWtWQBpbbMzf3H+nd2RH1q4DMq3bBAXs7J6yVIwOH3nB7+4YOYGJDjer40jN+Ly0uT82LjHnNxmOPjruxjto/Ya/PFCSE1iw6BZmsSQ+TtS/DoJnwKwTMlv6aFHmDgNnvV5iAuyzISWMUJu2x7Rv8gmznyAMzdBOcmXGRTvB37hoMFW/0I4w/hWh7chQPnoIEpZhjsvN8bMTUw7W1kgi+cmWUgi9awJvzLCWQYIowsIQ3A5Da7LkegCdIA6yEhPxw+QEQb60cEv0Mv3BSYRWYZ6kWVBXmrMS441ap0WibVgesq8+hM39OTmsjWfoUA+UaQNAtoCgytmaE9703llBSOeYLFLUK+gAHZG2nZoL3W8gIDJAzLLA1nkDF7z5wHM0owvf6dx28PLL5qwsYTZ2/zYuMec3GY4WLagsTy47CYbEBrExrIky5MYOzOU//LidUUu3Pr/mL1P7t8tsMTBaBE579IgIgiBd2bMqs654isLyA08Ys+TSyOqyY0G5w4zwC+N9C/ShwTTuyHjWnWntyFB47cszORW6oYSSSQTiWQiMdEp41duWBAGEFbWJz/1Rc7X6yHDL+EhI2yaXC78xrXuaRbEZWfChiK3B+xywmDmFnbI7uC8wrBUkAezP9pP/81m2DugbUFuGXV6V1cA/jp+GtA/8L7N2Rt+4yifnww4e5v/Be+Ne8zJbcaDX/2GXDIgKo2YP2q46ikHj5Abhs7sDQJUDzIq5Db86a1CQgn81p3kluN/9sB15bOBmtxq0JjKi3TSDUmN67E0ySyOZcxWh/ejBEkjk0d4e7/k5WyMOMlFEnIWRseNDFd906CX81FP1OlIg4vMfMgDOa6y1j3NgshuAWHNghaRtcB1AP7Pfu2W7qcOOKMQHPa4VCLJII/Slvg2Lg3kCkIG2WViE3U+zuxquWB29qb3XF0wbgkVAisbSwIsReY4NpP4Yfevv+KMkgcHA0HaK4Pj+bHhjjm5LePIhitYdmQpEvBOzvdyLllmsMWfZUZmUf4yCWTH7Iw4CIw/QooOjReyUj4NuZEvDZtlFmZxzOYgY2ZTNKRWh7elYKolunhOkIWEoSvZ5LCEkomJeGZgkpt5EEYPEBZZjj7hGsiJx5/Tk3ecxVWneU8zILJrkta0qElsHLhOxhvO+Wz3E/udVlYoWJ6jc4/iLBmDj74PLqQGGMAxI8TmaTNL2RlZAyLiezcHmfhdlmSZE4KlzbFrsszcgsTyzA0wKyQt8SxPOnNjFvecN51XvoGT8ObH8o85uU04MF6WGjDe1pENtwaG3pJnSFIsVdIQ+bUSSG71xwYzs8XQyjODstvoWvGtDm9zwjQEVuvksKQhDGdykWAgFJccdfXfced3C0hjPiC8I3mia35Zz7DXzYRpGWp9MO6+pgH6UbweLfJaDC0iayFfRzzpNe/piWLSO65pwIBNYhtsmDqqu/KG8TOwpUBiY6ekuyX55RbiaF/lXoazMjeW/N9/GP0ciHIil9xo9xz8NW8+E2AwyicE8+XKDXPMyW3MwVIjOyOf+sbB33FqHdlwl4KarJilgVo+Dq08Z0Gr09sSMG1HL3ngQh4SiDLcEPUzJomGMHrIwun9xOEnHj8y/MZBWoQB+UuI6gJJTT1k5An0Iy9u457GofVMIptF0SI10SKyFuo8b13//fI3Dl06ZHVh3PLkuOW/GoMNVYPPC8A0g8tpQV6snvgZQP0pwLmf+WohLImNOGZpdT6g/lkuZq0MQtHnUwFmmcjmBLf840ea3FrGJ/iIlTVzjZC1dOQQHX/egiUHRmJ1hyFYu8f4J3W0cS4LrTxnAR1PdmtZhvHG0bnht6MzLofjLH708ZtWXTpoCUG/HTiupGN8nL0cqCcIZ6LIQB5O0TE9yDMk0zt7yuVBJpCHqMgBYWdbhL2m+UNixqNrvriWg3Ccxe+10UemnvlGsMTltMjMW6if02Vk3ZYskozot/Irflx0okP+/vfvsQteId3J663hESql3Od99vbuj573uujkD+tWPeeo7pF7n9od/aHrSpq45NTApkT5oeIgDZf3NyS5AQa6/t5lJjbADAxSKt/uhQ79wjhSRs4nBOSx1TMP6y697sYiP+zi68rveT759eeN7KiehPkx+ZiT2xhgoGzr5W+yMSpjyQHCe+SefCszWDfnjxRCdn9+6If63YA33ba+GD5kyPZfjB7jt0PPiHNZaOU5C0aIJvyt8DiZ8uyvw3H2Yfx1fO4wx/nj7MO4dLp0kBKFcoCu+sYJwurldJADYdOpm0kDIMtARhpA2DIZJq0ygL55E85kla8jYeFHz3wkR0Ae6BiPrvkSjrOEkWd4LVHH16j1a/Q66Mc1f/CDmKWxqjBsW3eHe1fEIQem+8ytXbf6khu6XY68pPudvz+vO+iUy8uvokxLbupxDVFmRE89uCefceTG+y224gP8LZ0WaMO0a/oA3Jq8GMwah26Oq8FMjX7j+cd+rPvSTeuLjI1qkB2fGb3oxI/1pDcJ82PyMSe3McDwC5EN19FpDKyHs3xA2GUIGxMkBrGxvALpSYDokIalBglAcJ0MjJ7GwShx3DJNRp3fUiDRtGQ5TlISysIpUJ7DOS0u8hwe6SDH+HGzn05b5NkQ8XEW4CcO/SwznSRgOuX4M2nE2V8/+3MaYBpAPGF0lOEPcYG6uKRF3/xyHHL8+Togp8XNfvXjbILrZMTZQ50s85o5jXpFN2ZpkNZ3Y3aW4QzurvADZHHGwf9BTEGAHBAaf04HF0kLLcJrkRtkBmH4+6gQDDo12G28zTMOKXj8C9f2m0I2JpipMVimT6EPoWyQ4Re+9e1eB3Lj8yK+n33C/mt6gpu0LDs/Jh9zchsD3rn94Zsv6onNLcK4GCqzMl4KE19I7mmHFGKikRHHtyyQm7M+/uQFae3w7ewzILWtdzi2fEpAQ63ja+S8loI4S0dRy5ERByQtZJmwAOFarxXOfvMv7rCzrDvOuoMmrtXJ2rkDwnH2cjr6WhcZyMt+gLg6nK8F4uzLgh9XXfM2Ha663gv+nKaOQ57JGrl6cfbXJM54YH7EEyYOf3iLfoZpWqjzBYuld6bGzA0C083kduf3BjLQ/ZD3SHgGRxRzLCQw3VYc9jQreJ1Q3s0FILdZly9bH4Dn3ZK4eebGgLUsVw4HwewSzb9sAiDYl6+9oixLQm7b7HRaIbgXHPuR7sPXfnNEN2N+TD7m5DYEIySMLP+23MHnfqaMtlqjO4gMY5XcIDFkdvz4mcH15Be6bBPmHZxLmOYFaCCF2J5zZNEd90I6w2stB5DOOFmcPTGNI7fFQB45z+y3w6w7z9zJIidMB05HbmcOcrx54FdP5PT4Qaj2fq9tHvjjLGmyDi4y0qKT0wL9lg2gG06fN2WwLLjI0FEfqFeXLadBZj7omYf5AfwZxI8DeYAsIw+R5UKbgMwKoQ3r9wffDxL7YSgE8IdvUIahfmS3KCSw7NayuNQC5DbcmvWwg5EfRQC8U5/lMwQGp7RrCCvLIbVCXkMSY2DqYJg4CI2P1suH66Hj+3sBsfnHYXEfv/+67lH7ruue9Mozy3ez4369ZX5MPubkFmCkxbZejA5CwoWQMORsTBm+FJbYmM2Rjw1c0IBc2nSmx4aUulFBbvff5cR7ldwkmTj7zgO/ccbncJbjmk55Hc7p9fdphx1u7nyzn06x70hDZgesjnq4dvQZ6OKqmzvvCI68xyI98eaDPvGEc5zLncDrA/LzOs4MjVemHF3k+NUzf/PQj16tjx9YLuLVwQ2n18kwb9GKy7II9vmKkfTWKZtIhhtJAIT2wx8EAQW+e9edI/oRXXTCmQhsqHZrGXllQCg//cI1hbhYbRlHXJCeaMW3QF+w9fZHdg/e7cRu651OHPnhhkJuQVqZwOpv6wYzxn8tfUtO+41b13dPe8sF5X2by5KZzFi6vOCq9uxtfkw+5uQWwDhZNoR4mF1JWPgnERxxZcQWYDnCxp2BUZMXeZovyAYumClCauTbmi3WaF2PBs5v2tGIWN9v6Yjc2eC3s0JmWFnWyfLsr8Pj5HEOwqmzbPnt8EVNQuiFWgH66uV8MhnUeZtGHeXmDxllHSBBeS386MTZp2d3ZJaHt89H1x2U+ImPc0TPzwTQkWyRm0YXEAe4ptcF5JehvIVpdFrgehAbMzfLs/7uIPNAX+ffu7sQXqiXNHfExA5EcAEksZrIahnAjoRt2J+pY9ckbYAPo8NCmsjpx4FZ2BMOPLN77D6rC7kB2jvXUwcyKrsp0/JjTW60S9p8XrIUbCq55ms3F+T3cGIcCc+Pycec3ALscqJhQETskJyW3FhiJB6M++1EGgGNLH/gWTcOQSNxOQOgw481Z52M+lqk5Voub47byFIjdxT4lds5lQ5qKFOe9SYB3XCK3zSE8dOZ0jnasdox48e1MzRs54mervGAsARImDjC6oE4+7xwicv54Ic4JBdk6uJHBr6z/q5ehzTkSzx6pjNMfoKw8B7CW4A/l4v0hEmX8zJemBfXzelxM8gjAx30TQMM5zjDIudJGHLLuyGD18r7Nusa2oLgIqpc9y7utUgXArsQhrM8+8lb0AYltgw2l2S9WUB74r0c7VViAwxC68EnS5XulgStwety0CK9+TH5mJNbABJxRxO/FCABMfriL0png8qwA18MbFNmSdIZnJ8HRFQTlIeyQLjMwmgsrZlcfR3SlYY4JDeWRBm51noZNXnlMC6jRjoS5fh7veiocieHm2V0ijmeODvIEJV4ZHEWmZ0oMsM5T+Wgzle/aWo5bpzFbxxhXXUsg65y9ID5AZ9HPI7++eH3eeFXpzyv5C96w7y4fmRd/BIjMq+LPN9XufawLLrIcOPs0yjTD+rnI1mSDiBHZjnQJwyIQxc5fu/ZsLaR5aQvfu5/uNHEmV5cbgSkbyHHZX9k24OVE+w9ExttYZrl/XGgPRVy2/awQmosSc7y+cA0OPHS68t7NX6eD+TfnwWQ2uvOvKLE1e/e5sfkY05uQ2A4kIgfbvNebNx2fDp8RnXukAKTPtZGlxEk5AbJKY+zCZZCygejvH8LPHj31SMzOpGvARgt5k0pfH+HrNYTdDjZX4ftRGqZfjpDOjA6PDu9jFqGvroR7IE8I6dv5WtcdgXpQR1X51Wna8E045CfS4byxZCv0fJbDjFOluU5jCsh6eoH6DjzxB9neXbGq4tO1gPEeR/mW9+/6ZW58YRZHi62FJfbIOQGmDnx26w9lklu9AkMMO+/07GF2KbZwTwNeL9On/GpL9/cPXbfNeV9m2BTyTnDd2wMaF9w4uXd/f/qiO6v33Fx2TmZlyjnx+RjTm5DYEi8o+JFNCTUIhOBYWL0NB6WG3GR2ahbgAj5PADidKkwziYKuUWeEJVk1SLa+hqUmWXJR+29uqSjsdc6GbkjqjumOgzoULLMTq3v3FLHZ+eYZbjI7SRDVPyM7g2D7M956yrHb37qEWe811HP6xg2D9NlFzl+4zOM4xnE2T8XYKfbel5CPfIB3gP+OMs1DOfr6Vcucrz3RRh5Kx9kzuBwgXrEIzevHA+MA5AUs7Cy/T/S9bsjhxtKvF9047ynPJQh0vAMSrIhCLcwLi6yHgHtyp2QgPdurIDUemKaDSX8sDPtkb/SMalPgAjFYvnSV5S+Y7iBpAYkxzduux11SfEjY+ekf1bLfObH5GNObkOwZs7yob/qfdmXbh6Jz2BZMb9DQ3/SDAkwK8xpJq3Jb3fY4NfDJTfBEiUNQ73WdQCzyEkzSZE7XjvnHA6nD9uh4EdO/LiOkTAjfeKQA/yO/o0XxNXpyCvnJwiH03eYhpUZRjfHZ79AFk5xgfJabyyGz6t+bro8rxyu47gO16WsPqs4ixyZ10EHOa5AJ5fTsLLs6g+ngLx5zsj1A6+pHJhW+UhewyVGf6EEcoPUJDifSZ0HuqTRpgDJc3gaRNYLALFAcgwGJ5FRjWmIbhxoy+yS5M/4sKmEtt7SE+ijJ5kxWxOGH7bXmu7Bzxv8UWRRz97mx+RjTm4B3qthkMzGJCveVRlfg6UOyCeT2xvOvqr8QokNOoPPDPi1E/TyTC+imqAsTzhg+CK7Irg8Em1da1bkTrcOxzkiA8gADYwO2Q6Rzi6ckc7TOJBldHD4JTXileVNGsgBfnVrqIcfHcukPJdRfZDzUJ7jQZw9Iqogy/KzysjyOMfKuJ55ej3Clqm+Z+JxLZ8y5XU4++Psr0WYd2jKyCs/J4A/1xGo9SC2ssQ4TMM9lfsiPTOzcIGk571btkxUIR4JTwPyGoflkNWscCZWPgMIt/5Im9WUR+99SlkZyvqQGDMzfo2EHZNrP3F998svO7PM2gg/420Xj8zu+Lmui6+9sZ+9zY/Jx48cubnezXKDxofRQWx+h4bhGY8uS5XM1mwwEAxEJbmh31oCJA1EWP7EfOigS1rIi92V5NUCSxtcF93SCIbExns43qOpV19vKcidbh3GpRPJ8crvvGtAQiOdXZSJjguZGxCMV57TKM8dZ0aI+jwBYaBfeZwFysIpyLot5DLgkof5EY+/lV65zwLXDjfLhM+xfpZcs85TIDM+y3BzOvzAeJD1QX0dwtQP4QgWmc/cvHBzWJnhOEfIDVn/LLjmkNxwnc0RH9Elj5Jm+ExAiEfC04C8NjaYBTIDnESWkA0DWGZjD9n9lH5gjJy+w08E+ICcdk1eECAzs5esvrz/fUmQf5EkL0uCnQ7/YHkfRx9G/PyYfPzIkRtLApAGhpbJ6kHbDr4/AxASBINxstbur4G73CC5Zf08a2NJEMIkjnSA921sIc565DUJXJ/1/kJsafej8eazsWCnbKdlGPDs7BBzxwhy2FmYnWMdRq8mSeIIlw4zwuNgHurhgjhLOOenXgYyoQx9EN4R3RbqZ+VzqmXjYD5ec1wYtMo/KY3hLAPkk5858T4Dwj73HAbo53pCp7/P4TXqd22SHy4bSL7LtdAN+yFeWwLxuEfC0yCy2OigrUNQvLJYbJkTXfRot/Qf5fVFtH0/7OZTIwbB6rNLchJpMpP7rb87pyc4ZnL8xQDyJ35+TD5+pMgNg4Og+BPvzNI0Ej7A/PXXnFvII/+BQUZZzOggKd7FsQ3YmRxGy0wM/b4xD8H7O3ZHllndtoeX9KSt9eKcClyDpQ2uneV1frOCDjb763CWA2Zr6++8qzTIIht2jLnzs+MThNELby/DD0yfO1r17ERNDwybr7otkB6XdMpqPwhvCWc3y0W+tsjPqPXcshtnX2d9XFzHPOO8J99hOZHhF8Ypz2HTKqtdrsMzsa7053TqhLfAMPrM9EynvvfTh9O7NuLKdv8fxvWHuyQhNn5rkvsHmahCfSQ8DbjGxgbtnsHto/ZZ2/9x0sXQD4qHxCYgv0mfAAmWJSE2/fwcF+TGL5kgn5PbdMdmTW7lz2vMAMgB0vHvsU0aNQnI8HH7renOHi5T+jM6Wz3niEI4resArvXY/daWWRcEyQvuBXpxD+RZOohorLh2DMSJVtgOwo6S9PolH/y1niBsh2bnl/12WOrQudnRlY4syoE8d345XY7DD/CbPoJ9mSg7xOk9CGbAuRPDj8x0ywVliqL091zKFPAeWmkyTJfT1mHgNYD3XmQ/DL3lYPic+vKEP9sB/vxM1VFfwsp1hKyvn2F5kfMu1DBubQvGZfLTZsK7IN4wcQA/18HVD9AzPqPIh/eT7y/ffx2nzOcSwUVB2+VTANp6nnVNgu/kScdPdfGNXGtw2gJLjvfd+cRCqL67Y8Z43+ce2f30/mvL6o8EOT8mHz8y5IaBMEP71ZeeVmZCyLJRAQyrZcCZBCU3RnTo1tfJ8C9rj/vr2jY4G53+uExPYkIZINxKl/2tuIwiG3YwuBl95xHXoYNykwcdE/I4iw5hOyT1TY/ceGVZH0QRSjl4vsCy2vm469MOy3KTTv9yEVn15cDN/qzXQpyLAj3Lbxrccj8twpoFw2cyCSPXG8LBj0QD4iz1VNeX9Z51iQdx9n7Sm0cdzmmyrEadTj1tRrllzPfEPQrC+Znn+w/vSNvKbbuFxeJbqMmNj8AzsdHPMNjl1UWdP3EP3PnYkl5y41UK5Abp0XfR7zB7mx+Tjx8JcpPY3ObvjCsbFRtImKEB3nM59a9BXhgb7rfXt0lrWtDozLfVKHXVqVHr1P6xnaoYdiDjQGdCp5JH93Y2wJG5uuoTZ4dIXJwljnDfMZEmykMZJbBQKbB8yHPjR4cw6TYELAdlBrV/MeQO3/vN4VaaEbQIawaUe4jnVNezzw+/OsbnNBKX9Yvf+uEerGf8yLKuehE1Vl8gI635q1PL41wA9XDjLDJ16/sBEexl+msd/MZPA14p8EslvI5gg0lLJwPioo+BoJi11TM28uC3Kh+z79rS19Cf5Hj6FpYw/baV9OQFudGH8V6PVx/zY/KxxZMb2/zZhOEvj7TIjfiyto4B7XB094i915TRFyMk3tOpV6O+1qyggdn4ciNUTkeuP84+3rC6NFjj9GeZIJxldkJ2HnYkyHKcy1d2MOoJ06KvXzmycPq8cEHpIOP+IDCWJGvSonzIsrzunLL+UuBmBzc+UCeG8SObBPXqdDmMnnkR5t2T6VuENQu4B59FfiY5nG3IZxfeQVxUBKgJhnrLZEeYOpTYHNQA5JGkT1PqdZgPctx8DfS0izqNcfgFeiHq4wRybVx4n7hAe8l6ynEjuCggGPoOZ2IsU/JMW7qCeAiJmVdrJaiQ1dMO6bZ69mElXzeqZUBeDrBxed/30Oed2P3s/qvL0uRXbuHXOefHpGOLJjeWAzFOXu6ygWTrHdcUcuPP2mhQjJo0Xohtqx2O7x64y/HF/9MHrCskh5ECDCyTXeuas6BulBnIcseU5bhx9o3Wxpr9AB1lIudnJ1F3LKXjSGE7pqwH0BsXj98wesrwAzrIXK68BEnZKGdLlu9ruaAclhN/q9yTkHXw1+E4F+iNyBqENROGz6O/n2FYmc82vL29GPb+KUe+5xAVeV2nyCQhXAnOuHD6uCzHNa8sFy05fkB+hMPby0TRi3vhXr0//FmG32cjkIOcbhIgEn9f0t+YHLeqMy14Z0a/wswNsnRmR3tnVgZaBCq5tWZuV3z51u5zX7u1DJ7mx+DYoskNA8A4+c7MWZsuwKhYwy6k9pwjiqsfsEQJwSGD/ICGCFrXnAlxD+RTOpphh4RrI7Wh5sZpvAhRL89+3Dq9aXoMO5NxsBMBrU4NGX7kdnzKnO3ZQaFvx6eO5QM0Zmdw3AcgHnKT5IH3Qpz+pUIb8rBePPp6mgBnYePCynJYNAlrBrTqt5YpF4TRKYg6oR6sw1xX1mVGqbNhHPraQohGbAQZ4ZwPfoBcmCfAn+OEeeDGWWS9bron70tboRZDNPIMfDaC+BaJZLCqw0oPszZ2TOJfLM20yH8ImXdtDKDtZ/InP8bnmRsECZHd+p27Cqm95V1Xdyd94IvdTbd+Z2C882PLJTfeh/lbkRAaYMbGL4UYhsBYggQP3f3kAv0QGgaG8bHD0tlcXh9vXXcSKNPIe7q4B/Kx8dkQkWV5jlNGQ82yDPVtzOHt8zO+xA07j9JRJGRZ7nzozOxY0MlQH6BjmpweV/3iT52RflzLmsMg63uPy0FkWfLFneQfB3QWQ5wj+l4XtAhrJlTPwbAyrgd4bvVzBFENpV7qOrTOMiAtdUiHiz0gI4xLXkCdnD5fh7C2lGH+QL/54sZZZIRx6/vn3urnUNuMQHdasLToCk4rHnCNlnxaSGxbPffYgjyjA+TPbsnH7bu6vI+jb7vwiq9177r8W93LTrqi++O3fKB7/bsu7774rTm5eWyx5MbIhhGOm0gYJUEsGhHkBlkxOzvlssHP4mBAGRoWYDmSnZK87FXWuu44sAzKh9j8qDFLpWUHJfcwBI3STic3Phtr3XgpH35dZKXDGvrNg3DOFyAr8mHHYYeR/XYudCiE6dwEnVOtB/CD3KGpn2XqUhafdfYDlyPzzI0yc0/Ae10O6oMZlkepN9wJmPYgr9bRJKwZwD3wXKxb7wv/OLnPLc6egKiTXJfWEUBmPRJW33qGpNhNK1khF8p4qiBEvR0A8kNGXE6HnHRAnRyvTrmH+I970kZCVGS1zeAKnwPyaUF+LfmGAv0D7+AkN/z1uzhIVoJjBvl/X//e7ldf9q7uATuf2m3zvJO6Xzro9O4f331F9+Wb7oqnMD+2WHJj1POnYQCQGH5nTIVkhuTG+zVmb/USwDgwq4MMmQ2yu7K+5jjwu5P82RrIje/e+P6NHVORZY/c8ISdE6Bx2THlhmu84ZyP/jgLlPedwbATobPADad/5wII06nRedkZ2enYwZiWeHTp0HCREW+niAvMB1AG78Xy5ntu+b0nn8Vy0DqoL4+6Hjc04hFMROOPR3c/iH5LcA8+H+9psTDPzWdpnVCH1DWg3pBZj9YZYfQIW7fA+ldmWF3yBKTXRgDx6AOvmdOShjj8WY4e+RSd6v5wvbcIjrjYGTqG0cN/b4D+hdcfDLTZtU3fwXt++iKWG9GhfITZ8g+50Ue1ZoqQG3EsUUJqYNWzj+sB2b3tvVd037r1ru5H/e3bFktuGBA/f8NoJ8sxIN+9SW71z+LUYNYGQbE0iT4uxslSBdcY9x2bWPAnbMIP4UbWBVzDzoeGJ5Qp1z9txz4un74DiGvnDgQ/MjsTOyMJKcR9nPoAv52WHQ/AD8K7IJ+SLspBo/Z+KJObSEr5uF7SyfeS/dPg41+4sfvrQy7udnnnh+/BkR9cgJ3f+YGmvIVdj/rQROx85GTs+i8faWLHIz7Q7XH8x0aITnz3+0EuQ9TPow77zDKIi7O41iH1Qd74qVtQ6icirGv91KPxgDqVuMxPfWX6SZf1winI+apvXM5Pv9cv9zC0D+8NN993lnnvxuHf2KBsbGhjIwrt/mF7ri6/hsTmFIgqv+ZgwIuOuyhbv4jCqo/f2q768yC0wDZ/flQB5Pbw553aPfcdF3aXf/GmqNEf7WOLJDfIhuVDUMeVmdvwT8+4M5JtuczGakMSvHdjidONJRAcKAYWszHWwNffPXqdDN7Zoac+xFjKxj0EuAYNz4ZoozScXUBDDWdEpo5Qr9YRyO1Mop8onQUdjzBcdzR2ULimx5W8WrLwlrD5CBq+HVMUaVCmocxy4ofs8IdKr2dnNS1ee9pV3VZPP7R74LOO7LHVX0Y9LgOrnnX4RGz1rMMm4j5/cVQTq/460gfedNbV3R3M1rjvCtOQ26LhyIi6wtVv/SkjrJ/6hMjUCVHxG6794RSYHzJtqtbNNqUO+ZNePfwgggP/8D5qW6jv1XYQ3j4el/C9AQbO/OA5S4k/f+Dasjml7L6M/oABsr84wgY4wpAXun7nVoOZIAPmfY+6vMf+x11RZm3O3t5x4dXx9H60jy2K3CQ1XrYyc8NomCGVWdJQB0OD2Ji9QVaQFBtIIC+NZ9yHmhgcxITxsUTpMiNGCmmSbhyhsixBWvLgp7x852beuVHmhqk/y2zMNlpBWBjOaeo87KjsQICERMciMRFP52IHpAxd9YlHTjxhkcOkIV913R1pWS1fnD2Q+/4tl38W/PvNt3cHHPOJbqtnHtndd7tje6yi7sSOMQoGWbZskN8EPGcRPOPw7p3v/2IhMp5bRpHF8/Ee8bfCPLO63n2WuU6BYWWEAf5wilwZYeOyHjrhlHhcgI2oo19dXIAce3QWSLqcL0AmQrzAXvDXNlLuM+63FY5zASAY+wxJZ6nAtt0NSb8AWdEXMNilL2DmxofZ7AcgXl36KMI5rxbqg92S/+2gwTs43sf5acCP6ucBWxS5QRqMaNgRyXdtP7bnqYXEIB8MCx2MBuMi3l2ReUkSg+a92rhRE8AIMUiXGQvBDWdmjLzqco2D+dnohA3RuHAWyEBOk9Nm/yRdOhQ7GToVO5PstzNRD1mcRUZYciOsHJ3cIZm/YfOC3FyG9LclKWucpXx0DrljyhgnH4fjL7quQW4xE9/xmAEYTWe0ZDV2XAzDvMehRWg1hgQXj20BufGMeA7AOh0X9jkgw42z1EWG9YJLXVqf2U5A/jm2GtkehOm1Lfz5WtpaloGsSx6CcJz9PXpfGfl+c9hngz/OEdD2/cFjlhHzrGpW8CqD/oilRQhN4spgBgbBcb1H7LW69Cm1ziTkw88C3vbuz5WlyYfsfFK38+Ef6C783NeK/Efx2GLIjZkQpPVju93zHRszNGdpuCw9YlCMzlhGpPP0hS6A+Nzyz4wOo8zGVIPR3QjBhZHyDi6XaxLIo26EuTHqRw+Xhmka5bVeloW39+MC7rmfLUWHQieBS6cSTt8Z2eGUTiRgJ2MnhA5pMux0zA83ziInbBo7KcpKOTKJIQP4c0eEv9bDnRbrLvtm94g9YqQ8Qm4x8NkxCG6nY7qtdj62B+Fa1sJ9dj5medjhpAVokdsh77m6SW7cV5wjzyKHfVaA55jtAD/5UF/WmfWE3zj8kAxydbUDw/hBnMU1D0nQ9OaPXiQraQlrD+qYR9ZFRhwgXUkf96BdOEgiLFr3rJxwnCMorw+2PWzkB4/rn8aaFvQdpDevcfmwClR2SQaYzXEvLb0W8sGy5KP3Or2AWRuA4P78bR/oPvbFW4daP1rHFkNukNUfh3EwC2O0xU4jPt6G2PhmhJkafmZ2xEsuAtJzJse7ON7D8UsAWacGBltGeRuY3LJMIqr9NNI6rWFl4YzEg9y47VjoMOxgAJ2RfjsbOhRAZ6M+bu6c1AWEcdHXzbrA8tgxSV4Av/eb7ylD+bQ4/qOjs7f77HBct/WOx3fb7HRCWR663y4nFRcom4T77HjCRJQOcgJa5Ha/XU4truR2n+cc1f3Y7qd2b3zPFaVDF9O8c8ONs8B4UexnWDfAusONs4+zznCznnHYSia/Og0gDTAcKr0ueqYnrDzv0AX4tRvL4H1iJ64C1PcJuH90s+0rz+g3fg3rB6JjAEsc/cMTDjyzbAaBkMbNxoSfHJWNJCmfGswOy+7I6G+YxbV0MtBHj4E637h5/O7rL+xW/dVgU8lP7HVqH+bzAN6//Sh+3L1FLUu69AjY+s97N4yQd2H+diQkxwYQdLLRSG5uFJnmby8RD3GWJUkQBkoDsQyLgUYmcmPM8tzB2ziFZIA/E0KW53wA/jiLS6dBZ0FHAezYgJ1R35FEGuT4SUPngx+d3DHltEBZnCP5fWf9XaWMpRxRTsnN8ll2dPK94Ob7mgVc4+1nX9Xdd8fV3aq/YeYWs6eY0W+9cxDcLkFmuwaphQuUTcJ9meVPQCtNRk1soEVubC75jde+t7vs324aITjuqX4eOYxb20GOpx6st3CKn/oByqxb9YhDDpBJNsQB84CwCKuPXxIjrFw7Iew1gHYZ3l5fPXXjFnpbdoDE/SKLs793dbAvw7oZDIztJyAkdjb6/l2yKhtBAvwkF+/26zwEcfw4ckkTGEduV95wW7ku+dMHtXRYXSKOmSWfAJAfhPjsd3wg7nJwuJkEMHt72elXdG+78HPdH/7jhd1xH/ncUOtH69hiyI0lxUnfnkFC2zx38P4NA0aWDYg1cgyMDR+MjiaNygSN55Iv3NjtcuQl3f978wXdn7z14pgdXF8a1jiQRj8NzMZofoZzY0QXGX5lJX7YyGn8dAZ2HgA/MjsEdJDhj7N0GuZDOHcsdwfu+l50XOEBpAWkJT/SlbIMwwCyK3kO8+JagLDl1E9ekJtkVsoQ+XGP+H0OXmccTDsrfmb/07r7PPeYbtX2RxdstdPxS8L9dj5hWdhqx2OnBsRbv89t3dss4Bnjxtk/8/zcrTPcbEtAuWF10cEvjNdOcj7KAGnVRQcYVjeHS3xuC+HP722V6yKP2+xlhjNuueN7pf3Snvc89tLu7edf2914250l7oiLro3B66Hdqu2iDwHhn/THSxn4MrCmzkBZLaqul+tyEujbWLJc9ezDu1XPPa57wM4sV/9rmUFyP0BSZnDOTwbSF0L2kCLp1cvY0o8tgtyoPL5D+4W9TioG1dqWv91hHxkYRRgIhoKM+s3gXdwsa+xxFtBQvnzjt0cNdwxyo6KR2fhAK4wb5wIZoJFH/9HsZOwg7BSQSW7olHRRltIpDDsSdADEtv67QVh3fa/7zp33LDl5Da5N+etro2PYaxOu84+zhLl+677w57gNDV7cP+h5p3RbbXv8sgjuvrtCOktHi8TGYdV2R3Y//aLhx/9Dm27d2yzwmePW4PlbfyCTC/46rJttLJzeJsxDuzStcXEW3ZwfeamLLAO5NhJnX2ZcwrXcgRRh3YieGmsuu757yB4xo94uCAZye8bCXxCZFdZjxsjP8w3BrA/iYnD+kOedNNKPcS+gLFcGqbH6hPuv53+mENtNt63vdWps6cdmT26MiHg3xozLEQ0zsNpA+pHPGHJjpMOvB2TZYohzUdCwQA7r18hoaDY6w9lvo1Wun8ZvQ7cTsLPIO9pKRxAyOx47iOCvwexsGG8Hk69Vyh8RyPsOJ9Iwu1Pmtc2XsHkaJh59UfKMa8QlCrhW9uf7HAf1lgLsJZPbUgiOpcvloEVikwDB4doBtu5rFsRZ3PpZ+nxznWkfAD9xIPupZ+wDWSQpusi1uzj7vMxPv7ajLnGE0cdvOvMo4WG7qMvduhf9WR7ZTg1mdf9y0XXdNrsGuexxaiE6lhOzTmQ7E3L/BBikMxu8+dvrR34YggE3fRvExmzt4XvxqySj5AboC1++7orymRJ7B372gDX9jyxnPbGlH5s1udHIMTC+IWO6XhDkxogqGw2YRG68X2NUhAH9xL6njuygnIQ4F0Uhh0Ro+nExMPJRx3xtkIbRyw1TOY3fjsCGr9/Owk5HGa6dkEuP6ooF1x7mWzqU8ESy8mtQ5I2++UtiRWeYBlnJM+VBuOjFPXuv2d8Kt+DzWCp2OOySrnyMnQhuJrS298+AmrymwQP3WN3bdOueZkGcxfVZ1mHryTrGFcV+wrWucZUTjrO3RfJABvBrI8YrxzVP4vCrz/W1L/SK7vA9rbZi2Vu2E9kVl3vERQcZwJ/D44CO5QDktRxYj4A+yz4IsGEEUjOevs5BDbM0+jlmac8//mPlOXDvgHxYmiy/vhRgEMfgv0VwW/qxWZMbFcbI5BcOOr38rTbIDQNhZMPLV0ZCGsc4cmPKjwFgLMRhWC1y4x0cJAoRki+yOMfCxlI3nCzHwMhHHa+VG6VQBxAmrR2MnQQNn7BAbhwuHQJurxcsxeyNeNMQZ7m8DvG5UbNkWRDXV0Y6wrnzibPPk7BlQEaerfvrrxl+3I2J1555ZXff3U5eMIObGry3WwZa5DUNeL8y7j3KLIizd4V1UPzU0bAuQQ5rQ/itV2TYgnq4+rNOjtd+ADLtxbzVU04+wg0kEhz3oi1pR8q4H5cmRYgWBXmBVhx5Lgf2TcANK/RfojVIB3sd+9Giy+yMb3IlNwb65dMCyS1c9xC8ZM3l5RqZ5Lb0Y7MmN3ZHMsKBkApxDY1DkqJSIS8AAZa40HniQe8qRkL9spGEPEhDPFP/mtwwCHSIJ1+MCHmcY2GDyI2j9mtkNL66MeoHcS6IQ2ZHYmOn8UswdiB2DjlMfEEQG7Mw5X1ew+vQaHDNV1IiXSHGkJsWGCYPw5kAATI7Lu5BeE38cfbhSUBnOfi3b97RvXj1J7uH7hkEV/201jRY9ZeHLQ8MqKbBdkf2S5IAGbvxWvc0C3yGcfZh7FK5hEJdAfxCW7Cu8SOznrUX9QB6wDRAffSUFRsLj+m8Zs4DfcjKMgPuw3vJ9ye8N+WhOgLzaaHWBZHFspAJi+VIdluX+qYvG36KZDzLlJAafdpP7X96bxsQnOT2opM/VggNGd/rQnTsNWAwz1Llr7/ijJFZ3JZ+bNbkxsjmifuf2j14j7PKFny+MaPiJTFmcLxLg9w0CJYdme1hMBqZ0/yCmP3V5JZf6OK6SyrOqWDjqBtMbmhgXLglJz2dQm7w+HMnYadgB4KfeDsTy2Aevf7dQUrBYGwmcdly5FrD8hAWpNNFvwadXU283ouunVUE+2tMgs9jqaBSvnLjd8sMbpcjP97tfuQls+GoS5cFOqtpgG0zAn/cC1b3JMdga7mzt/wM62cLtJmorlJntR2VOoy4XOf4gYMadXCRZ3sB6KCrTahnXspNZ9pSjuFMDDu2g49LFTfO3r7xt+4TXXSWCvKdFdQZBFPPyuhj6IcAK0TULzLjWZIs/VOQHgPsP/yHwYyMXeDeu/2Y5MYg/K8OvagsX7Kyhcx8SbOlH5v9zI2Gn78tY9ckHQEkhpG4Tk0lQ3YSG9Dg2EjCbI6RDmlpNMaBQm7DmR3AMJHH2ePW9d/vPvfNb5dPA66+4eYSNo6GoJtBA8P1Osrx58aIDD9y8sFPGesOxc4AxFk6AOLpPNxgYmeCnLzLdUKXDoT0xEFsvo9jlmaHgg6wnMgsA/kSZ/64xJN3iEse6Fk2dL0/UZNbKdtGRF9BS0RY0fL+De1wGmCDf3fmpwbLTsPZ20GrL+s7tqXAZ4xLfeYwdaEtWX/Wa6m7uH/rEVld3/iVaSfmhQ5xhNULp4RrF1392pr2xr1TVtz1dw6+m4ziL7g/ZLahbGNx9ra8FJDHLGCViMEKBEU/kr/LzcivUwQzN/omlqTJg12z3I8uyOQGoSGD/Aj7I/H0iRddMye3FX/UBpCBgbAVFj+GgSGx1T/rYHDT4Mrr/72MlgAjHz8XiLMHO6mecNBZYVyHdQ/ba035RoYGQFx2M3Ljwy80VkDYBknYdMWNRu8vORRSCtBZILdDMUznIAjTaXgNOw7TQG4SG347IOJK+mE5zdfro2d5kOcyKFO/+NNzyGjdN8/P8ma95WC5/xYeyAb44Q+izpOtbUiwqcQZ3P6rP9W8t2ngcxyLZDfUGdAOAPHWLch6OR22YTjOXm56kPMlnrg4ex2JFVcd7gEboaMW2NO093dPbU2GdlojLjETJJ9+81sMmPPsbFZ4nyIvS0purzvrivJeztkc5EZfOCe3FX5AYGzwwGhalU88ox3eo7EsyQ+Z5vio+6nBhhJAY1IWZ4//9ZrzwliP6LZ+7tEFEBwfKmedVuOgkeHPRmrjI94wruFeFmEaPA3dDsIOhE4B6KdDIB69Pi7y4drGGQ+pSWx862ankzsVylJ0A8jNVz96lsu0lAUZHRS65AG8J+H9G5bkQAQXxC8Vy/8XDym64CyZ6V+yxWnBN5yQm7M3RvGte5sGPsdxoM60C/zUGbBelY/YzhDWP3IJyYFPra+u4ThH7FaYBt0iiw4624bg3rDrWl4jLlFge5wVcZmxYJbGe1GIRBkz7Z7YAm4MatXzNKjrE7DkiV1AbjwfZKxsIZuT22ZyYBRUJOTFjIpKy9+GAKbsLiUCdlDyMtX4qPdlIc4emdx089IkqBsHhmdD0zhzmGtkuX7DNHQavB0Dfho9fjsEOgiAzI6BcOkgvhedZRCYnQb6yCP7vhwAGUCvXCPSFQyvgcw8Af5wCnI54uzzKfFxoXD6++G6+H02grhaHmfvXyo25L8o/dClrqf8l2x1Fjx0jxMLuQF/uaR1f4sh13EL1h22YZ3iEs4zKJB11LOujSMNfkAc6ZGZFzqm9brF3pKfuDgH+QyJLW6luDk8zf2F2kTkttoC12nh9ecMdnAL3o995cbbSvnos/h9SjZ6uLI0CewZoI9jUwhL0rn/qusTnHLZV3sic9MRRMZuSWQQ3fyd2wo+GBXx3ktig7gYCWWjAOWHjdl5FHHojHvnhpGx3Mj7OmXTIM4eP3/QuvKTPCxL3n/n47uDTrm8+/adk8kNYHzklRudhqoOMhqGYfzARm+Hgh+ZIEwnQocA7IiIK51KEJvLjsh7/bocw3R0LqUjGpKi10NG/l4Tf6gX2DkZNi/83IP3iT+8fRh/LoNyy0Z8jlsKlvuv+yEzt3AL4n/salQyEdrhtKBjo3OS2Jy90em17m8x+CzHgZlWrk9cwhnKrVdk1LfANoyTnLQTdfAjF4TR1XbUNa9QKS73EGcBtkGHTbl5utPcH3qTQJ6T4LVrlJnS8L1a6X+Gy4/EsfrDOy9+UxLCe+WZnyn6bNN3f0AGfRMrTyWfqGtfixCX6xJAZpAgS5MQGbrujGRzyX/Z++SyTHnrHYMZ3ZZ+bHbkhnHwDozRKmTFLiCMCAPIHz0CZ26QGySIcbCxxHjqlyk6nQPGyNIlxIl8GsTZ4/VnX93tcNgHu7889OJCbF+7ZX0XRR3RqRuHRpkbHPkiU4dOH7mEBmjExR+NnkZup5A7C+P0E2/YjqMQVPTPykmLnOtSDstiHsZncgOSW+6MADLLhF/E5YrLPXiv+L2e18dvGNfn47MyfqnYGP/iqfW4x9dGttVpgD1jwyPktt2RZRclnVfrHifB5zgOmUyoM+qUOrZurUuBbrGrSGe9I0PPMHraCa5+9cwHmddHpj7XRlbkcQ9x9rZCmQ1LdJMQagXY11LgtWq8bO2nBkuPz4bcBjusJbcM6pONb/Q9LFFCTnWdQ05lOTPyAAzofU+X67Lvx0KH92uA2Zo/v8VkAHJ79brLy6oXfSX5sA9hSz02K3KD2KjEetYmgTlS0TAY9RgnATI7Mx4D678ZiZERfpYBkE+DOJvA8MfJM2yQQCPNYVw6fWWms+HS6IFkQgcA7CRyR6PMDqp0HkFQd4ecOPMoceYfZSjXG+YrIMRMbsjMg/T5unZU6mSQP8/Few2nvyauIOz9Z/k4MDKl8S6GT3/llqlx1ddvL7j267fcg2/d1l3zzVtDfkt3xVdv6j755Ru7y6//jwG+PAhPRJSBDq41Yq/Bkjt2n793ywSH64h8WvBMJ4H6LPUU9YJLHVK3ynNcrWO9I0Nfe0DPPAgjdycvadQnjLyQWKTBNY3XsJz5nuIsLj+inO+lBexpOeBaLdBHMRtjSRLCgbiYqdV6yOx/2K1N/bbqnj6NPIDEhs1gOwz0ISs2jUhs/jJJfi7v/NCXugf+9eCjbn7VhNc49Jf0kVvqsdmQG39pls6ADSQYzAN3PraQG4QFyswsSAwdKp9RUP/h9pDcGN1mo8HAqGRJkik9hoJ8GsQ5NVqNw0aWG6Vyr+HsBtggIR/iaPCAhm7nAZTbCeDSadhxoAvIu5RlqE98yW/4nRtu3lBCWuL7sg3DuKQFXC8jy9QR5uP95fvMz0bkZxbBkThBB19eqv8VA5Z3TsZzghimwMN2X909fr+13X998Zkj+MWXnVPw8wed1f343qd2D9jhmG7V3xzRrdo2yIY/hurIfRyGpER5FyM4f8Eik1oG796w/dYzGYf8nFuwfjOyLNsacu0NINMmlQHD1H+o9KRofllPEIeOelyLvCmjNuH94MbZ38MkhNrMKO1lCK4zCawCMSBvxQHqFbKhXvc98bIFdT4JEGEhMn6NZLhDMv8qSa5noD4bTfhhZXQhRGZ39Hlb4rHZkBvTZxq4xIZB+P6MHxplFIObKz+/b2M0ZZzAwOjgSUs8LrJpEWdv8Pozsjw3CkEDw/BygyNfZfghMsLKKS+jUvK0o6EDwG9HgZs7CzoCXHQyyI/8jbMTYWZWSG24/JjzKnpRdtIiB31+cd18nUKg4SIjfXiLPnolbXoOGd5/jvP+cY0jXIMBDH/OZhq0iKyFrXc4sQn+FhyAXPjbcAXky6ai4ucnusYjk5ODsnEo9jyB3AQdVeu5tOCzHQfqSVB31GW2KesUKM91jUsa6jqCvS0A0+U8TYvMdF6n2EuANLhl52XYbl5lsNzh7e1kEkJlKminNbzOUkG9MqgB9Wa4xdDbA4Q2BGE2qtT1LBj4AdoIBPeYvU8u5MbMcEs8Nhtyu+ZrN3c7Hf7B7j7bvbPb6pmHdUdefG3p6KPOmrDyy1/Ifs6RMxPXNIhzJtAgcpgGpuHZ4HJYUgL4DefGD+LsGz5yNwIAZMCOQ+Q8iDcf/Mi5Fv6czmt7PUCYOMsHzFdi9n64f+qMxvmDHyxt5JwR2Y7gredd1T1kr1ODOGJWNA0kpLGAtMYjdywtrNo+9CZAcqSDmfTug0Hcj+15Uq8vamJjJuiGg/rZtEB9ZNsLUXGpI+uthvVYEB3y978/6OSRE2+c4ZJf2AO2hE1gH9pfiHr7AehoW8jxa3/EoZ/tjjjyI0w8MsLItVXzJ5zTAsomOY6UN+4fl/vyvoW66rfAqhHv9hmI8xF1SwfUhFWDzR+P339d81On0r89553dNmGngL6O79wmzRQz2LH58N1PKEuU9I1b4rHZkNuXblrfHXrBtYXgcFmmbFWaqMmt9UJ3uYhzJtDoczg3kLrB4M8dgW5u2MriHOkYckMGNu6cXr9ps584Ow2vAcwDHeS46lrWnI/kFmcB91Q6zugQqT+fwzTw+WSYr9j+8Eu6VU8/dAGJbcOycwM1WdRYteNktAgtY+udYoaXsJDgonyBxZaF/Pi3Ll9NboL3KPWzaQF71Nb0g0xOxtdAzgCFulQ/RAX488ATmwDZhgD2on1pO3GO2F1tW8SrYz74wyly88JFBszPsChlG5bde8p+4oTyHD8ODFYYaFBn1AcEwuCl1qsJq0ap96cdUnZfk0ee3THb4jqSm+/jItsRMDCCaGub4BUM6VjCpK+85fY7h9a25Ryb1Ts3CO4L3/r2UDJaiTWmIbfFRjm88CUfpvEYB37A8mh5sRtlmAQaRR3OMhqJ17LR5LCN1sZJg6UBIyPssgx50lhIh2sYkA86jsbR8Vo5fzsKOwfJLXcS+imD5IqbiVM9y8d1ctkI2ymGqAnLtxjIU5x46fXdr73ynOFS9OLEBu636wkTUZNJjRahifvucvICcqsJjtkYo+1JBz88QEcECS64fkVqAJt/wfEfKZ1pfj4t+AypF2yGMH7rSbeGOtQj7bKuZ/JSRhh70E6wC+05kxYuetiWNqQ8Q7luKy1h5PgBcbWNAu+PMsZZgN974T4EsgyfQQsORnKd0F/UepnIWpDc+GaWGXm9dMmgiNkboE+qfxOXfushu59S8mAWyasX4yS3R+99yhY7e9tsyM2DxgTBgTw6zKCSy+gpSK1FbqQjjEGwhNPKhzxYvybt/Xc5sXvw7quLH0PFWNgNFWo9aAA53JLZUAznRlI3mhKOBkhjpGHSEdhA+8Ya5RbkW+cTZ/ETh0vY/Et5hg2d/HLnYf52Frro4wfo5g4DmK7PK8plWSwXoGG6LJnls4C03A/AFn5i/9O7+z7ryCaJLRX33QWSmoSTJ2IiuW17WOlgJh2Mpn/yhacWm6uJbRy5ATaXsOXb5zMO2oLPVDtRrr1mWQb1yCAFf5wjcdnmsA1tS3vCn2Xak7aknn5AvDsr0SceuTZoGMRZXK89YpcRQVyo9+X2GVjmHJeR9eo4UZMb9QF58L6Lfgc/W/QzUbVAHT523zWlH2rFk5fkxlJoXLoHA3fjXLb8qQPO6OMhO+IesssxZWZHP7ilHZsVud1+5/fKCP1Jrzyz+5kXDb4LyRUqNC6ITXLL7yGKUUBSIWdanolP7HH0RwqhmUcGaRnthFoPGnMOZ5mdhDCehlA3lJFwKNE4c6eAa8dAGL8NFz+wQzAt8bjKjAfkoTynreOMN2yHgT9EI2VRr74v7r3I6BCHMzfvd1aQNrItBAoR5dnaYjM20SasWdAmNTGW2Ibkhu2NOxjEMYC6324nhf7CWdskcmNJDPvk+SwGnyd11NdP+A3XsgzKCAxnfeqF2VvBkFS0Le1HmzXsAE4bQg7iXGDrxpkHwK9NRrCX5zzUKfIoK+WOc3A/6VlkeYY6Wa8GM2fqAVLj12SYnSOnTug7+Pk0Bt9uJJl1M4mQ3CAvdn3nfozBObMy4gq5hR72Zjx+vhFGh/5yS9wxudmQG6PYYz98XfeMt13cPYglo+3eWZYIrSxBBVNxEFcmo1zxA6OIWVjAis15AMiNGVufx1DffPlz7qFWYKNu+bMsAznXMex1c5gGSEN0+SaHcSEVZcQLGjPyOIvf+Nzo8RtW3zQRLEBOujp/kfMVOe/WjJL7gtjoFMM70llMC9IBn9kD+AWHjUBu2+xywkS0CC1jHLFt/ZdHdtsf+uG4g8kHy5bjiA3UpAYktpZNt0D98ExzHdlJZ1mGcS4vZ32hHUNu2kScI5tCsDWAjLhiMyHAprRH06FHGBego8y8sEeQ8zY/Ydsp8XEvUdTiZjKm/Mi9B59RRn2/GeThzkRgng66qSOI78HPO7mAXzdiFalFYJPAgL3MziLPvOQouCfexbHSxOwvx0F+MVcov5Iy3y25iY4Lrvpm94ozriw48JSPD4htxxO6++14TPeovVcXksmVVkYkQ0ISrD0Tx8tVpuNUuAQ1rhNgWs9oqLzQDZJ707mD92wAo+KdRqgV2ABa/izLQI7B140lh2mkNlhA49QtDTgycbt++a3HgL/mjyvY1s/fZkMPEAbkZSdi47djCKfIvbadiGUgjJ46edkUeYmLxgW8L1zuO79z836nBWkEy5HlPdvOQQJLQIscMlqbSDJahJbRnLEFHrzbid0/nPnpuIP2gU2yZNkitIxmmaOjw87jUS+KXC/6DbfkGSVuOAPHnntZgDD1jqwQRthMtgttLctxDWtzLZJCBohXLog3rX711UHW22qUMYo7UmbtVZnI957vdRZQr/Qd/X6A5w5+ZJ3fomW21yKwSaAvoo9qEZtgCZR4CKyO29KPFU1uzNYgtN/6u3NKJ/b/veSMbpudTivExswNA4HgWL5hmk+FsVRZRisYTxAYW3GtTF7KImf2BWEtNrrFeCA1jLH1s1xxFuRGIJSPiwcYfN1YctiGasPMjbRgSGIQFX4AweFCYrgQIJD8jAflW6FhhyLi7EfYdhC4yJFRBsK4OaweYXSLG/fhfXrP4e07RZ6N9zsN0M+A3PgspDUrmwbt7f8ZQRYT0NpIklGTWsGfHdbtdtiHu+tvGb87DbvETluElrGA2GJGwBLYYnYtqA+ea7Y9/dZbDXSsS+qwbCoZ1k9EFx3jCeNqW9qG9mI4nBKPHD8y4oDpcLONEcb+0MevHvGudBBWh7TI1SuIskVUKTuk5syNcovW/Ys6blowm6MvYhdkIbeoa2Z1LQJrgc1t9HkQG4OgyLIMxiXrabGlHyua3Oi8djvqkkJu/BIEhFYQMzeWJ52lMbuCsNz9yEwN46GhO6qh4iU30vA+LVf0UhBngY05Q/m4eFA3EEeNyGlkNEhhY80wjTAf0hPmGhEcacDKS3jYYZAX+XsdO4Bwips7BPzI1bV8yAmbPlT7sgjL58wtx00D7kN85abbu5ee9skFy5Ez4TlDbBcdTEaWh1s++N7+mG6r50IgMbAK++PHAZrklbCA7P76X7onv+E93Se/8p9ddONxFwsPt3hPWo4UNbmBaYkNZHvJqOXYi+FwenmuR+KJw0WfHxpQhr04W8KGcAnjr20GXW2NsPro4Je4tENkuNkO0RHapdc2T2S53LQLyky7Q57v2TAuut4j7lLBwFlim5bc6NdA2T07TMf7NJYY6fuoe/J1V3c9W+MejUNvSz9WNLnx4faex1zSPfn153U/95KzS6cC0T3lHy8o72wgLmZmzNTyDG0c2H3EjA0ihNyoYAyjpTsN4izA0GsoHxcvMHTywo+r8dOQbJiCMA1TqI+u+fRpw5DNCxCm4SqnXOZrfvladgb4ua6Ic0BcgSxX144IPcslCBdZNeKfBpQ34+Dzri6ztiZpBXgP9/C9Tiq7KMGj9z21e8jzjitywMfej3r+yd2j9zml4DH7ri4wTBzvvMCDn3d894BdY7a3EwR3ZBAcu9COWEBmC/AcyPEe/JcXr+u+ftsdhdj41zp490Kn1SKzGjWx/fmhH2ouP40Dz9W6UbagroZhgI1mueSmPEQFhCWJklfYgnakH+LBViQr7AebIh4/uoQBYZDjzM+02h1+XMLGu8MSkIfyfC+43gdhyq+81svh5YDBOX0XH2rTN9VkRl2yjClpSYa4zPoesMsJJQ/adGRX9JjRDQb7gz0J9m8Sm6RIOv48DmlYuuRabNijX91SjhVNbms/cX0hMjeQQHL5oNIyqEArehx4H+GmEFzCs/wlgIw4C2gUNcbJMyirjYQweebGY4OlMebGnRtvDeNy2kiyoKPAH1HFn9OaRtfrmK/liLP3A/LLeZS4qgPwvpZLbh+97qbuT98WjXhIYjWeeNDp3V+87YLu78++sjvz0zcU4H/aWy4oNsSsn+Xu15zxyfIrEG98z9XdP553TQF+ZMTte/Jl3a7HfLT787dd2P3ua8/u/lvk+9i9V3cP2fWk7v47nVjenU0Cf3YEMGvjp47u+v5dPbGNI7d/vWjQAbXIrEYmtkc8f/Witi/U89nmOhqpp6F/rDusxwgWWY7PwD6wDYAf29BGlCnHxvLMSztWXx3CuEC7y/l7vZw2EymIYpdnwYwNV+R7wJ/DtNPWPS4FNZllsJOyX2kakhmu4I8h+yomoxAYW/x3P6X8ZqmrWRKbuyczIEmuxXInJLqlfNC9YsntG7euLx3QI59/Whmh//U7Lh7G3HPUFfv4/QZb9ye9d0DObjL0ADM5N5zMijhHkImrDrdQ57WgEQ0bPYi2uICQcLOOjRY/ujbuVmdAvPnkDsLGr+t1CDMCtoNADuLsy1bnwX3YOeR7y8tZ0yKy7/GiUy7rtnnWUeU97B13D943tEBcjZH47w/wne/dPQLljGS/c9f3y9/lo7MhDe9Lbr79roIbb799Iv7zjjtGkImNf/Ux7XKkgNR4z8YmKQlrFuTnq01mmfWnPZpGeSE26jLCGXEWqIddaHvYBTaDK3lpS9oPcaFSXGTogwgWGTr4zVOby7r4yV9ZrY+c8rmaYZkpb7m35Pe+8PuMiFe+VLRITfDXScryY/rr/gKSYhkzslgA7sUfbM73xeyMWZ2ExicAkFomOOLZZAfBbQkzuBVLbrxvY6R932ce2u1zwsdLR1MfuVKplDIbi4pneab1JyYEv/qAHphl23SNOBfATiL7x8HGY2NRjlECGrKggQIbfGmkaXMIG0vcDUmYTSTKaj2ALI+MafzA6yDXL9CT3ATlMZ1ls7w04HyPNupZyC2yHsHzT7isu/+uJxdyY4ma57ZUjObcxg9/EA9N/7Dj8Yham/hPEhv3Lx99Z7bt4U0ia8FZ2zRL8pNgvfT1M5Tz/A3rxz57vUXITXvWVrS1lq3gqoM8REVmGmAabTPH5byAeYWol6GjWxBtDHKzzenP5fd+cAlrl/l+l4pMZi2UmRtLjMO+KoNPlSKLqQG55Xd1zOwyuQEGSSyLs0S5JRwrltyYGvM7kmwa4Ge38gHx8WkAxMQsjVHMY/db25MbI+A8aqnBqIYpO1gKsbEjk+vuffzHuxev+WQx+hD3MIw7DWww5J1lNFYbLI3UhmoDD47qUcgq2EviUmYYtMhNsiLfDDsAOxRldjJ2HobVtbzFrToB73OWZUmeY8avvvLdhdjY7MESI89sqYgupPwbUNE9/5RzRvCei+NP4Zym9U8S4x/nAqSDUXOLwCYBW6fDYqTdur/FYL1kGVhQX0N/lpXwIsuSLvdhI9oONpPtCFsJpwB5tinilGGnyNDDBeYFlOU4EN6Sj9cmDn1kZQAZbY2y4hKm/JGk3JNx3pft0rBxS0WL0DLYU8BrE/uqjMXqnAG8fpYbeccmeQF+lSR/5A1+/RWDH8bYUt67rfh3bh7M3D587TfLh9zM5HgP5ygkv0OjEq14puesNTMqXs7GkRr+0sCqZxwW1zyqe/v513a3rr+H4GgEupNAY8rA4HH70WS0QBslwJ9BAxU22gxnZqbNcYazqz/OvrPJckE818txdj7Ekbb4qw6AcJEtkdxO+8SXuye8aN1gF2Pgp/Y/tbxPo06WgpHMG8DJ+nY6HLj30Fj7n8TGP84FGB50Po/c59SZliTRpbNiU0Au4yygTmqZyHWGLeKqr7zM2qIujScOEMaGITftWJvJdqxMu0HPeGRxFmhj6hLWrpEbRx6CuPypC64bS/q8KFu0N8uPC7x371PU8hxeCrSnpSKyWAC+v4X86Afp+5iFle91n/ymYi/q0Uei4y+clJnbS08rtjh/53YvH5Aa37nx/o3NJXzr5nsz8YQD1va7xSA2NgZAQszqmJZbscuFvzRwnx2ikynbxo/rLr/+5r5fpIHoTgINpEVswgacSSrLcqOnQYdT/DZm9PqGHCA+1ArQR4aeabI+8ejnzgEXmVAO6DgIm67oxj21Ogc7xRw3DpFVwW13/qDbesfjC6nhFv9wZyTPjXqZFX3mYxClDQ9lCDIubtzPD6POvh8j/HAX+3cPtUU+mdREHIySIapZiA1gf3RerfuaFnFOBM/fOkQfmzVc12MJhw4uem6rL+EwCOwCYGPaEmFc7UjbznHaJmFgW0CG37T5GsBrCGwSHVyAjmUVtkPugzAu94bfewT4c3ipaBHWLIgsFiCTFjbCDI1la35XktWBrOsgHWJ7+N6nFT2IkdkbK1qb+7FJyS0/6Enggf/Ynqd294kO4H7RsIUjDsAack7jriHj829LipbBTYO9j/lwMYpMrJncQG4040ADBDY8Gq0zIBtrbrTo0VBt3Kav9YFy05HGawHk5pX9kqbpjLNTIUy8+oDr6ALSFX/co88s+8tSFh3jMDwNGJzwk0W+ZyqbKYa7JfMfqZ0FrevMgjiXBcpA2Sf9fuQ4oH/0h65r5pvh4KmFPJASrfsch1yPcRbQ6ZM35KYce9Be3JSEH5k2ih9X23GWBZDnONPgYovannrKMmxXcfblsR1SXtwQ9/dgWBIjLKn5/HwOS0Wcy0Jtz4K2shU/8UUbGQ6CWnr2Y+y8/NvTPlFkuE/5p/cXl3zqNBkr/Vhx5Mb7MHYv5t1A+51waXnRnomNSmHtmHXpZx1yUXPHIyMQCA4XY6zjWwY3DZy5sQwKjrjo2u6WO9p/n8wG1IINNpzS2CSNkQYYHuNopAuWVobxuXETRsf8kOEHxgsbvHLzRgaIN6354ZpGmDcwHR1BPK7yzOwYyjNktB8zlvxMJ4FRZE1sIP/ayGINkR+nZVRLo2WwRIMHLFmTP+mJJ4yc5Rl2RrbKI+JcYFctOxsHrguxSVY1gY0Dtkc5W3lmfPHG9d2vvfqc/nu9Gg/b88QR3H+3E7vHv3D11CRHHRbkug1g2+TRy6IsIEyjtxvsSHsxrA1rc8ggpToOGSAvwtqktqstEmc8QD/EJa60jyGhU17LHmeB9wRKW033t6EQ50RQx75iaSHbdrZ10mAjkBskR3+FrWUdILn91mvf08vws0OT37vkfV/Wr7HSjxVHblQM0+cHRaPnZTkVzNQ6kxsVQgdlGipuXKdCp9WSg5bBTQM6Pcp5yRduLIDYaACR5dRAn4ZHg+sb27BB2yiJy41TOUA/w7QZcRZdXOIdMQPzi7O/DnJH1iCXx7zUUxZOfw9CnfzM7CTwM9qfltyoPwYvbHkfR27YQ6vxZjD44aNuPuYGvK+jI3/CgWu7//nqs7tfefkZBYSz/PffNP4vKce5ZHJjwFX+nM2Q1GYhNzodPk1o5Ss+eM03u5858PSiT95txOCswtY7HTv9DC4GKQXhj7PYNa51zbMo/qGtaC/YlIM0bEy70m6RaWO1Hnlon4bDKX5kpDctrmmR17oSMGUG3AdhoN/78Z614SxbKuIcAa9SXnv2Vd3vveG87ndee073sy9a2z3uBWsLObX+Ph92zUAM/f/xt2cWm0IG2bGhBGJzBufMLENy48ebn/yG95XrMItbtd3J3aP2OrlMKnjNU6cTK/1YUeRGY6CyePHJn2NgGZIHDMnhF68649OLdiJUCnlBggec8omSDx1cNpKWwS0G8qRzKTOFuIdxKOS1GKKR0eBs0PhtlLnRZx3D+HMYlzBpbch1PuaBG8GiE2cvF4RJS8dCOnTVB3QMxBsGOX/zqDsK/TQMO8XFwAyqJjXRk9tzj+qefvDgb1LVDVAww/+Vl5/dv6craHTuI9j2sOLS6FuzuDiXTG7Y4jbPOCTyn57cJCV+yZ17auUL1n3qhjJjY8NTKx8BkWV434vNWEVreZk6xrZ5Ds6KRmxiaCuG8SNTrk6cxcXOtLecPrvoEoe94qJL3DioQxlb5Vae4+Ps9fAbXgoYiLkLkpWqEBXQpzzm+asLIa36m8NGyOlP/vmCUh70sB36M+wSUoOg2DBSz7Toqx6464ndqqcc3P3Z2y8eiQP96xW+nYvZ2i//7Vn9x+IP3vnoMslYf/domoyVfqwocmPkQoX/TIxoITdejEJsvG9z5kal1ulawFCoHF+sgp/Y77RS4eq0DG8S6Dz/Oz/evMMxZTZRv2fL6AlsEqKh0ThpbLnh0vBA7hAAfhto7hzi7OORK8Of88jpCAP0uBYdQ84TF7k6wLgy6q3yAYRH5InQsp+GMQ259XVII6+ILZNbIbinHVKWqesGKBjNUvfYgWnqzn0cSEPaunxx9h2OqMMt0LlxX/fZ/vCpSA2gx1IiHZL31MqblYRpiA2M3GOQ2oP3XF3yn3bmNoncgPWt3WX70l5wsS3D6BCvzLTEGY88x+MnDrtUHxego15uVyU+ykh9Ce4b13vxHsJbkO9R/6zApiElloAfusfq/rdvQV5OFC1yg6j8/o04bAkZeWWbB0wE/uCfLij2W8dRDvKAzCA1liT546iQ3DPe/sFmmoyVfqwocmMUQwfFzA1C4+HnjSSE6zQCowGGyYvKeeIBp/UfK0J0zOLUaRnfOGD4zA7MB/cvDonRUNzHrLDx08Di7BuejQ7X0WpuzAC/DZk4gaw02AQbtfGms5ETH2eRey11I9lIvoTRx++1db0WuuZR0qTnZ6eHf9plyUJs0fhaxAZGyO3Zh5e6nbS5BFJhOXJWcgMsUdL55PLF2Xc4og63UP7CO53TcCbWIp4aDO5++3Vnj9xPK2+WIqchNpDvj1kq95jvb1HEAKUmNxBnsXNcwtoGNuYyY7YrbBAd7CbbIX50tCfSYHPamzLtDn3k5q2OspxniErZsEnatqD+sFVBPPdS7mMoq0lwFjB4L4QSzxzi4ufWnL1hnyxFSmoSG8RFPGBFCqIznplZtolZwETBX0CB3CA12pwrXK00GSv9WHEzt1M++oUyeoTImLXx7g1jmDRjKyMeZmgB/HW8pEQefioAWsY3Dhg0szV2ZZIXhLnLkZeMkBboiWsK0OiinRXYUHEBjdjZFHoAv+SkTH3D4S1hdG346hunTHLCD3IHgC5+8yG9eRDvddU3rW7Rj44gHl15fnYM5XlGpzgNuTmybBEbyOQG0CVNqyEKZnDssGRZMnfui4G86Yhy+eKcmdzowHiPV+x1I5BbmbVNmefI/cXM7Tded+7I/S2GUofU5bBucx3HWVzsHJvI9gIMYye42JDEl+0I1/S42KzhcIrfNDnfOPt44wC62itlBJRZUsvtU8IrbTXi1C/3PrzPWVFWD2IgwTOHnCCSEPegHMzoJLh6QA8RlpnbcNkScuP9Wr2pZBzQU5f3e7xvg9xcmmSCUKcZh5V+rLgNJRAcBEWlQ3KF3KJh42/pl3cXQTYZLYMh3/pD7pbxTQLvIiDI345OoKxvxz2MQ24k42DDs6Hmxved9XcV14ZqY7WREs4NFRCPvvka9hoR7PMyH3RNgxy/o2PyRidfhzzIF12AjDhkypGVfOMefXbZ31rOqsEIskVoGQvILWZvfxTEMamB8g6h6M5IbgACYHZoGeNcgMXI7f+88dyu/3txU5IbxPo3h34gnnzYVrqXnG+YZr+BZFr09xX5PzMGbvn5TwPq0HIQpsO300cWZ6n3bKP4HVQRjnPEZgjHWWS62KL2SNo8KNMlHdCWcUlrPOGsU+KHZba82S3lHn6rByQ34gD1rH8W0LeVwQ3vc+O5twbj9FWi9eMTrmhAgGIxUmJQT98FcQL6U9LQj5GX5Mbgq5W+hZV+rDhyE1QsJMV7twdte1Q/gsGo+OIeOR0Zy44uEwKWe6hERki/8eqzi07rGzfQMr7FgJFgFDfdtn4BoU0LGg7IDZqGSIOD1G6/486RBhln30ht2MSZ3kaunzTO+swD1zTKiCc/ZCEq8Bq4hE1jp4KftOZnuQwTh07JM55X7vAMj1vOyqDxPTAaYYvUxAJyC8LCpfG3GqOgQ2F5ErLK5LUY6ASwLcsY5wKMIzfkdGrbxIw/k1uLdDLQgRDZNcyR76O+hvp1HuNQ7imeAfeEPefnPw2YAZSBSlzbzh+Xe4UQIAegzWIb2qQ2QhhbzfaqHQn0tD3i0Kvt0Tjz1I7ztQVx5XpRxihyX27a5Po77+rLroz7wUWP+y42HO5SQN4QCDYIxtnLJNA3UmfYY0H0eZM2UzFDY9clpOZyJoRIHpSBV0ESHJ8AsImLX77hHRw64/Je6ceKJTdAg+bHQ39s+3vetzEt7yt1uBRZSG3oMrLmJSrEpg4dJTvM6vxbxjcLIosmaU2LaIulsdmYCdswcwOPc6TR6pqWuByP30ZtPuqZHhlARlycBeqYP+GMXC70vSZy841zMOqOZ0RHkDuD4p+C3MryHbOcqMMWsYGa3ACzN7b600BbDVLQaHmpPwvBocsnAnQGlDHOBZjUWRVCw2aH5NYinBp0XNgzZebI92C+X7tlfbfXMR9ppp+Eck/xfBkI1s9/GrAsaTkI62LbdOJC+8BetMNsm/i1LeONA4TNg7B62lt4R3SRm2fOGz1AuBBjqqtyP2GblNfyK8s2nP3LAfYNlkJugLSQFjMvwIAbokKebQQQX3ZN2m/SpoLgWJJ00wg2xsyNuCe96qyC+//VEYXgaEutZc+Vfqw4coO8qCAqisor792qmRtkVb53S+TG+zCXLqloZmxUFHF848FoJ18HtIyuBZYjMQJmkrjkjzyyWBa5RVssDZIGaOMjbGME+G2Qkg5g5JkbLHkgN2wDRoYfoEM6ZBHsdb2W1yO+NP5hOuTomwbXuDwyzvdREM+o7gyKfwpyAzzrx71g/OytRW6CwU3dGDMYjfKOCRupSWwS0IfgKF+cC9DqrNzcVGZtM5IbZaQtUGaOfA/mf/UNN0e5pttEkgFZm3/97KcB5EY9UqfYs3KeATMf3EJwlX0Txm6yDGhT2J9pDGvL2abVIa35ZLl+gQ4ItYFulE/79B6U6SKr45XlZzEL6N/YVMQKA6RCOMQzI9sCBMb3bvST9a5J8mcjC+/quCaQ7CAvCZH+k40lpU0MN5kwk+NdM99V5jzBSj9WHLnR0Kgglx79aFtyE4QhLoktxwE+aORXr3k/VseJluG1QJkog+i/qYp7GAcawGKggdkI8dtAc4O0EzCMLmHkNFLTZB3zQiaQATsH06CX09shoGO6rBNOCecOxnTITFf04tnZMfgsi39KcgO+E5iF3FyenLRUAxg8MXtrkdg4QAh87J03JmXQ+dUyylFsZ0hq05IbS4x2PIAjl9/8j//o9UW3lccksPWf+2g992lAHVKOPhxloZTUMaRGuNh62APAboD2kmXYl/aDjWpXOZztjTTEKSc9snwtZPi1TXX7+Cgn9VUIeIia1HC9tzrsfc+K8stJ2HTMnnAhjxDPjGwLEJv5seMyx7UAwRUii9kaBKcc0kUuuQH62myHYqUfK4rcmF0xwvi5A08v37lBbMCPuWt9KqhFbNOiZXgtFHIbzhABBkSFRxYzE1oGDcxGmBtnboQ0SuLw2yhBbtQCmWRInGHyMB8bec47zv7aAFm+Fsgy88nXN635h6g8OzoE4LMs/hnIjRnPNN+5jcMkguvzj/psEdk4QHCQYutlf4vcLrom7CeR2izklsvPkctP3vz026yzNvLlZ7+4dzr0+plPi1KHUZfas/WMn5kbfp4HdqI9ayPaHvYktB3tTH3DQLsmLS7QFolXn3jzxyXetqBunKWsmdy4hyh2AWHuw3vDlfzyc5gVhdzChnjvhe1RDyGeGdkWeIUDwZEfv26S48bB93YsQWY5/SqkJ7kRT5nrD7pX+rGiyM0/1wC5OWNjmysG5bcg4CdfeHr5BWsqNKefBeTpN3AsYWFgLUME05JbBg1hMdgAaYy5oeLaSPHbOIFp1DcNcSw53nLb7UUWKiN66NCgzR+gb55cC3/dMahrvOlxAXL0TIdMguXZ0RHkzqD4ZyA3QD1P+vmtcWAG1xpxCvLuX6Y3SGwcJLdIvigKee6QNpEMwRJli3iA5FOXnSOHP/fNb5fPUWadtak/7S+RjANlsB7repYEiq0PbUQ70Ya0N+EMDTuKs7czZaTXBs0TufkQBjlPwugA80ef/KOYpZwSWy6z94C8tNXhveGSLs7+XmeFK0HOtLDBEM+MbAuApUP60NYSIq9UINM8q0Pmr5KwJOl7tUJuUa6a3Or3biv9WFHkRmN+8SmXll8ogdx4oDmeiss/xVVv+Z8WGC15F6IavrdjFNMyREC5fuHFZwx0o9L58xCQcGS1LNgAbbDCxqpcl4ZpGhu+uuGUMLstacQ2ZHUIq0NYGWGR8/I65mUade0k0FGOa57hLc+OzsCOwfCs5MbzX+yHk1uA3J540OllgJQbpSBvOvj8Ye0s4KNnyhbZjIXkOSu54dbl5cjhvzv76gVpFwN588kAv2RSP+dZ4cwNP/UqORCWGHCxC+wBW9EmM7QlbAc/ugI5MtLG2dsawG9Yu0NXmyU9aXABcYJ0kJbkJYHh+r7Qe8gEJ/JzmBXkx3sxkX8ScBLyAB9kW8ggP2ZvzOQAv1ACqUGmgDiIioEXvyEJgT31n97XkxfkyD4FZ28sW9LX1qS50o8VQW4YEaMZOhnfs+HmiqQTcRrtrI6XsVlnWmAkvMvpyS3yYq25ZYiADpAdQ6ThPQ0VTXkiq1GyGjaSaVEa2JAc9NMIdXMjprFmHUDDNW0L6qJHg1YfuUDODM780QHEEbbDMB9coQ5AhzD6uMTz7OrOoPhnJDeefyEJRrppBtcitBrULY04N0qR86f+WwQ2CeSNXUQWYyFxTktukA9/uLRVZg79xJdfI9n28GY+40D+T3nTBaVs+RkvBZSDegxvqVfaMXZNHK6kgH1gD7jaGdC+tS9tCL9QT52cDj8y0hAPzBsQNi3QXpVLYJSXe+AJ4/dzgFL2IcF5X96b/uUgzqngN2qsFgH6SuTaQga/0ON7aj/01vWbOOLIB0LzI242jrjsSP5P++f39+/dmLnNyW3Gw8qTuHiIfltRdxo8cOJdHsRldNGagi8GRiiM5n/qhad1D9nthJIvnUXLABdDFK007PCWsIaPW8sJl849wshpaDQ4G2erQRrOjRnYCZgHnQa6xmVdkK9lGDdfB6iHP6L765o2zj4dcq6biRe51+BevW/u2fvPI/5ZQIOkvlZtH/Uf2Doa3mJYFQ10t6Mu6b7wrW/3tiTywQ5YO/+aEMYBgqMTIO24A7vFpmtiBHkWmkGeLbvNYDmJTqpVrnGACCFEVzxaz3gWWJ85nAnOeN5NQhiZTNDRXrQloF970/6Q2y5wM0mqG97eDxi0Aa8Rol6HMGWAuCQvyy+heV/EWW50StkDxi8VcU4FbKiQ1bYxEH/aIWWAjbxlF8zayqwr9P1bk/5prhEQH21DcoPEvGfaGfHIiMN+6Y/zMwEr/djk5IbRQCw8wAf89WB5ELmA+AAdCKNgdkD63ovRfKuCpwVGwPoyL+1zpc2COEfCGH/21+HcKDJx0Oji7GdNyohHT11k6NS6NmD9plFWdwJAuajz4Bq5jLhx9tfFNQ1y9HHNz3vO9w+WSm6gDHC2jYY+A7nx19t3OvyDI3YF8sG2dmywRQrjAEFhh6wgTDqwX97TLUZuzEohLX6CrmWvgpF8IbcZiFi84exPlwEZ9996vrPCOs1hiYIw15Icsu3j1z6z7QHkkJfx2BTA5jJy+jrONOYZoj5s3lGMvjzAstfkJuLcYM8NxDkVCrkNB3QQHPbG6lPLNgD29vj9Vhdiu/8uJ3aP3W9tsRfxhAPWdo/ae3VPXpJcTW7KnS3OyW2Gg+dDQ+XDa36zkdmY36oZ94svXlcetPKLPvPVsgkEWXnv1ajcaZEraimwYWfUOjZoTCGHgQ0wN0hcG6SNHD9xcRZX8sCfdXFt6DTmnC8wb3SBuuaFS7x6yLw+cV7DPOMsYUfRyCLqHjeeB/frs9G/HHKDgLbZPkawG5jcPMh/WtIo5Bakxd9/Y6A17iifAkxJbrsfc2lJ07JXwEoF7x/LEu0M5GZ7iZrZoOQmGVjH1rNAB5nvsXJabQxb0W4AtiQBKTNee1VHe6yBbs4ngiPp8ecyS2gZ2itljXODPTMR5wgoQy0DI+QW9chkAHnLPjIYCLL0SPosh/z4/ABbl+AgMTcY7XF0kNuzjygyBv/sT6iJDaz0Y5OSG5XJg6cCCmEFuTlzI+6nDhj8eRkqlNEDckYsEiGV/eLTBr/e0ALrz1RMKw7UlTUrNHwR5wiIt4ETNo2gYdLwciONc9Dwhg1RHYkl6wEbq6766po2540eUI4e8uy3A0An6wN1yA+/HQg6Xiei+/vN9w949rO8c6vhbq4WmdWA3HT5sD+S92gdZUYUebcIooYkxe8EYreTDjqUoptIriY27uvKG24r+rWtipVEbnEW1zoW2rfxAHIDyO3EsR3sBVvKwI6I0wb1Y1foG6/9Igfoilo3REWfOGTFPywjwJ/JzDLbqaODm+OXizhHMI7cWLVaCrlhK+Ne2/BqhjK87qwrSp6QHH0lsucf/7Hu/s89onvKG94zltjASj9WBLmV0fgzBr8J6S+JXHn9v9/zp2ri4TtzI43v3BjB896sXp6E1FiXpqNi9DLuD+5RQaxRQ5Do/cXb3z/TuzfKYmPV6Gkg4fSNBRnhnI64km7Y8EBupPgzWdhIDYdTYFrkLVlOF94+b3UgJcOmVxe5boiLnzjTomv+uMIw8T4D7xd/eSYxa5vmrwKMQ79skkhsHDK5PWrfNd2xH76u1AdoHZAQjZr8WySR0ZNbENaj9lld7GjSwXISehLcCLk97ZCyEQC75KhtFWCrv/aq98xMbuhBbAwMoyY3GLnV9QtoC7YH4pyx8c5NP24k7+2ptiHtR7mDp/D2IF5yA+aVQbyu+YykxRaH90K56MRxvacWudX+5SDOEXDtWkZ/WDaIJHKjvyOuZSOzgDJwf9gGszf6S/pd2pd/rNRfY2phpR+bfFnSF6CAZUhkNEJIJpMbD5o4QOWWmd62/9pts9MJheDoWFjexEX34XvG7C46DHTGjV6oIPTLJoW4BmQJyY0bqdSgAYRTGgMuQBZOic/Gitw0+nMDpHHamHGV23jVVUeZ6UTOTzfO0qhNA3J680UPua6IYHHRyfnqZrl5x9nfL24Gz345Mzdn+yw31mQ2DpIc3zRGFgXjDkioRRI1JLdCcDF7w3YmHbfcfmdZwizEXJEbgzeIlWfDke0U0DYGGwXeOSDDWcgt2gEzQu+bK+C2nu1SEGfvx+apc2W0pWzzuBAdLjaD7WWbBXGO2BykBLJ9AfSwM1zTGpfz0+9gTr9EBvAbtrySW5YB78N7XiriHEHuLwTkhj1iMwVBcG4Iqm1kVlgObAtyYynyRSd/rHvKP72/e9hea8pgn7aWy5yx0o9NTm6ARq0fUMn9d2hRoXxs7VRcUOGFwKhwNhhY+cMwhAfJMQqpPz7MlesyFCQJueHOQm642fj162ZdoYxGZsMGNTFJOjZY/BnohDMSNg3+0oDDH0n7Bm98nD2QmxfwWshwCZPOtMJ0gDj14xx0OtVz8P6X885N0Ogev/+aBSQ2DpCbYPaGjY07yJsdi9hFiyzECLkN371ht5OOPHuT2LiOxAY4sp0Cdqs9dI+Yse04+N4PcmuVqQXuxYEj4Aq4rec6K6xTQX1b5zxjCEJZqJc0zuC0IW1L+8LesKFs88T5yYq2ho0B7VMZafGbj3mpIygDbR3XMmcYJ+r4+lnMijhHwDVaMuwRogEM4JlNEcegnR84gOwANoLuuP6uBvmQ7uXrrujfvTFAYyWNv8iNn1kjeuTNN3n5r0es9GNFkNs48HB5v0aH0Yqno3j0PqcVInvATseUUQ0E9cQDzyhk2KrQDCqIaxRCHE77yWtacsvIRp8bc24EyvETZ+Ol8dEo68bsaJX4OIsOcX3jDD9x+NG18duoJTd1yBN4DfM0Dr1xuuSddQByruX1APnhIvO5eP8+nw1BbtTRiZde38/IFkMmN2Z8n/ryzcUGxx005hZRZGRyk+BwWXKddLD8js1Jbvw4NB2IdsmR7ZTOClvf5i/e2ZMbaJWpBlv/o1Z6QstoPddZEGdv79ZzDuNmgjANMpDtRVsiLJBpc8Th1+4BcoBM+2yljbMPA+3V8gHLTDkhX0DY+wCUHeRnsBzUZFaHM+KqC+oRm3nY7jHgGW7tx4WYIKw8WAKskCETvLopAzhWt2LGBrG5NEmfyMwNwnvGP7+ve8may8vmEuJoF5Z/pR8rmtwWgxVHZVGpZXkxZm3TEBuggsr7vuHuO9/fWXmLQYM3bGNAhqsMF8O1kYDSiIaNLZOYjdcGi0tjtOGrrwzd2iUfQFrzJa0ydSNY8iMMWgQpLCt+8xTmpZxwST/sGHgewPuG3JazLCkgqGnJDWSCu/S6G4sNjjtuv/N75V3EpKW/Frnxs1yknXQUctv2sEJQzMbqkTZHDrP6ALGhPy25Ue6ffOGp/cCQXHEzWs90FsRZ6hO/tm+d57C2j576RTa0E+wGm8O+CMdZ7CjberZrbNS2YTqgbaunXZseqIMLqXkv2ikucsktl51470/ZckDe4UyFFrmxC9dv2TIgOT4B8HVMvxIR8hHdaAcQWAbExqyNOAgO2+MHDvA/fv91ZSbnrsqVfqwIcuPh8xBZfvyJ/U4r37Lh0rmo00LuABiJMDrh77bZWTCyYekScI2sD6ggKoo4RjtM8bPxLYY4R4wdP/LsihxPuhIfDdDGbaO2IeICdGyY6tOQlYncwHNepREHCEfyPj2dAukykaGX88gdh0BPfUAe6OMn3nDRGd4795qfx4aYuYE4y8fZ949R5TQkl8mNMHU+6cAuJi1N1uQm+LV9BlyTDt6fQVBsyd4o5Bbl5jMaOkSeE7niZrSe6SyIs88nd/aljkMeZ4G2j+tMiQ+7sRPsBdvBXoA2CPBrn3EWPVztHbkucdkWkRk2L4G85BmFpJy1jeLmMrfiuS9lS0WcU4N6BHiVYTfYcCG0qG9JSxKT3MpgqiI2wqRhqZOy0HfSF5aVrOFMDpJz1sYP2TNzY3cltk2alX5scnLjQbGp46f2G27vH4L3bRAcD5u1Xis0I3cANahYZmFl08lwVyWj2KyTDc1Gl2WLIYrQG39uAMjCKW4GOsjRwW8jtvHR4EScpZEKdOwIcIk3jTrI1YmzxNmYkQEbOHFe22vm/EiPSzhf13hBGvLAb37m6fOon08htg1EbiAT1mJQl6VJGj2bPMYdLC9iM/yIcWsG1yI2wAyOdyO85xp30Jlg163NThz6KSOzOwltGnKjrGy4YXBHh8gzIlefl2g901kQZ6lXbJtZCO0HP3JnaPgBfnVtC9pOtlvCyAnrIhfaKQhvrwMgQgdt2imuMEx8uc6wvWublo3yujTpPRGvrvrLRZxTg3oEeJVhHxAcdsRA7MlveN9gmTGIi/p30CS5laXLIVjmZjAvUQlWsiQ3ZmvM+JzVMXPj/Rx2je5KPzYpudEAqBTWddn9yOgAUstwdEEl8Dwz7ABaoFOC0MpGkQCVzkww6+RKXSo0dI1ehKggxxGOs7g0GBqmjRnQ+GyA4fRyGqM/iIxfXTsG/MA4XPLATzqWcJCRp3qA9OZhGnTC6TsOkOWm9zrmgVx9wrjes/ffP7PhH7k0vFTEWXDYxdeVbf7TEJzkBli2Ywl7sUPCqEmkRWziYXueWDqPSUe2xQzj6IDKD0ZvN1jCrFGXR2DrzPZ8PoBccxi0nukssE5px0ByQG6YeK9NWDlh7AebxlZwtSFcbE67ysj2hT1q57gg26bIacjDvNm1aZkgMQlNmSCc7XdDIc4FoJ9jVs/gKAMZZQmVXre2G0gOPfo5/MrpY5HxeRTLirgMruryvHrd5YXQIDaXLF2ipG92JjcntykOKotKYFej2/5b5OZX9jzPjFyx9QiY6brv4Nw9OWnmtlTEWQy/brgg6+gK9GyMNrg4e384JWwDhaBokMhsqMjRNQ1y4wjjQm7f/s76IkcP2NjREebnddWj0yEeuem9hvl4D5YVEJefhZ1D6SiC3DbE84+zx++/8dypyA30BBe2xUgV2xp3UFaIojV7a5GaIG/S0VmNO7ItZhgHgbErsiY1kcsiKCObSOrdxeSaw6D1TGdBJjfcOAd2PUQmBsOCsPaj/WF3+LElwtheti9kQPtClm3XcO3XXvErK+mjXJCZ5bGMeUanHHiPuIZnwSe/dEt38oeu79Z89IburMtuGKkLAGlgM2W16S/e2QNbYk9A+cmtVI+13cwKy8X9Yi95Y4l+/mqAm0tY5p7P3KY8MCTIjVGFf1utJrdJuyWpIN61uR02VxwjE0YpkBogvv6Y28pdKuIssEG4hIGMeMI0EMP4BXp1o7Oh2uBpoMblBpz11cNFPgnmXRp2pIkkfYdCRyKRoUs8fjsXYLlwiTevrC+Q1x0C982zYklyQz5/8PK1l888eytkEB3H4N3U5KMs11S/wN8itQzyZuA27si2mMHBx7R+rN0iNpDLIrgmv02Zn804tJ7pLLA+cSO7IqPOAXJnQv7KPno5LfamLWYbirO3OYDMOKAs62CL2qP64ZS4bO/qIqMcvPujvLlslJXyC8PExVn0uSf1p8VfH3Jxt9XTDx3gb45c8MduL/vSzT2RldWm4Q5uwxuL3NiYAnlJbJDZE/YffArAr5VAuEwwcCFBPwdY6ceKIDem0jw8OhBIDlKT6HjwVmYNKqi8VwuDYJYGodUVOAlW7nJhY86NBJcw/jgL1CcOfRqZDZaGRwOk0dn4bLA2SAmIMLrGo6uMvHIeyOIcaejqAq+LDJDetFzLawh1ddU1vXkA7hN47z6TDbVbMs4ecYXu+cd+ZOoPu3tyi5kOjXixo5DbDDM3gF3SIYw7WjYJSifHnykJApuV3MC9RW6lLlNeuNq28cClPtOph91oO9kNpyDHS4TAVQx1seHe5oZhXMLoZBvVJY6yUFbtEpRyDckMv3GGI+tS/nw/0+DrN9/Z/cXBF3SrnhX1GsT2iD3WtsktkVkmNzbFbSxyo9/k420Ijhkbk41cdkA/DebfuU15YDAsCUFskBkPlWfGwwbsfCQMmHmhwx8NVcaST5nGRyeCMfBujilzqyJbyJW3FFB+gD/O4tIAkGH8WQZMR+P5zh3ry3JhHr3SKG14hAFhGyeu5JYbbp0HLvHqEiaeMPp94x7qeg2vqx7+OHsd88rlQw+Qv+Uxb+7VDiM/hw25W1LE1bozP31D99uvm255UnITg+/BJh/MwvLsrUVoLfBSvnW0bJIOpBDpkNRmITfIl1UOnkV+NuPQeqazIM9oqGdIDJlyXOobv3WvPn5sBJvSdrQf7Qn7wsWeRIh6P3HhlDx8r0zYeMK45ON1lJVrDMtX35Pv4lyyBNpxqBQ972NafPart3RPeeMFhdjAQ3ddPX7mFmDAxTdlEBp94b/fPvjJsjh7/Zb9TANWu3Bz+dgpyfXqDSYA+6VvphxZvtKPTU5uNEYa8/3/6ogF7wkEhMX0mEpn2oy+G0x4CYp8q+2P7u670/G9fBrkiloKcgOyESmj8eQ4G61w9ElcnH0aiYpwJqPcyCPYgzDxgLD55LyUm4/wuvjR16VspLFswDzRJ0y8Yfw5X8sJ0LGMyrymHR4dR+4sCAvCcfa6AJluDd4JYA91x99CTRYMlLC1yKaJQm7Y2lC/9cdRa/DXwHEZGXOPrXwz1lw2+DC9Roug62sxSPR9yDSwLqi/8I6E8WeZcuOsa+uSeiYOP3ZXp1entqGcf+tayvGThrD5aN/mZXz+a/ToWU79QhuKs9RNnmFqk+q07BH/LGCDEKQGmMXV9kCY7y9B6+8PLhf0jfSdgoFULh/EnsPM0p78unO6+8cA7RlRXsgv66z0Y5OSGw+b92LswqHTYHbGM6vBCIddOugwbWY3mBtMyMPZG2CZcppOBOSKXApoUBm5cdJ4bJQ5zgami5xGiWujMx36pkOOixzU6QwTpz7X8DrIjUfXfI03b+TI0MWPDJhf1jM+zl4PkBbXNOqSVhfwDOMcPMvoLPAbziBOZFnWEb09VEuILWRiE5OWwekMIBBnUzW5jAME9/C9ToqnNNjO3cobvO8z3+x+87WDmedixAZy/qDurBYD9ZbrBVBv4YzIkSnHbcVpY8aH0+sL0mR7y/kA9A3jB8aRnjAuOoB8cl7GaXNZzzAu4aITZKUd0WfQcWdyy3bXQn6W0+DKr97eHX/Rdd3RF13fXXLNNxfUP7M0fhoOXHDVN/sfkZ8V9JdMGugz6Q/Nhz6z9JPbHl5cB3OtstKO/uKQi4seOyUftmcQcoQhuPk7t0WO73x3sATDUiKzMdZ7mZ3xUHluNVyuYbpOB5P1MApkfGSYK3Mx1BU6K2gouVHZaGxwNrI4+4apjqPK3OAEMkEa0hpnfsiBepYFP3qWw/zQjbMnoqyLHxn54rfcyNQ1zzwaBsTHOZKnLjNAl4tyHLrhjHQQ+uuOA3/uhFo6NbANGmWL0DJqYoO0WrtyM8qussh7VnLDJe2kgddfH/rByPuwntQmERvIefsx7iyo6wR/rqtcv4A6I26kDodutmVkIOdHGHecDaGHm+Mi2KfLeZgv8bimUQdZeHt9rwGQE48+NhSPoSz14YfcqB/ghhHD6vrssn+piHME/OLOfXc5vuDpB19UZnC1zjTA/uknsdMf3+fUfvs+3z2WdhEDP1xWIpDlMtHPQoysNKzanmX1EwcIgnvwbif2BMezWunHJiM31niZqVEJkBvE5JIjD9yKqsHOyJYcUCn1OvYk5EpdCmwwIDc6G5mNKjcoGzRQz7TK0aPB5nhkNuA4i9w06pk2XyeXh3ThjKRVx3h0czpBHDCMfnbzdXDNGyiv85Sg4hw8zwiLLPN5A4nO+Bawn0dGo24RWkaL3CbN3AA2+8A9Vs9EboIOZRx5Xn3Dzd0f/tP53apn/8ts5Pbsw0vbqZeUpoH1EFXT21Spl3CtL1ziQF9vIYuz+LE1wrUd1TL0kRMWkhLx6OISJs7r4Bo2nXZlnsQR1vbRIU5dZOigizzEgzwrW9L2AM8zxEUHcvOZEVcPtpaKOEcAuW21w9GF3J51yEUlXOtMgzJDi9nZ/bDzIZHxB0jZwwDZKceW6zL94kvOLCtjzNSe8sbzCqEJSO7xL1xbyBICXenHJiM3Xk7ykpJt2Mza+Pqdn3lh2RHCo5I2NuqKnRmRBw3FxpVBg8K1Qdk4sz6Nu9YnTl0bYo7PDVYXffMtjXYYJi7HhzMSD3IaXNMAr4WLrumRAWW4tS4gT2T5euqX60WnYUcBHCXnzqPuROoOaRzonMb9soioye0xL1g7cWAlIECIsCavxcAsa9yy+a+/6uyZiA2YJwPC1jNYDLmOrDvCGdZbjYgq+tgwrvWv7Uhc2pH55WuJOPt8mOmrQ1rcXB6BbiTr7SnrEwboZT/IeWtrPIs4R1zisDPiW3obAnGOgPdszNj2OeHj3aEXXLvk926QG+QFiQHIjSVI4rgX+lcJqi7Tk159TtGHxJ528MVldgfJCd69+RNcK/3YJOTGh7HnfuarZSkRYgO8dyu/YUajDkB6VMbGRF2xs8JGlhupsDHFWVwaL8BPvI2MdDa2DHRzQxSm8Tqmz2UxPX6vh4secvMx73wtoL5xuOZjnGGugQ6dEq5xlisvS6IfZ98p+RzjHKmPHLaDySSHP4dbgNwgsGnJjW/KaLCRdFH47qImr2nBsk7cXZ/ff3vxGUFS6ePyIVqElsGsjc6ndf/TgPoAuT4Nt+Th7eXairaU44B1LoxDnu1BkI/+iCpAL4dN73VNE2eRa4PqWzbS5fJ6fYmrtiXCzoTxo5dtUFlOsxTEuQC8YgGUqxU/DZy5SXCZ3ACvbVjhapXpl18e5LbtYWWm9tQ3XVA+K3GpErBy5lLmSj822cyNB1WWJHdcU2ZwjIbLb6NFRUhwjEjtcHAZbUCIvF/I79Xwkxa0Rt4YCu/zuB4jZ+V1xc6MyIPGBeqGVxMGsFHhpyHiNz1xGerH2cfboI3zOo52sy7IZTAd17Tc6pmfusZZVvIxvboZyOr8AXHIkQHCcfZ+niEdRe40cOPs/VmnlukfBxo5W/zHEVwmN36/MZJMBewJgoKomDnNikfve2pJT15lA8mzIbMlkFu0leWQm/VFnQjr1LB1l8N1feOG06cFyAB+06urHFmW12HsTj1k5hNOcdFRjp5lIl6Z1zeOPM2HenS7f21fyDKpZXKLs9dbDuLcKKDs9K/0eRCcf6qm1muViTbDDM0dkm5SguyFuiv92GTkBplBVry4zLt5IDR/+oXGi4w41ofLR4ZD8iMtlciLUsgOOYDgTAPQ4Rp8JkA8BEeFEUcFQazkBXjhb8VNAxsODQXkBpUbFSAcwSLLDbdvaCmNQE+5/hD3DVu5fuRZlq9lGcwbXf11Wvy44ZR40pqHacMp+vX1kJPOPEyT9ZDh8gxzB5I7F+X44+zj1cm6k0DDpt7HkRvLiyxHjvsMZRKK3TXIa1FEeSjX3sd/PPxHhgxim43c2HiCrdv5LAV1PRIGuY4N5zqk/gQ62AZ6xJkWXXWQoQe8FjL0zROQTp1sb+oSNo15ZBBPOvXJL8cJ0pa4sC87bPz0FYAwG0qyzWWUZzd0l4M4Z8KHr/1m9/dnX9kdeMrHyzedLZ0MJgTsRofomA3W8ZSB/hPbtw/k3t19/msvP7OkH7ejcqUfm3RDCQ+/3gBCReTlSTsdZlw88PIpQIDOgQdvRfCdG8CfZ2dU6qptj+jjAZ2SeT5wt5MH+QZmfXdhw7QBxdk3QvzIaGzoETbeBmq6nAY/MzHCNEBc49FFRlrCNlLS4QdcD31k5pfT48c1D8L4lSsjrWFBGHBNXK9VX9v8zAtdw/l5ZAKjs7CDwc0dSZx9WJnuYqDBsrmkNXuT3Kj3UJ0ZDKJecPxHyjb/Vc9+R+Dw6YHNPe3QBYQ2FcL+f/VvzygDxNY9TwvqhXqgPnK9AmXKrVPqz3pFBqxX9EJ9xHZMD/BrD8S54qDca3ht/OSb40nn9UPch4U2CPI1s1xd7YxnIclJbkD71C7VjcuW+s/PcimIc2pw/T960/llw8mqpx9a/MhautOCMtDfsnlkYI+HlJUvJhJPOPDMMnvjHRwTAPrquvwr/dhk5MbB86nBKCH/2XOWXdjlc/ZnvlHey7HxBEBqzMIyaYE8MwMYQNaD6OzMcjrk6NUVOBGRB7CRR1sqjebWb3+nb6ilEYUScejiNy53FDRE099+x52l4Zu3aXABOqQFyEmL3OshIy/kyLyeOjkvYJg04fT6IofrtCLOEsf1Bfm18gxvkTWfaSCTWN2xxDmiOw38AYAWubEcCUGFWhPTdCDY60P2OrV74kGnz4QnHLRuSXj8/mu6L9/47ea9zgLqjbrI9UgYWE+CuFx/cfZy47Q95eiYZzh9evWxX+KE8eRjujo/8sGvHF3zVE8XXUBY/Tj7sARWnkW42hhuOMVFh6VLZcb7DJeDOKcGdsguykJuzzmi/BJPXqFiEE/fyUa9nK4F8kKXCQZ/T5D3a5DZY/cZ/EV4ygbB8e6NHZJ8yM1Eoia4lX6sOHIDLFMy4mYGB4mN28GGHPLLJDVuK3dZ7gwCy+T20D3XjJDbrDM3GhCNi8ZigyFsI7dhAXUF5AX4NQXCNkQavORmfjRewviR2XBxDXsdgawVT1hZBIvMMmUZfmT4leW06og4S5wdlLqGvQZ+9eMRludIZ5E7DPx0NsZnIM8d0TQYR27I2CIdKpsEcS4LrXudCZGJdQmor+w3Dpcw9ZcHZKQH6hNn/SIDud5NK7B90gHy8Zogkvb54pIeP+nIBxgmDh3S5HTCawPLVuKGg6Z4FP0zwbYgNPzE+06OMHran/rLQZxTgzL89AFrBgT3zMO6PY+5ZCSeAdaDdjup7EnI+xFaYFMInwRAZvlX/jMgN7f/sy8CguPXoEir/ko/Nhm5feu2u8t0l98t4zkJRiAQFJVJJUE4zOCohKyX9XnYoqUDmJVJbviRMXL52QPXlen4Y/YZbGypK3kSaCQ0ygyIiZkbcTSq3JgBjUtdGqKNLzdE0hKHDn7S2EDVJS6ntVNAHyC34SvHtRyT0uInjusRjrOXoS9C1JcREI+LPnJcwujikgd+yxWPcPAch+Qm7EDsRNDL8bkOpgXbl+tf9WfmxiAqoicCW2zJl4s4l4XWfc4C6od6qOve+soy/dRrLct1ity4LDdP0hOvC4zTr32iYxryaOWjHJlAbh740UVeh525xaPon4mEph8d3Exo2qjhpSLOmUB/yIfdLz3tk+VXTHLcYPA++LbtkXueVF7btOz2K7d8t/vJF54++P4tZmYM/Opy0S8yU3NpEoLDBWw2YXMKeiv92CTkhsHwKQDvvlh+5MX4dod9pHvG2z9YiIfZGM8OFFKKETZ6VASypXQ2jNDdVELFI6OCmNpTWbj5F6+nAY0FRDvpCUACogHZ+HBpTAJd4knb6hQAceRFPHLCNmT1jUef/NTDD9AjjJxromc+yEBOqz4ywuZNWsLmpZ84gB9YVmTqkKf3qB5+EI9wBDzTTF76JTXQ0psG5Z1tDGLyrA17WmyUuzER57LQus+ZEJlQH9YZYfzUDWFgWBAW6iC37uMsLvlqnzk+1PtraQvaBXJ1ceu8lAn0TYseQIaLrmnR5bqG1ZPceBZxFpewMzfDktusNrcY4lwSILfH7LemrGq5NPlz7AoOm3brP0RXbyJhWRESrD8RyGVisMd7Noitn7kNZ2+En/am8/pNTCv92CTkBomw1gvJ8ND63ZFsFokHzjs1lyLLiCRkbiCBiNj9CMYtQbZAxVJxEKmj9VypSwENiEaSGw4NCZkNKDc8/eoYnxs0sjiLXiYvUOdDnJ2G+diolalLnuahjmF1TQ/M2/TI9BvWBeEt+ekC9XHJSz1Q4qoOA3+WxdnL1SF+KR0N9c+gqTT8AHY1i/2sRLTucxZQN7must96Ftah9YgszpF45SD7jQPkL5ShQ77IMiGaVnlOX+dr2ZAZF2q9DmkAYXXyrEybwkWufSnLQB7nyLNcCuKcGeyS/I1Xn12WJiEpV77oFwvBxQCO5UlWoeq0ECG2D7GR9lH7rC19quXBD4Ghs/X2R/azNsnNXyfxvdxKPzYJufnrJJKbOyMLwcWDhdwYHdAhoYOMh4ohEldIMCqxVYEtUKnkR2dGxZAvcit1qciNL8OGiR+3NKRhA1Q/y2zMwManzDQ5Htdr46fh2/jNz7Ay9c0bhLfXMV5XnRroel3CXpt0gDzztbIfRLAnQOozdy6CDiV3KiPPfBiOLEbk04DlFt5JAOyBa4d4s0XrHmcBdUNdWEfWX6mb+E8bQq6OYfXGxemGM6KToS0Rhz+8I/FcHxtDrh85eSIjjXloi+pkF3CNSDKSjuVHAJlJaPFYemID2Q6NL8+ussulIM4FYLYFga3+xA3NXyhhI4k/0QVBAWdo7Cxn0ObgvQZ9n2noU5m10RdSFu6fcCE3NpIEuY0gCO7nD1xblvfn79wmHHQyjDT8hRIIi0qByNhEgpxn57IlZEaF8VD9k+dUzjTfJmWCZGSS47KhLQU0GBsOjcZGCgzjhlMaGnJlpCsNbNgIkasjcmM1HSAMxoXVxQXkZRxQnzjLYVyISicATC9qHfOxjLjo4bfsbITBb3qvW/xDcqNh2Xn4bLPfcJZtrM5lWmwoYvQZLAWte5oF1IF1gms9x1lk2qF1C6hL61Boq7imj+xKGL96XAM9N0eZRhCPPq5phGkMZzsKp/gtI3mRt35d9HLe5RkM7YrniRsqxcW+8gzOZx7eEva93HIQ5wggKX52C/JiZsbPcH3j1vUjOrsddUn3wN1PLjqQFL/kZLkWA30uaXjn9mN7Dn5IoC4TH27zaQCztAxIzw0oPBd0V/qxyTaUfPmmu8oHib/xmnePVA6jFUYufLDob03+0Zsv7H8h+8RLry/kRuVDbvUf4stgpJJ/KJSXoXzXYXxdsUtBnMWlwu2kjbNhAO7RnVfoFH9qoHEW10ZJHLvJbPjI0EVOGF0brfGtcG7kpve6lIUyWzZHsZQ7ilz8fMzqfaFHGDeiy30h9571Zxm6AD95Iies6/XVUU8/ZbGzyXH5Gob1t2BdxLnB3llZtkmwnOPCGa38vS/T4OdZmSbnVaddDKE2opv9ltM6Mmwccm1MmyyEEXlim/pxtUn0IClkAJvHNR/8plWW7Ra/cuwaeZwj6dBDhitMl3ccx1nul3vTBvP94mYo8zn5LHwe9bPL4XFAJ4OVJfop+ivfibFXoNZDRhwfWTPgz33eONBXkoYly/V3t3UmgT0RvIvLfe5KPzYZuXFgLPXIBPBr2BCbJMZoxjhJbxpyq9eYf+t1g50+xtdGs1RoqHEWEM4GnvWQg9JYho2sNLRIZ6NGjt+OIOsQp456Nupx4XB6Of5wBhiWCeSGnMtseXMYnSxT37RZRzfnKXJ8S4dwlhmu9eo4kPOLsyc0gazOY1bU15wVi+VXx9X+OHt7A/k5tvRNU8tyWuqj7vBzZ591JS3sChd7w760Me3UGRp+bZo49JDVac2v2Cj3N5TnOMkNoKMLyNs48gXISKcLeBatZ8O9KUcGvO8sw49cXf05/Swo/dVwx6PkVm/4AKx8sSLF653c302CP4IBubXiAQP/u+++uxnHyhkrX1xX2Uo/Nim5RT01wSyNGZvkduTF95AbMzvlVFiugBqMUPheA2LjHR0VlCuvNpqlQIMObwnb8DXubOT4jafDyOlMqxzw6y12KCDr4NrhjIMzRUAaZ2aG63Ipx81h87EcOX2cfT7qWMY6TQ6jAwzXMG/LgcxrZR3zIC7L9bdA/IZAK+8aoTZSthyeJj90jav1vXfDpsEf50jY+DpNhvHq4GY59aBunCO6xOFHbrw2ojzH5TzRE9a11wGEBWnQy7aNTmRZoE6OJwzQ01/LvU6OI2xcLRdZL84R2WIwbwFxsGQIwUFE9Fv0WbWeyH3dYnDmBmmS583fXt/HcV1WtfhzN2z0y3HAWZvv25Sv9GOTLkvyrcYrzriyuGzJhrjwswwJeYGnv/UD3We+PPolPu/o+LWSPAubBEYcVCjLlFneMphZoLGHtwBZqxGoS6NUnv2CsHJgPrhAPfLjeurnNDmMrmmNx0+8+ZkXsAzqEGceOY3XMU+AXJn6yCLbvtPJ1wTo6jec80OGm9PUYfVzvH7DwDyNj3NEbykwv0modSelNU54X/l55Puo0yirdeqwoD6MwyWcZYC687oQhteKc0TfNMhzfrimwU9+6msvreujr9+y4M9hoI4uMF9c86RcljvH4UcGvIby1nXwey/kAZRxb/qBacdBPcGMjME4H0vzbot+i9lcrSdyX7YYMrnxvi33ha5wQao/88JTy4fayJkZ0m+6VMr7OMon+a30Y5OR24VXfK37jQNPLwQGWUFyvEB91F6D35WE1H7/H97b3DHEuzpmc07Lp113rtEymFkR54jfcG4chGkcNjpkJTxcHgEuu4wsm8RzYpnFZRVcllrQQ45fXZdhchg9XNPpV8fy5PsgbFktOy7ycbrAe1LPOFzTGzYP88/5CeKMB63wOL/XyHnl+KyzHJjXhkKdf74P4/WDCBYZ/ixXhlv7M/IzQMe6zPUWUSUeme9biQN5uU+bw2ZxtVfluCwlYpMuUxqHTB3zQ5Z1MuLsrwPQIU9g+nxt/OiTDqjPvXCPIRr7LIW66Ki7GLltbNiP8dOELCkCiAmyqgfyLkuW5c4gMd7vGYe+BIYOMzTk6JiGXe2QIn+J2+XLlX5sUnL77b9/byE2v3HDheyQR90tCiqA2VtrVjYNWgYzC+Is0PhzAwD4W2FAA6KR0RgBjY4GbeMENvpMSPiREadsEtA3vdfqMVymtIy43gdyOzPLa9lDdYE+MuOJyzrKDBuf5cZlKLMzNR2u5crpsj7+jQ2vOwmWvRWeJr8Q93EtffMDyuPs43M69ZXlOMPCcDjFJR324rV4/hKLtoWdYcfKsVGQbVh7BMgFcRIU/pxGe63Tq6ccl/QhGpDXUC/Ogjj7fEt5uYfhc/O+vDdAG1BHIsOfn5Nh8sjPKuuMg899qaAPY4AvKUlELC/yt9jyKxhmXMRBYoBPYYzL7/qIIy2yTHoAgmMTC7NArrvSj01Gbt+69a5+VsYSI8RWtvgHybGDEvligNSsEF6Ufnt9+2XoOLQMZhZoxOHtDdbGYBigiw6uYXQEadQxLa76plEHlPD3Q2cR/OAHUb4Afv5IbI7zWubttZRZhjgXxNflQ0dX/Ryfw6St02edLJ8ks/wtXYHc64lJ+rPAfJaKxfKr41p+EWfvr++zvmdlGcZlZH0RwT5eu8LFtgDtSptTnm0v22DWyzC+tNFhGjrqnAfIaYzXT9qsl/Mz7D1xL/kZ4NbtGD8ydYTx2Z/TTULOZymgv4No7AMloXH9oWQF/MYty3N63v3xHk45y5WEWS5Fn3Qr/VgRG0p43/Y/X/GufgY3LblRQYxWrAC2/c8yg+MjcF6UYghUWsuAJiHO4mZDzYarH9Aw8iwpNyb8pgdxFjecopN1gfnRSL0X/K2wDTw36h4pPxuvDTjEC+JxQZZnl7TGqY8LkMW54JmpYzjH48/xOU79DK+T/XEuAPJW+llhOSah1p2U1ris433kZ2Qd5XQ5DELUx2VkWZwjMsJZxjWzTSCP6F5Hm+LA5ghn2yP83e9+t7dDdbIefsgI4DdtDeJqW+bAJa98XWV1fqbt5cP7wPX5cn/IfO7AZ+EzUCbUrcMbG9wjS4f0fWUTihjO4FqDffpH4gT9HnKIjhkffanp/YwKUmOpkuXI+W7JKY+onx4sRUJs48iNHZTIn3XoB0pjQ5ZfdgIqxVHFYmAnZa5M1pJbBjQNsqED5Xb2cfZx+I1zuQSwXKLLsgnuOGR9l2RaaZXpXxAeljWXO/sN27Aj2IdbujmN+qZVL8uybp3WcJYtFlfLx7nWy3KRO33c+hqGfV75ueU0ytVRPg7q4s/PsvZThvD2z1w5QEYYN+db52lYf3a1JW0Om8KvPQLl6maZfmw4nP59WB2v3+ug53UIg3xNgI5x4+B9eE91WP8koOczrWXmgdvyLxf0YxAYv5EKSbH06Ls33sPVfZ7gTzwxoKff4ye7/KSKvpO0LFny84b0jcS/6dzB33NzRixW+rFiyI0dkr5zYxaX4yA2NpfwR/qI9+dmGIWwTTWvF09LbhiFaUjP6IS0LSMah2yocRZkOWFcDT37iSsNLBoibm6oyo2r5frj7GX4jTNt1m2Goxz1fWR/Rpz9/QD8xikTWV7Hj4vL8nFxtU6Or2UgP3ehbs5vqWjlL+o49LMLwtuH8QN1jBOmAeQNlGcd3Dh7PfzI1Ddt1gH463S4OV/1DGtTIsyquNhX9utmP65+bD+cAttBjs/psn9cmxE5rgXvw3tshSdB3UnIurU/6y0F9mX0g/X2/UmAqJiVQW70f3z/W+uwl+FB2y784YuMlX5sUnJjZAlxXXzVDYW8eOcGdjr8g6VxgWu+dnOZ1UFqxG1/+CX9iJQH7BZXZ2DTkhsoo5fhNJ5KZIrfMqLlwM4jvH2HYafh6F5DJx63bgDZFepnf9YVWX+xcMtvOM7it4Or9TOUe9+1HJnplNU6rbhap46r5T7nWh5n718ucr51uPZnGYhgL8cP1DEug7gaOa7lD28f1vW55OejP6OW5bD553Dtr91atlh8rRfnSDjr1br6J6FOs9Q86rRZnsO1X52lotWn1WAWxoyufl3jfgXALC3Hsft8j2M/VuIc9Od4sdKPTUpuENdvvOL0shQpsT3zrReWXyiJuisztCfsv6YnNj4PQC54wIwwePnJSIS/Y7TYOzem1oxyGL1AbmxvxaWyWwY0CXEWV6PNxmvcuHjluHQaIMfH2cuyfpblsKjzyf7Fwi1/vh7++nrGZShHN4IjcmQt3XHhLKvjJukpi7MP41qmuhxLQZzFzdfTX8d5vVyWWj5OloFctOJrZD3T5fzD6Z+HcnVMl2E8/pa+cVlfN/tz/GJh/eEtrtc13EozrvwZdZpWeBLyPRuun4Nuy79ctPq3Grx6WfWUg8tfxKjjIDWWNGu5fz2DfhFyY4mz9f5upR+bjNy+c9f3u7WfuL68R4O4IDj+TpF/X4tZDT+z5SYT3rXxix3EifphTwPIEELLy5gtwwGMYIiHCFvx2VDjLMhy7sE40+gnriyNpGWUCBYZyy15yYU4/YaVZb28pKMs69bhXNaWn7IaFshquelELUc/h+kAkLV0c7iOq3XquFoezogfl2sj010O4ixuvrb+Os7rGW7Ja1kNdbLuJKhT649Lqx6oywUW6GBD3GdA28KfbSy7tayWt8JxljC2neNwiWulwZ/bxTjk+6mfgeFJUC/O3r6yTH+WZ/9y0erfarBhDqLi9yhb8S2U364cvuohPRvvmAHSF9oforfSj01GbnwKwG9G8n4NcmN2ln9mK5MbcfwatnGirpRpUJYxo+IgNnDl9f/eNBxGNXlGyPcd7HbMOuMMVXl4+zCdBVC/xA1BQ7Mx4tYkpYww+riG1ct+dPDXcXU4l7XlzzJBuUGr88sgDuSO2jhkERzRq9MZzrI6bpKeMp97lme95aK+dg7X/iwDEezl+IE6xi2G+jqGs7wF43k2tTyjlqtf/JU91f7arWUizt7G8SvXxgF+ZIb117IsXwyt+8th/ZNgulq/lrX86kwCA2w+wGaGxeoS35cZ1+rfakBM7HTMH21PAjM1+kWXLF2a5NdJALM68qRcK/3YJOR25/cGH3EzG3M5EgLjF/+jzgpqctvzmA1DblQMvzPJaMZ3dNmYBC9ZJUFHMTW5xVlcjTYbbx1nmhzO8ozcgeDmsMjhOEdkhPFnnUnhcX5JgfC4MinLyHL9WW+SbJJOHTdJL8vrePzhjOgvBfkZ1Kjj0M8uCG8fxg/U0Z+BPKNVP7UfqJ/jWmHzi7PIhLrqZFmGMvPJ6WqdLAtv0591W37LIozLOouh1p0l7WKo8639XmsSWGligM1qE8j7Alr9Ww1+yovfi5z2V5y4HgN5+z76PZYnAX4G/MzseP2z0o9NQm433fqd7rgPfLlsFNlmp9MKuUFibCrxT9tAbspnJTcIa9xIhThGQIJKz8Ykfvnlg+k8FWolt2ZuOZyhIbd0lOfGmTsEEGcvw2860xDO/klxxo8Lj/OTR1y6XD/LaxhX6+ivyxLnVOWr4ybp1HpZHufEZ7NUYKPmk6+Lm+O4XnbrNMrVUa4s69aIqN6fdXHNCx3DygiHeEQHt76+LnJckcPqxNmnxZ/jlGeZ/nD6eP3E4a/LZxxuLmtdvqw/Ceq3wvrHIc4+nfrIcLNsnH8alMF49EMOsvNgvNW/ZbC/gFkXhOSPzENKEJ7v0Ogn6QeRAa735Ned05MabvmD0kMg4/viObmNOdavX99deeWVZYr7iL3XdI/bb033wF0Gf4D0N1/37kI4EMlPH7Cu22qHgbz+u0ZU8pmfuL4AvxXKb6v98cEXLtgB1ELOrwZl49pbPeeI4v7hm947dllyqYgslgXzqcuSw7mstT/OZcH85tg8EecCQMrTylt5zoLaJls2KmkRxm8YN5xNCsu6MbH60uu7++1yUrfqOUFugUxucU4EexTotx79/FO7wy64tmzQK59ORX/KUiU6yNlwggwwoSAN/ScukwvBH4r+9Ve/q18ejeTLwsY+Niq58SsA2c3Hbbfd1q39xA39DAoiuy9/gTaIBHKi8qgAyI+HXv9do196+bv6CsEvYf35IRcWQqIS8u+ntZDzq8GIhrwg3d9943u7m25bv0DHBrlURBbLgvlYFhp8DqNjWVt+O6xxHdokkMb85tg8EWezXqeVt/JcCrTjbLvjENFFZyk2u6GR72Fjgc0b9I+P3PvU7if3G/wCk3FxNgGJuTGPwT+TBfwQI/3lNjsOfvAC4mQywOsfiAsCQ06/y/MlPpMbEw/6YQiR/Fb6ca/M3CQT/R5UEH/m4ZxP31BemDKDg5h4iFYgJMUDr8kNnTKrGup7jTefc1UhStJkeQs5v6Wg1fhmQWSxJNiwzSeXBb9xkt04P3rLQX4Wc2x+iHMBZiGNVp6zQHusw7UMe8UflyxQHs69jvx8LOOmQpwLwKCcvpJZF4P7XF7iVm13VE9uR158XZFDhid++Lr+NRAuS5QQqcQGAT5q33VlIkEc6Vb6sVHJDQLR1c/hb73lioLgmCk9dJfBCEE5ow5GL/XMyZmbszSvAfxOg1kgceP+rLp5Q7A572mRG+NSEFksC5Shnq1lvzqg5cddDsxvjs0TcS7AvUluINssyPZsPGXCjUv25IYbziaFZdxUiHMBICkJ7OF7DL77RQ6BlSXIYRyrUczkTMczpj9ktgYJQoysoGVyg/T4kfs5uS1yQC65oiAZ1nkfs/fJ3UN3P7kQVI6vwXT7v73k9LLzsZ6hMQuU+FhWrD9ApBIZ2ZAOkoRYW9dYDDbMpSKyWDbyLIwy1Z3DJMS5LLTynGPzQZwLcG+SW5zFViUvwsjxC2XO3gjHOSe3QJwj4DnyG5P0fZAYrgRG/+qgH3J7wK4nlX6vlQcur4wkNkBf+auvfneZLBx63lVFZ6Uf9yq5ZYKpZ24QDmvLLE3y7g203nNlMMogDW7Ou5+5jSE3iNF4XPKoN4tMg9wIl4LIooD1cda5WSZgDZxRE4aHgeFXrwZlqMksh7O85Y9zLGgUjOAAoz/CdVnMbzmg0R178bWlUfIMBHW61Bn1hgLXZyScy0U5GQFT7laaexuUA/vNZayBvbfSxrkAk8iNOsEusYUa2O2xH76+PK/8XmgSsEMxLhxOAXYtwUVwhNy0T2YnypYCNmCQF/fJ7IS6nvQ8vI9NhTgXgHLTp0Fe2IXv3tgAwn0xgZD4XLqs8yBN0QsdiI0f0WCmB8Exm6NfQm+lHxt9WRISw20duaJspMzcWE6ElN563rVN0rHTy4SVQefDjIzNKLx/y8uS/PQWDd7NKxAcv5INudbXWQy5MS4FNBzu29HW/Xc7sRiQhsQ94NeYaliGujzZb6fQ8pNHBg2bTooOCsNnkABcw6dMEDANBX2vOwuoTwhTEqcRPXSPE8v9Z/z0i9aW96d0WnSo6Lby29DwepSP6z/i+asXlG2rHY8t5UYPDP5w4/cXoJX/hgDPQpKhburyjWC7I8uzpE5JByTmOBeg1ZkjwwZ/5sDTy8gdW6CT4zWCwDYes8+a7nEvXFfKNE19YYO4cYniape4WS/OIgP40cfPNbgvbJQy0F9Yd7OCjp8ZCWX/mQNO758fNjCO4HIZJ8H6YpAxLfGPA30f9U5euCEaAdeifujT6jjBsyrv3Z5ycPHX8bRxfvbQWZv90c8ftK6sinEP6K30Y6OSG383adKRK42KwkhZkuR7ikI8AQyPCv3KjbeVTgQS4uHzgDOh1UAPEoM48p9qcIYIqUFwGDANJJdlWtjglgrumU6CMmy907EFq7Y/ciEiHmOOS46APCiHfjsLwtkPxvkz+o7yOUd199khjH+4/TiHcXlejHLJZ1bQibhJiI4XQBYtGA/uu+uJpVNmNr+UWfZiwMYARDB12Z59eFkWh+gs2/+/vf+Aty256wPfVs4SIEAIASJ45tl4xsPzw34fz4zngf2GYGMGBdTKsQPKEgKMwQh7/IY0tjCSUWy1YqsldUsIIclEgYQxQ/IgE0wwQYCNQVhCKLbSfvWtvX+7/6du7X32Pufe7ntv7zrrd1atymtV1f9X/6paa7//hnn6p4V7lr58ev47lLGih21x2NWze91EZKObdnrb+72wtcXWFgpu9bA2QJzgkktf0M+71lParnO77G6uaxvmB83aof3d5hGr5/CQdm8nwo3tu0IbD6SfNaYR9R42wTNIOuDZz8LtCv0nyzEGv83pRMh6Glk4+kUO8JcXjdiU5L2+7mU9vDYo3PlubvI1NwSTs8ryoIw2kNB/842vWxMbzc2DdUZCzhXICcmFtPaBzlrJTTpjI9oF6XAnBQ3zXk9twrQRWMhtEy659Hl9+q5lu0YEwqxMEQxxy3X8m/UM9G/KtedRO/cI79x4Xhp80t8VfS20CI9RAO8CQhq5ztI/KQx4dHYEOstzE2776JeuccnDr1p87jdcv5PGchK4512JbBe4V5rOLlN5+stIbMeR250ed81O5Jb2CNvc27E+t2PxwQ99eHGHx7yiE9xJUdv1Nmiz2q68K2p5N8EzuPPlr16m0/rW+L7uvjBg90qAtGhTzemsI+RmEBo3eR3IbUfz4Q9/uHcaD4sabToyRIZ4INdx88DXaCMXcZGVh22tzhSkqUijm5HQRogTGMXOGtJxqB3wJGhJ9MbqfmaEZpoydmHclzhByhF7dasY8+XWjiMwPTF26hmQ20mmJWfpz4TurvDcZvnsC23QtMssj+MQUqv41Ce9usNMQ3tCa00DZvnvAvc6y38GU7ymUoNZmODuV76y37tn0LLZiJOQm/Nx5Ja2WK9rG4321qxrtKOfaZieyz0ff+2UuHbB2B43Qd87DbklDTLL7NQs3K4gq8hLU4oG/81pL/iW7ud+/fV9QDfz109pbLTCKm9atv0ZPOUF/+ZAbtsMcnnf+97XH54RQdfEVutfHqp5bn7s0dJUaObGg0xN9s7XGk4I0DTRLj/eN2s8+6B2xpOgJdHvoxIaILV7XPmKo+TWtLv7PmO5diJesKlM43V1b8cZyFTh2LEronVl6ip5HAcjwRo/mAncETQMQlpbiBsNhhCn7c/y2weeZ81vH9zxsld2be2znvbqbl+T3IOfv/iib7m+t8tZnvvAPfY1yR21Ns+rEtwsTBCSGtvUiPSvhL/94165uPWjXrq43aNetvi8Z7yug6bmGql99lNfs/ixX9ltB/LYNqv77NyK08vkbOODdnHJ1z6vta0bpxuP0+jucvm1HbUtboN2ax2OpivvIGU9DtYrI7M2fah9H1izlpZZgna5ExASZYC8taFEfx/j66e2+5MDSLj6gTS0hfT/893cZOQWQon9Ax9Y7t7xsE1F3u4x1/SHanoolagCkBt3C6S1giFp0iQQWie3lUa36d22ijG9fZFOeVK0JNaNrk5NIrVKbIHnoAGKVzEry1jG2J1blCPxTY/6AsKsY49QX7uSmzWifm8DqQUzgTuCsP60p1zX18KqO2HPT9lnee8Cg6VlZz/ZdB8NDbl9xpNe2cntyDTlqi2fZgOBe3OPJymfeDDzCzpZtf4in5bdRqR/IbQZuSGzkButzTOd3c8MaZ9pm9W9nqEdve0Grnv9rUitEte9nnzdRq0O+cGsTW6CNlyn6SDlurnQjp1B1vZNJKv33Gh+IWuDhN5PH/yCrrVtkjMjzndzk2puCCXmox/9aB8FUHVNJZp6NLUYYUWdt7kk62LbyC0gTDRAQmv0m2FMb1/UjnkStCQ6ENxs3W0kOetu7jHbez1NYJ+VD5JX7O10JB6k89bObPqxXmf0WndujnmNMMJUdzWdmu5M4M6wSUgT+mCKZZb/NnjmXTC28tU0a17HkQNCG0mtghaHFGb57wJ5nJR4d0GIiuBr2W1Eq+l+No0pDmILuY3Yh9zSLut1ba/tWPtVuyIBtz7jUMgNoSE27iO5JdyNaOS+Qm2jM2gntER5BinPuYI2aiOZfjTzb8fOsE7uHhAbuBdykl/XzJsfYgMvah834IHz3dzk5Fa/M4nAbJE1SvjkR7ysd7JUHD8VkPU2YWrFwkhW+2JMb1/UzngStCQ6OgkM5HaXK6/t05CewZrcWhhkZ1FaPO0L2Gdlml0LW+PpQCORwYzcCC1xguS5Ceq2Co67X/7KIxriTOCaUpu5B5VwCH7X1l72XTft01kDsd37KdduJDTud7ri6DTfjNAqpD9rt7tAvRxHriOED2b+IxCVac9N6y9Bq+m+O3FXckMss3sasamdBs35SHgzBtbgFAn4zzQ3bve4/MypyRBf8OlPvr5Dm8ymj22wNCLPoJbtbMOsR19ba5q1tjpr3+04A56R+sy6eFDJjfamfcWvy5+itR032AnOd3OTr7lVckslEYJXfN+PT1821VGQG4wjwhlh7YOa1kkw65D7oCXRES0iBIbUwPU4Pcl/JJkgZcpC/Jgff+Ha0aFRzzrxDPuSm52dsxExYaJO2Y8I2kZUOrH1n3EKchOi1dzukS/aOLrdBFubR62oD6YmxCAcDQyJegaJNyO0Cppb7mlWhk1wL2MZlOs44jcLgqyUceY/AlH9/O++e00Um9BqekpupiIzHXkScoOxfVZ3gtq5Xa7d2BXJGWyIGUkMMvVYrzftDNX/rPNLywBsbLMEvhmTcRBQy3u20dvZMDAcN+i04wxoa8p71ytevV4+gJHctLH4HSG3dj5uDTY4381NQm6IJKbaU0kqDQgPo5UqDKjMvaJbxVh/o7Wkks0Tc7PDp5LWrkgeJ0U65UnRklhDB0Nk0c5GUqvkRnhouJ5khXRSrpBbLWfySnh51g5k2pEwnmly+5JbOlPi1zRj7wK2hSGQjVQJD3XrrGzc+AkzCuYeN+T00Of18LNyjJA+QTWS2KjxJO2smxk5Q8rGzbO65MFXLfFwZDYHoZlnHszKFvR6GYh3Bs9F+fL+m3Oeo2vnLrhaWrNnyO005FZJDWwmcfazKrP7GpH2Wa8D1+oqdu19bPPNuU/Rewa3echyU8lIbNzUk2dR4yZ+gPjscPXcZhg1IahlP9vobavVT/oM6J8GMMojTDuOQF8JeTlTGkJw7H76ZiQ2EKbeq9kGU5Ne2g60YXK5DhDOd3OTa27VjBVq9HSvJ167+Evf9IZeiXH3sFX0XZrAZw+5dfemtvsxPsKmOe2FpH9S1M54Eozp3elyX2dpAqIRdgU3frE7I/Q03JNAA5dGFXbIa9Oon4DkV81swBBkBDlLK+CvQ25714pfCO6Sh119BDUtZbP7a1aWCp9iiwY0GzyAAQThoj2OgqDCwMsA6z5PvbbHmaZ16fP6YGQWf1Y+97CpDio8DzvaIui2wTop4Sbd/hxXxPn4F/7s4vf+64e6oO/mEx9dfPijyzg2ZPVZlk8sX5x+7wduWNzxcS9vcV+4uFUnsxffSHKXXbu41aNfsbjrA79r8SXf9eOL3/u95as4JhDN0zh/5OPlJe1PfGzxkY8tiWsb6j3kOoO2dZmbISt6W3t4ezYDLnnwme02RhojlC+IW4UyxH+cIanlhdGdvQ4627ER7skPhbqv/Fiys1/jRjQIXdurbSfPQTjQNuJn97i2pS3UOCP02899+muX7eQhL1zji5tMNl1Zw57v5rwhN6NiQuyeV7YR1yNf0xtkSCyVdo8rrz2yQK9z2/WD3FRkc5rCZ3VsSCGMqnvSOSnSeE+KmpZ7nZHbJ/fPkR0lt0tM07Zzi3ZiaKg0niowTQcS6tUt2IfcEEjffXWM9qFedyFoYdTfbR/VhOsGctM+LILPylOxE7m1tAiPWVlGIN++NtLiTNNqpHfPNmCbLdDPyiectOq9jUj5diG2ChsIxEO2Bja/8p+bNtL+5Jv61C4/0YjoY6vyLUX6ktzuduU1/X4uaVrBbR55I7nd5rHNvdUNcnvIy35tfS+IDT7aCDLk1svSyO2jH79xyhHSJ+q1ek/ZR1Jox9rk4wNng9w2QZ6Q8uyK3FdQ3Zp1I8gqbUE9ITT355e484vcrj//Gdevn7X+rF75fUrTsMnS+M0gvC+vQCWt9SCoEdptH3F1h2tyt5IlnO/mvCE3Iwodj3YWDS1+VXMzagnp2cpKGHvw7XIKHaQ3iEaC+Zo1NyNyIxmVaSonee2D2mhPgprWSG7sn/eNr1t8yXe0UXwhvJAbuzXKXchhBIHcyYdAKELzTo89c3ou2IfcTEn2aZUt5KYeZ2Xbhjs+7lVbyU2+s/JUHEduhLevxuyyWywQdtOXZjoZdLzkDA11Vr5dyE09GInX9rMrtHXCzExHK8UK7X/T0j7arD5VR1vrPq2MS9G+JLd7PL5pqN7js47VyE1ZbuO9qEc2POKli7s/6HsWl77kV3p4Rhq0tk3khrBSrmhB9fpck1vSTpqBtCF254RxruVIfG65B+VO2eNe47DDLn3XdKq+qr8YRHVtbkVu+ljaDaLjxs/91jY1AnF++hNXhNnwqY9/VXeLf+QtYrvjY17e5as2Y2q2pnO+m/OC3FKBpiRpbXdoQkHFZYeQh3sbgqMBwYXcVP5xIFBUtkahgrgZgdD2Oum1SrTWJz2VB7OdSTOkkZ4UNa1KbhDSpt2E1EYo+6iNBts6jtGajQCj0ISzQW5do/4HL5ySGzf3ps5nZdsEaz6fdOV2ckMMs/JUHEtuLZ20k30gjrhnpLciN2uoZ4Pc7NhM2Np+ToJWikWjsm6kh9y0Q14faarbMkz37WX33Ky5IbdbP3L5/LUVWtsljUju9rXfvRe51bIch8QNUaRkzEnJLf2woubZjiPXY1j+QQ2XsGOc6gfNujcQ3J0f98oO9rQF99hJ7xhyM3iJPIxmFi2NXDTo6TMRze2ul7+qT1EKTzHo65YlrfPdnBfk5oESiKYdQ273fOJ1XaviT8MycrF+MZIbMrIozl6hIggcGAU9QkBsKjjQWGJXFvFTvk2oDfckqGmN5GY60jRD1djOwMNevHVNaBMyzTsKzgirmfs+5LYUNpvJzU5FZla2TUBuNPuqvY3p2sigLc3KFOxCbjTAWRm2IRtopFE3A50LcnMPwtb2cxKgHgSEvFwiN++fdlJqDtro0rTn9qGPtb7nfhq5PfKlndy61maHnfpoRGJa8kFX//tVnHaPDSE3WOddpiWj7aRP1Ot1+FVZnM8mudX0g5Sj5jf6xR4NbVbmdhwJX+PHTZiKXTS5itpu3CNiI9cq6W1Cn8IsU49AS6PFITXy1uD6s57++i6TLQscpiX3MKn0d/zh8of0EFfIjZ0mh+RMWUZ48FORyMC0pPloKrbKSuNAihnhUNfTGALkJq2R4FzHDWmkfJtQG+tJUNMayS2kVsmN/xGia+RG65zt5NqEbFjo3/8bBCeNynPMtXB5t+umIrdtHRw59E65gdwueehLzlhkH6GDnmtyO5LeKcitD26GwcbZJLcbPtYE8yodmlp/9s3to61sNzSmQ3bNqqY6ud3jikZmK3JTlqy52UyC3O7ygO88g9zWWtuK3HrbR2w7aG7KE3slj3ZsJbfbtfLsS261X4askm/CpAzNui7LNiS9Zl1fj/exL6FV1HbTfyngS5/VB4D1V1BAnyAL665ybQh5IbSR5EJ0n/T41/Yz7Y3mdpiW3MOkERht0yZobpc89Jo+/dinKAmG1miRG+Gvclzr9OaF6zwzQjK6V+nRTEJWKrxOgxEydgWpcHGdq+YmLgJM+TYhjfekqGmN5BaM5HaEAB/1ssUnX3lNfz4tiZ1gEJFt21VoIgfPiX++Segc4Xo+kBt0cru0pT0jt5andjErE+S3/KwtijMSUSejVvcIZpb3NqgD625npLcnuYUkle9ck5spyQ+1dtiJrGlsfqJKuoiuT0sq47KmOrnd+6mv6VOSoCyd2No5a27IbZyW3ERuXXsrfWGGk5Lb3S57RQeS20Ru7nfMD+QTxC3lTlmCdhy5rvGVvcaPf3Vrx6lQ241BK5k2m7nQpxFf3YACZKJ42Y08ElzgO6lmwNLugvPdnBfkZo3LS7/IS0UYaXzBM67rWhqCI3SRjVE3P4KElhEtK+eQG38NOu4qTqWnUQQ0P+tPVPCaDnI0Skn5NqE21pOgpnVScnNvGnVL4lh4J8i3AGltneCaYKrk5Tmrg9kHd09DblVAn01yk652kHTlKe9ZmcAMgR2hKc9IRHDf1u5o/q11rjErxwia/lc9+6fOSCuvCSC3fDYtmJUR+ea51cFF7tH12SI3JJO1sI9/9IZ+/nC7ZWfpI6cWrD8D5Pb53/zGrrVd0gZGlzShZ1qylwu5NSC3B171yyKs428jN2mHDNjH6yNlXfUXfr18PZelOVvklrzasS6Lc/zZU4bqHiR+BfeU2XU71uHZT4O0meNAQyPXNg38vPZB5tHSQmjspidNU5oFs3ntQG57mNoIEJetyu98zw1d0COcTm6Pag20NVykV8PzR0YhJIK5CsYs8Ie0jMbHkXPSQphJiwZX89mGNNKToqa1L7lZk+vk1ohK491latIIjaaXl20JpkzREZwEv09QRZhW8N+X3BJ3X3LbRnCV3JRdx0u6x5GbAVJ9/aESESAh0y8jCe0C5NZnFloaScvzgpDbWEez8iFI95Iy1mcH7v+skVsjnI5VW6TBRYvrAtm0ZMun/V+8/0MfWdzrCTdOSyI38G1KWpv6sFvya1/8jl63vXwt3jqPhpBCf8fN1GTL1zWkT4zXI5QzYWJGcqvYRm6SkI40lW1E8ou/cy1H7JswhqlpHTeI2wVpN8eBLDRo0r5m/gEyC7EZNJK5SI8CoH2P053nuzlvyA0QHNCyjDL6GlwTDBqu6xp2KeRu3B3UnI5AhVZtTBrjdFPSkjb/kBuiqXltQm24J0FNaxu5cR9JjlBHUNHeCNaWzEYQrJ3QVsQWcguqQJ1hH3KzsSPkFvKs6WwitxDbruQ2pnsSckM6EEI6yQYdMDAjECq5Je3Yx/say4dY/QJCrQvPD8FxM/igVeYXL2r7OQk64ZRdjMgshJYw3nljvArwOU9/dSc0L3FHc7tjE4iZlrRbMpobQ3NDcPLo63shiDIt2a/beSSU2j/Y63U7jmhu6b/I7E5eKN+R3JJuRc1PfdUyyTdl2AXK2E5H0g5c8xth9skgfFsfCGrbAYMe/XzUsALkxM/0vHCVrLQp63b2PFhjM+DXX0xdksk1neB8N+cVuZleI7yymaTvnmyaG4K7z1Ov61+MSNhKbuzN6QyoHP5IS+MfNwokrYz8zidyq6Smc7IH3KK5hbA+7Ymv6ZpZS+oMaMi0u33JrRIT/13ITV606KQ3khtBTRgxYzlDbNs69khu0Wzkty+5VWILIQkzy/c4IB3TkJXcarryybR5MJZP/Xles7rg5t6ZhK/t5yQ4ltyswa3IrU9LftPr1+ts2igtrpcNiazec6uaW8gt+fQ85NWIjfY2klm182vWZTlWcA3tWJObwUjfSd1IDJmZirz3k65dbyrZRm6VvJI21PxiT/lSxorEzznusc/iJmwFItFPDVQNzseZphFpB0H2Grjf6o6cyFaERRsj48hFbgmD6PTLTEUKqzw1nRHnuzlvyM2D9ECRmhdeEZtKsR6nssfv1XFXid5Xy083zEALlK6KGwVX0uKvUdDwCMfzgdw+++mv6Z02RDfCC96EXX9frREWCN+SOgOeYwitogrOPvJdXQfZeAHC7EJutGMaRgT0SJDKqB6YsZwnIbea9s1JboTRcqv8jaRW092F3Agn5cuzG6dzzwW5daza4jgtuSS2VtBmkNt9npYNJVcv7vDYly3u9oTrlpqbacmG8VUAxFbJrWXR00VuN3z0hqNlmfSJGdpxhNz03U97UmtvK3KDOz16SXK7aG41XRjzqn4pI1Ri7vc0nGvYhAtcC9OsR5DZpsD1GKb2jdp2oGuwX/nsM8jNM5KeneWILYN94atWpu3T3g7kdhZMrXAP2QPtuySbtkZ7i6bmISOpGh5Uht0+24QhiC/9TWtu/DQkG1HYax7bMDbgfVHTquRWyStkx82XSToJtWuaG21tTVSN3BCdBtuSW8PIVmOvGlvQCaHBCM4AoY+AV4J1BPddyI3WlvDO9WdklN3IUTimlhNuanKjaUEloZOSm2co/mnIrQun9ozy7G5ucvOlkvav5/m+D398ca8n+fzWcjPJ7R/z0k5s/V23Cbkp3zgtKY8u1Nufqcl2eaQ8Fe3o51l/4bcs1fKl5pDaDNvITTqQdGv6wJ58c13t8auklnMtczuOgNvoTvO3mxHxbJppGpF2EGQGCoFpS3Hva8Ff+qzuJ21ER3OzDlfjg/faPrXV73Gf74Lz3ZxX5OZh3/cZP3DkRW4vD276PFY7ToVZmvsgDfikqGmN5Ia8qianYSIf0xZr0hsIKxqc52j9RufoU4Qtbg0HfcdkE54acYy0hY1ArTgpuX3aE2784om0zydys5MRKgmdlNz6T/ycktwinPLsKs4VuW2blsyHkxmam9mE/tJ2RxPChGQThCG32XtuldzW7d56m52ajQRCBOsyNXt1H9HLtXp+TP883YTUguPILXnWtCUdjGES7iQY83AO9FdaV7Q27eCk5BaCNIvC3aBd39b34u9sQD+mIY6wBruj34jz3Zw35Gaa0cMmHPtGktVam0owXTMjuHasYa1nFy2uYkxvX9QGfxLUtMZpyRE0OV9iEVYD7N+XXBHV3a5c/sx/yM4zC2YaGzfhNeJq0jkiUOu2+V3JTYfsL5QWAZ2pSWmfK3Jbpr//hpKRhE5Kbu67P/OLiNxaEY9sKPlL//D1KzJr5ennFcp7buO05Fo7bJBmO5bE9rHl1L+8K5GNZJcw1a0dvWxMH0xNSC3YRG6MdGZox5p8qh1SRkjZ4p5zLXe1B65rmkD2ZcowMBtQw4xIOwjSfkKQpiHre29kpGfhoxfS1/9tLqlpgPU3s12bNqYE57s5rzaUeKBGwKYa8hrAplcBoB0dtm73dbOmansfI+7HIekgFhWPQHf9riTUBnsS1LS2kRsio9m2Ivew3tcSNkSF3GzxH0ms4t5Pfd3is5+6nMb0PA0YRjOS21c964dvJKYdyc2uqwc95+h2dvG8fCxtUyQ6DdNu5QhOSm55L29fcvNr5/e48uhuybNJbtKH85ncOlZtcZyW9BL38seFP7F43wdvWPyVf/xDS23t4Vd3UluXDbm1+rjz/b9j40vcXXtb1Wsntqa99TKs+gJ3mPWNinasCYcx/Zb1tRmQW57baJJOhfRrmbjJt5YpdueQXO7N2XUlQO7ScR6vAzLMoBUhARl4XFusbQcyrR1y0++63BjCyScfTtYfuWUHLljKQKw/9AvbP0R+vpubldxmDwzBPevNv9obZF4q9HkY26yvftt/PBI2lawy8vKhsMLVRnAc+i6jFk9+8t0mXCs01NOgHWsQfP2doTaicgaCpAuT5jY2dJ0hv/YMn/W0ZYdQ/vEXoeFTn/TqxSd93Su7XaPua3O9EnpVtEQXi8tf/DOLS+7/gia4mlDwFQpEyO69pq994eKL/8mNQkK0JrdurIeVEGz9ffGIF/7s4lZf29JpQrCT8yPaAAUe+PzFVz/rrYs//fM2WuypLE3/In0ERoufL2T0r2RIfBX4XX/xgeV2+wc1cmsC9VaPbMT0mJcsPv3Jr14+uwe8cPG4l/zsKvwynlItrz6x+Pnf+bMm7NrzegR4du3e2rPt2sejWlmbIPyF33tXDysJWSvXTJh1tL+k//yf+o327J6/fFaPbOk1QvvkJ75mcdeve3V/BgYJf/7+D/d40qUPWXvqGfnXjk5u0mhE5kclb91JxPNrdfHAJqS//Y0ideO5r8txQrRjZ+gTnr0fwQwQ+O0ve9Xi1o9+ebvnlyxuff/nLi578b9dlq//b/f5saaJqdMi7KE/y1Ud8+9YPd8874TTPkBay3a2vH/lMujNYGIG9eAnh579I79xxj0ljxEGucLP/CracbMichDIza7FmtFpbcaPOG/TvMiJhP3kx7+mKwfc3ffnfeMPLj77ydd0txk5Bue7Oe/ITYUQ5B4ssjH6AAudtqmyJ2wqWfj6fbSX/8zvH2kEx2G9kL8iuHGEjUgQh8792p/7/TX5zRr8PmjHGpXcQmrbyA3Mi3/uN1zfyQ1p3fGyJXltwyUPfn5fZ+v30CuhV0VL8GTkxiiL+uDaZNPiYc//mU5uyn6XK65Z3OlxLZ0mqG/dSAm5vbN1RCb12AVgBFpLhqBzZrowa3bn9374o4u/9q3IrRFAX/dpGtejm2b66FUZH3jV4tEvensP3/+J11NhPZPcaFN3ufwVy806j2xuTSNEbkin31OLV+tprLdt5ObDwu6/P8NGVMjN1N4yVVC25b31f+24/KqfXqbh3tpz77+qjCgruS2jLp/bqjwnRTt2hvZizbeXqd3PHR/7ysWnPfGaxd2veHm/10se2cp8v+f2NhTT+2irtxBX8g3RzcgtSFh2acCM3MgJ5FU15pHcnIUh/LOpjND2crI1O/264r7PuG5xrye+op9f/rbf2Dib0469oN/5RJs8kIvrfT8YgMQSJ/0n6O+XfumzFvd+8mt6uNG/QhnIPOQGd7v8mu6G6G5zxWs6ORo4UBxm8eF8N+ctudHeEI0GiVhsTw2BcUMyqWTzyvz5ibdvg+kLra1RyM88dNXclAWh8pO/Fxzf8o4/6n6zBr8P2rHGceSmkdXwQSe31khnRDaDReu1ZtsroVdFv9iX3FbLMeskrM/8xfs+vHjg9721aVHPa3GvXtz5spf3tZo7Pral0TS3v/89P7L49f/0fqGXkZrpAnAl0Ai5CDzu2oSgyvsn711pbo2E+nN5RKsT5aN90RIf8ILFZVf/m2XSXa3st9VNa11nkNunPOFVi8946ms7wV3yyBetNTekI195VmHrXDUL4ZL+C972m0tiUp4mTDth9rJd3fDixd2vfOVqOlYMaG3gE3Ykit3+tYPm5h6Wa1lNK6IREdDNfq7I7VU/8x+7oGffBn1Cv0NqIbd7t9H9J13ZyM3zbIODW93v+xdXXL3U3Jhed830+mzPTDryzTNMXQcpV/dbPeMebwu5IYhdyM3ZYIYs0d8Rdb4Fym+KS5/Xw1nrdidByin/XZHn1wfRq/QRCtk1C78JZpnII6Q+Eg9ZpW/be1DdZxAOCYbgaHGgTJ/2+CXRkYV1zW7E+W7OS3J7/S/9UdemEIqHjFDYo5mpEO7RZpDZC3/iN3pDz8hMpdg1SM1W2SoT8XEbNTsdXH78xo4uDkKoecuLXxr5SdGONU6iuYGyVO1tG4TRwdZE2SuhV0W/OOm0ZJLg+r7337Akt0ZkNBCC769+2w8t7nJZS6ul8eXf9SOLd7zzvS3sUkgxM3Lrwq4JM+kjUTz6R+9+/+K/+9Y3dnKjsd3lsmu6cFpOfV69uE0j1Mtf0jSHFCj32K1zcrv3065b3OmyRm6PamlceuO05DLOUY2jCt1ef/1vaV749t86Qm4EaX/mjdiA5rYkN6ku0x/J7cqrm8aL3FaaWycSaUjzAe35n5LcaCD6ljatXwBBSdhval8B4SxcyI0G51232z/WlGQrY9PePP+QW4uyNtbx1oSWemYvdX1TkFs/X/qcIwRzHAj4rgXJc4WUU/67ItOG0kzZkMmmQesM5NxnP/11XR4hoOf+yK8u+98xyMeRybm42TRCDiLvaG20NeSPOLUR4WcbToLz3ZyX5Oahjmtu7KYl2TtaAzWK2aSlqXiNQFgdOMQEyHIWZwYaYrTG5HsuyA0pbyM3QqmGr+hrhq1cI5mNEOYIefdK6FXRL06rubF9oN3Hpf/qbUtya3F1YsLnto+6enHrS69a/K/f9WOLX/2DP29hl9oRhNyUqcm4LvScl/OezdIOfn/8nvctvvCbX7+41aUvWL5E3DqlDRt9WqwRAuF62YvfvvhEj7yMuhSFrGeS250vf+Xibldes3zGBN+DX9zJbRlLjDM1t9h7/fW/pZmRG/TrplXOyK3n0K3L83pasrVVz/5skNs73/XeTlyAzLrmq1/8A225oRGVa8TVgm/EjNx6uaxdPnK15vaA5x+ZlmSUE3Hl2SE56fXr9vBOS27uyfRhJY0ZbBxyTrgxfOqrugljkJxyjWjHzvD8+ndDyaBV3jZzIL1Z+Bn03U5uLQ0yrZLVJmhzCMvMlCnHUdtzfwjc4N9rV9KUjw1224gNzndzXpKbEUWmApGSsxEGIY7g/M5QJ5xWyRrIrCGorC7wW/yKkN0sziYguHyWRlmkzX3W4PdBO9bQmLaR27bpViOtXTQ3a3JHpkF6JfSq6Bf7kpt/BI57WZpPLN7byviAf/kTyw0lSaNvjGjptDT+7nf+2OLX/+DdPWxMyE06EXjOaROCCv2H73rP4q/+ox9YrrnZdPHwdl9N2C7zaOnfr2kOL/k3/V4Sr99jMy2lMzeUPOrly91+4noZuZHbz/1uNLfl/1pXvXyErXR72jeS22xacvn81N9Sc+trbrS1Hkv6LRGZrM6V3Dzz005LalMEl7ZhrbWjPbN+/ejW1h65JCr9xJRoi7IRM3LrGm/XMtt9utf2/B93FXJrERp6GVv76IOVlkhIS3pdk2vupyU3fbET9oTcQlaIjYAPwcEY3hSlQVh1EwYZpFwj2rEX9FPpGpAh5FmY40AOmk50357BcVCvBoHrqcdWV2TsGI5b/dbkLjjfzQVBbrUiUwHC9TfvV6OYsRHQrmbkJs2+U3AIfxx07iBuswa/D9qxhhF2JTdrNJ/51Fevyc27Y2/5d39wJE7F+n4npEaYIbYzyLFXQq+KfnFSzU1a6oTrh2/4xOLB3//2leZ2dcu74aFNAEqjuX359/zE4tfe+V+XEVdG3LUwKwJP+Xrx2j95/MGfvnvxV765kduljdj69vPVdw6zHb2VvZOb8iSec7dOyI1QNm2I3KyRNb+f/90/7WEZedbpNPYj02vHbCgJSV3ykBeVNTdpr9IXu1vbv3YQRLd+4OrXFNqzP+2GEoK5E9kRtDSdT0Bupu0/9Qmv7nGQHK23p9UHCg3t/peaW4uwKmgfuLTbrOVaP8tVPfPvWD3X/mxL2NOS2wyz8CPIFVpMLXtFO/bGKENOgsT3DI6DewipOc92UbpHhJn7rX7bcL6b847c4B2/9ydLVbppWYhuFgaMJENg4xZ+dg0//s6f8eTXdg1o/AzXSTFr8PugHWv8uyZUK7nd+XFLggu5eYfP/dQ4Ff1em6DZRG5wRqfqldCrol+chNx6XSyd2sXHj2wo6Wth0dqk17S5//U7f2TxK+98zzqO+F0AEmLNcS3oGjwj71wlsL2G/89n/lAry5JEbv+YVy7u8fg22n5EIzt5NOH6uKve1sP3KO1fv8dunZCb6bSU7zHterVbMu9gSaPWVS/Pqpz9egu5EZ420fQ1qYe+cE1u0hT3Iy3imtxMv7aD5obc1DmN9LSvAmwjt94uTkFuiPe2baDYBwf9WTZCf8DzF1d6FUP5+v9lOdVlBgXKxd7PE3Kr4aA/7y3kZlDXPxpwFsktftuIDdqxhmlfMohGhiS29dWzhd73GrKeZ9rR2ho3SoByIDNamzpGYJW8TEHSBE11CkPmHsjtLJnZAwPTKbbpaix52OZ/EZ3trjQ2lSdc5rGN3kbh7VqlW2PTMS2silPDnAazBr8P2rGGso3k5rwmt3aPWeubgVbmHiO4KrF5B87U6hjnI+25OkcS2Wl4ydc0AS2/h169FPplSvEMcmtyxn2on5i/eP9HFg9UJ3ZLEvTidu2o2b/2RYsv/+6subU4TaiLqwxdADZB118iXgk3LwCT+8v0e45dwOcdOtMtf/Ofvqnl8+IujG7bNMPHveine8hEaaVbXre/X/iddy3JbaUN+UrDbWxhX2mWrn/x9969zGoZvZet1lnKxh05+QqHcM/9qd/q62LKdatHv2TxqU+5fvHpT3lt3y16q4e/aHHXy1++eN+Hlr8hxogv7tqhnfvgQhqeWSvPbfp5WdaTkBuB29fX1sQGy+lpQm1fcrO+Vcmtl7NPu7bBBVK4/wsXj3kRza3fWS8jdBJbEVolsJBbCC7+FdxCbLBsC0ujXNq8KcVKVptIrZez3euxaOEQQ57jJrSjw2DZoLnnsUrD+lX8t8FzRYQwyq/j0J9tk4NkXCewVtd5KdtAKlOR+gl37SF1gtjcY8J83tNf0+v3uHW2ivPdnJfkpsJUhFGI6Tpub/31P11OP6waTzqjUYt1hQhvlaahIQJuRq/nahQ1a/D7oB0dGrWyjuQW+y7kBgYC47tu4hkkzMKbVWyn/s8zftyLf3pJbtZRkBEBdgy5SUfcmA986OOLB/2rt9+ouUmjC8KWzoOuWnzFd/3w4ld+37Qk1jqT3LqgWwm148jNlyn+yrc0Tc4zUsamOWkXPeTq5lqL6tf+j+R24z02DfXhjUAaCf/cf3zXcncmLaFFrEI55eLGD7m14vX0n/e23z5Cbvd88nWLe3zdNX3jC2GJ3Ky5RfNgzjW56RueRwY5ITcv8/ede6clt5bWcs3y6k5ufbdqu4fESTmjlaVceZbdvaHW+yxciM2zq21NHgbBI7m5pkFZ24ob6AfW7a19kRmbwF9/TDk2oR0dBpZk1Zo8d9igA2Sc8tOcQBrcxnDSJ9M8f+esm3sWSAw5yTdrcdwsvRuWFjgAAHFISURBVERrA/GED2hpndge8bIezmDHADvLPrvgfDfnJbkFHnbmh9drSk1IZppRQx1fuP5L3/j61W6w+Vrc2cSswe+DdnRsIrcj05Ltfo4jN1qpEWMVZuybOtoNRsQs7WBso791G33L89Z9B1xLZyVod9HcnP/8Lz68uP+/XE1LNsF3Wy9HRwi2NP7ud/3E4jf+6M97/lIRRxoRcFXIHUdu3nO77cMaGfRyNnz1cxdXNoJe31M/+VueR3LzhZM1yXlt4aEvXPz8f/zTVbzlM9pObm2kvSrZ835quaFkOZV7VX+xHLKTU13S3PoN9Rjnntwk7WzAM5Ib4dYJCrk9aDkoaEE3YiQ3a25e4kYavbyPurrf/2VX+a2+FmFVRoSUOo3GFnut8/F1AVD2fi7kVglOuWbk9kXfcn1/Obu+IsCeAXBQn9VJ0I4Oz8ZuZgRB5iBRZBL/GcShTUVzAnaDDn41rI816P8dTbapB+6eAzJSlwb+3F0b5GaqMekLY7AjDgjP3UfqQ27yOZDbWTKzB7YJRiTW4EJuIbhxc4iGlW37mzSWk2JsdLMGvw/asU7Xi+EhN7CZREfZh9wC05BdkLU4OtCmNcYmavuZvCU0aG7IzVrK7R/7qq1rbj0N8cRf1RHzwQ9/YnHp9zcNsJGbd9GQq3vo5Hbp1Yuv+hdvXfzhny2nhlvMHs+z6AKwpZdRfscO5Na/H+gZIbf7vaCTW097hZbDynomud32US/vH4bumhsyv/QFfVpy+SpBy9v/9q/WWYRud29/rXjdPPcnl2tu/Zl59kbxXQNueTWN8Ci5QUtPDjJh2vlckJtvls7IjRANuX3SFa/cSRgjh896ypLcnP/2d755lWZ7hm0Qc7sHPm9FbkyL5H8rpzpVnvrsev0298Aj517Lv45TtLaR3Gha43tuBHemJrnT4GbkPea1L9pxYhiUI5VObDZ7NCAibnXAru/q9yG/Kgc8h21AcElbPM8FeVneoeUlb3mSldI9TEueJTN7YJugY9kQMpIb7S0NASq5XSiaG9T33KBrTyvsS27Qp3DbKG/bzlDk1k6RQ2vNrb9npVPsQG7uQ/0wzlVzu/MVr1r8rf/jzYvbP7ql18jtNg/8/sXf/xc/ufjdP3l/E+w9Ro8jjZOQG+F81ytf26cB+7RnI4Yrrnp7D9k5pFlaDsvr9jeS23//rT+4+MJve9Pidg9r6YnfhLZpyR5hB3JrLmtyW78KsJqi63XpufU1qav7tORffODDLaQYy1g3F7kZcHQoX9PaaD+7bLIidHv/as9JXO8ufsrjX7m4/SNbmVt6l3yN9wz/bSvc6uE3g5h63bbnNmpu+VBztLfqB+7B9b7kdkn/4PrK3tw3DXLH57Uv2nFieJbrLforApqRG5iq7ETUQA5kmcVzOA5ZVwP5uZZHzRe4meHZZ2ryfDcXBLmZmiTYTTkeIbdGYAhP50xDMD9NW9EItpGbkSh/m01U6myu+zjMGvw+aMcaZ5vcTE1Yb9z2kujGNbf2bHedlpRO6omhuWXNTTre77Jpo6+/fe1V/R04o8OlWcbzLCLgqpA7jtwI/1v3nXrt+WgPX/P9yxG60KsoLYce0/+R3O7UtDa/rtCnJaXThHbfUNIJ5OP93qqQ7YJWWZsbPytuy9TLS9w2z7Q6s9vRe3T5Yn4nt9aOl/exjHVzkBu7j2izd3Lbs11VcluW0z02IJMHNs15tVtyVcxezq6ZtcgV/Vm29DKgSb3Hvx03htsyLanven/tQiM30EdpUOoAEA7ZNc4QubbOFsTfcxgxEhMZF1KUF3mQfLkjtRCrsLS6LAUdh/PdXBDkZi3JfLItvyG2fEtSpZkvro0hX+zYRm5GR4nv3TdhaTlgB9YuI9lZg98H7VjjbJPbLpitud3qfisthsAnwPr0XxMSO6y5Me993w2LB3zfTy7JraWx/O6gdJDbixb3f86/6b/q3GMgrxZXESLgqpA7jtxMSfbt8nY8tjL7tiGC6KFXUVrpltft78wNJU0oP3Q5glVGnd3rAiIoE2wnN7sfl6m/8G2/sbjV/RE6gU+oKpNnaJry6hunJXv45f3eHOTmVwrWn2tTL3u2qyPk9tBWDw9r536fVzdyf8HqVwH6nfUyQq/X9szyDNcodZ56D5R/bS/ktmwLS6M8yO0uj/O8LzxyA+tcNDGwGe7IRxY2wEA8G2PyUzVkFjmoLvPcpZUZHM9AvPixh/isu+kD4pshO5DbWTCzBzYDcrMmkG9MqlSVqEJVkK+HRFUHDV6FCm+UUhtGUMkt05ixS2/b566CWYPfB+1Y4+Ygt42vAiCihzXB0Ang6uX5GM0t5v0f/Njia5/ztk5ut3nMK5bflFyl4VcBvuK7f3Tx2//lAy0S1jqT3PZ5FaC/xL1ec3vJ4rYPeG7/QkYPvYrSWtDyuv2N5Na1U/fmXpFRq/sbpyWXJ2WrdZaycW8l7ekKedVP/9aS3DrZrgS+tJ2b242/CrBM9+YgN1OR1ts+40mr61OSm/cLb/eolVbe0vOeW58G1zBWRjnda54bhLTWpMbf8xj8E0d6Ibja1ppX13Ssr1Vyqzjfye0ksKsyWhdZSPZ5x80ntjx/z+iNv/T7XQ7SyBCcNX3uFT5RKJ4wztJCiGO4TTjfzc1KbruakJt3Mcwbx2hgKhaReUcpP00h7Gc+9fpeqSrbPDKS09HTMNmzu8mPA4qfH/ljt7to01SltKTJX9mS5kkQY7R01yuQmxH/S/rLv/3zRoQbIXS/5y6e+9Zf75sd/BEf4lchMLuuiF8wGlN6hB3CGDH7ReOW5BkwZdJ/eqOlQwDe9YpX9/NypH9Vr5M6EBkxTsmMUIYI1/Xa0Qry9PHhWUeEvNSc8DNBuKnOj0Nvh+65lCeQJ4IZ11LG8il7f/5N8xvhc2PuvYaf1fEI7TzC37m+A9brteW3rT5GdHJrbaHH7eR99bJ9aqf3W74KgKlTRqaSWzThoF6nXVb7CH7t6GD009pOof546bZf4pae9pb8xrLUcxANtLqdFO3YG6YV3bN6I6eCyC3yTjv/4me+qV+Tg9p08qw/3yOcvirul6y0Nu3lYjEXJLktp3duJDeV6CfaK3mpRGtx/HzdI2QVf2hHhxFLGkig8Wwa0WpACFWe8qhp7oN2rM0RcmsjfUKxT+kZFRMejdx8BcNw3FoPaqqdjH28jr26VYzmbJDbes3zQc9fk1olN1vI++h+EhfOJbn5BfPPeNr16/CV2GATuR1XJujk9uB2z6U8wflCbuP99npt+e1KbmYXjpLb1X0Q1kmu3aMNJX4VoAXt7TPljFaWdrfJPiL3UNGOnj4wpyE3aSVN55pnLUcltIQ9G2jHXtAO/5tvXH44mdZG/vhF7RCb6/+53Suicg00seTnR1jJNFOhrr1DrM3d/XEvXTzx5T/Xw/YvAl0k5oInNzAC8W5LJTfInHMnq0Zw1PDq3441+q8ItEazC7llTU/j+ZQrj5LqvogZNTcf3u2aG3Jr16Z8bFrQq5vIOBG5xT0YzdkgNwKwa24byA2kM4ur8+5Ebi1tJGmKrWpiyr6N3GjchGHCj8L+NORmIb6WBQlk48ZJyc1U5rkgt2hvvV5bfruSm+fX13BW5GY3bS+buqW5fc1zl+S2Kl9vI6YUm1VZZlqadGOPXw1Xw+a6HWty6+0h5VlhV3JLWkk3SH78oLrFPpbxJGjHztAGM4UISO7/+z0/viYxILcQ3FqGNZlXB/TkYcKqS8b05eNe+LY+E3WxmQuS3KyHMSqMKk1gbSKYVKiKVuHSiV871tAIekdpnT0dfibUaGpGS2kko8a4LyIEjpBbExZGxPd4wmuWQqNpcsjNdvNKbuLXTje7rohfMJq+Vkm4FkGxTUi0JM+Auupfv9hCbpvWQPYlNxsj+vtaK0JR9tOSm4HSmOcu5KZNRitEZu4RQsDnE7kFvV5Xbb0FPRamxCq52SyzJjfP7/7Lb0v60drQT8gtbU6Zahus1ynz6F7BvR0dTG8PA7nd+0nXrgluG7mpV+khqpBVzSdu8hrzdz4t2rETPHezHdnVqM60e7NT5BsspyuXu8QjlyqxkZMG4pFb6pyWBjQ47eRiMxcEub3rfcuvI9DO7Ozx9QGCmAZFgCAtU4u14VSoWJWt4hFTCK4da9A4NAaVvonYQEfROOR5WnJrx9qM05JrzY2wNO0zmZaURu1043Xs1b9iNGeD3Fqp1umcS3KTHuJAcPuQm3XWbeTmM29jnruQm51u63I0MlM2uOtly+vzidxi7/Xa8tuV3KCSm5f0P+mJr12SWxuE2fRizU24dnTTy9ku0gb51fY42nNd3Sva0dNO+r09DOT2yV93cZGbcpJhfUv/Vy6/H6ktj+lxS98jl6qfOuZObn3+M67vg7GLaQpyZi4IcjMNSejYJXT/5/14J7d7P/5lXRvLSATsnqwVWmGKUaWm4vfp0BUEc7RA0NnPOrmtpiXvcsU1yxHxitye95P/oRXCsSS3KgBq56vXI+IP1WjovWMMgiLYh9wybXuuyQ1pwJpUWp7HkZv4CR9hX4U+ITLmuQu5aV/9nlfkVsvmfBJyu9Njl+eQm+dWw9e63ISR3Njzu2W9Xlt++/SFL3rmjWRy60e/fHH3J7x2+bJ/S+/WX3tV/0IJbU1YRjn7rsgNRBF3iHvCjO655r9KfkpuFdvILWkl3aCWA6pb7LXcJ0U79sJTX/VLvY/S1FxLY9zQ1kmsEWBdLjEb8VVN0yMjDe6tr+kLF7u5IMiNscymIt/z0Q/1BdGvetYPd5KiyYVo0lFVHC1MI6gVH6EbUqStNee90MmtpSG+PB/0nJ86MbmBzs+syW21ldy05F2vfFUfESM328xDbi3WicgtfkE1BhB9I8hZILes3Z1rcgtxhKzkeRy5yTvhK7EBAnjGq36uT/HUPE9Cbskj17uQW9+o1NIIocEnP6FpIT4R1sjNQMo9JPxYnzNom/mlakBsnsFJyM1zqOTmNYf+qorBl/Qe8IL+/JfUA8t7zDtstVy5ru61ncY+gl87OhjTc7WdjthGbtJIesnTecwfkdW8E+a0aMeJYeMW7evbX/9LXdZFBhmcfVFrJ+oh+XzF9yx3V5JXNpuYZRD+YjcXDLmNBlGN5AZIhzs7Ta0Sj0/1hJRs/x+FzS4wrZW8jIJsnjgpubVjbWbTkn4qhWBEdsht3zW32KtbRTXved9ql+MFQm6+h7h+GTkk0vI8jtzqNOaM3GYf2D0Jufm+pxeme/3tSG5dc2skVskNoSE47qYpjbrzFYqxPmfQNk3D109U5dzr9RTkpnxdKzQgsxb0NXkVYBmeUU7vLtYy8QthsI/tc5tW1I5CnTf+nlttqxXbyE2e7km67KMWWc9BJbpdYW0sqLKiHSdG2ht55lzX1wJ5IT+vA0TuITebR/hd7OaCJDc/ZkpjQlCV3FRgkGsEVCtcIyDEkdQuQmsGQtIuI2m9/4ajDWof6PgMonrP+29Y3O3rCCDC8MULX5O/fX/JuAnLR718YVT8op/6tR64RW3maFq1w6WTcmunfg2i5Zp/Ne6JNnwuyM3mj3NBbvlA9K7kRiNT99vI7ZJLn3OGsN+lnVRyA+ttCG0fcvtnb3zH4k5XXHuE3IKQHoIzEBI+9X0c1G1fKzvL5Lb8bJn0ru7kdrsHvWilubV29/HlC/q9nC2uF7DTDvu0ZQulfQa1vMlP2LRh7gnruh3dmE4nC2q7teYW+zZySz6bIK+UoZYvZRzdZkAidQ3Q4CR+7Tgx7EFQd5Fzph5rvkD2RTZGTtp0khmti91ckOSmcmhMITeaGrKyqQTh6KwEaCqfQCPYUunsOrz6PSl09KR3GjD+G9X1kX4TYoTPpz3Zz77/8FKb83mo+z9/OS3ZAhMYPt2RjhdIT5Lszq5n/nGv5lyRG2I7F+TWiROh7UFuPlWUjR/i0TrgCLntIewrRnILqQW7kBuN0bMZiQ1OQ25wNsgNKrnd4bJrFn/lH72utc+rG9qA8oHPXX1+qwX0f3VfaWlcpdHL3s5jGWtbrRjDtNOa3JhHvXC1Vrlqq3d69PLc728DuSHFmu4MNe9KtPJ2jh954vmCduB9svj5MkjK4Xy3y17Ry6Oehd9HDonnm5CWZZCZF7XdN1TNzfKNWas62IelLLxxGeViNxckuWkQIbeMTGzx5q7SVJ7KRnbW13TeVGhFO06FMb19oZOnm/ZpSWtshNjDXrD4nNY4/+53/utG3E1QNnKjub3g7b/dP0e1/CbVmZ0+dh1x9EvHzLVzNTpoJbc7XXZt73zbdp1JYsSM3GhZldyka81gjLsvudl6T0jsSm5g23M0KgL+XJCbtA223Gclt/Gex7IZtPVNPSsiO5vk1knpLJPbPR5/7fJXHx7T7vmRVy9u94DvL+S2vCdaWl9za2SSdkiLq5/bCuK/Djf4B+3YSm67vOe2C7kFyqJdpl+1o4OdnFHX8oFPe9J1fS0scfn3cpTyJeyuz167odX31wC+9Fnr33PLQF7bS37akKnHbHqThzM3bUv/yCaUi91csORmzY3aTXMzKjGvnAoOaEN+vHN0DzQM6xH7jJ4qZmnuAx0/3dR3B/vuyJXm5kvn933qdUvBZmryfs/rvxnW+mQXGuKt02mXVRhUjc61cyW8uFdTyY1wIJg/7xt+4NTkBn7gsmpvyO4p1/ziGUR2HLnp5J0wTkFu1qsqufXnXDZc7CpwRmwit1zvQm7KZo2kkpvNJKclN/3gXJCbXzq4z9N8dLcJXRuf7vf8/hJ3pZ5+X4XclEe73/QtyYr4V7Sj48Yczh25yaOd1texcwf2fPxhnV+zV7IxqDYVabOQ9+/y7Doe8oL+8r90t8HGN3JKeO0KqXFPHkDrV480M2VAaOSizSTalHU28AWTaJcXu7lgyc3L1J/zVNN41/SKJORm2tkmeLVA5ds2a6PJSXZOztLdBzp+uqnf+rrblY3clKmvY7TzgwnGBtf3f37/8vyNvfpGoSCtnNvR7c4z9/g5V+OZ9pevW+ejtRFi606o0+5Bbtn1V8lt1N4ueehLz5imO47cvOqRX4Luaa9ILZCnvEMWMyCGSm7ZPdg3RiC3S5+3+Iev/aWt5ZhhJLclVuVakdvYxmblI6CkE3ILKrnlS/DqdRcQfPd56tHfPHO/vV5bXruS23pw0doCAlGWWz/Gs2zpIM37L38stt5PNDfndZmsvyG8VXusZa1oR8fMrR1rc67IrR1H7OO1c+p9nV+zV3KrQFCmJUNwphj3GVi7D4PQXCddBGlpRt719Sj2umNcPYfwuF/s5oIkN0ZF6Wgqy1mlq0AEN+5Kqu7sRjAaAlLMCMcUZvPaCzX9k0Dnj0Fud/+65bRk/30spPaQl974g6FNcDzvrTaU3BinCocqJKpbdY9GF79qPBPvD0ZwIbh02N5p9yA3g4U1Aa3gl5t9RDnkRpPbZ7eqsOIk/pTcHvz8YzW3kdwIfL/UbFo717Q5o91ZOTbhpiQ3bV3Y1Os2aPcGLePPwkCE8a7kRjibdtMWaCFf8b0/uvjCb31D39mb3ZKmJZVt8YkbXxC2vsYt6fSyt/NYVn6bMIZrx9qcS3KTT1Cv2YXx7MZ8uY1pBYhIGM/RoGM2iNJOgm2DLOmp3/HD74iOm3fdQm7qLjLPks6B3M5jQzU3h3znRy2/VZjG0+e/WyUSsHGLeyo+jQCMbkyjnWRqsqZ/EnQhsOou7/9g0dwe+bI+HXXHJsC7kERuD3jh4vlv+62WsbsX58YyOM9ILG78neMG3KoxzVtHlVVAwD7k5ll27a0QHOKkIYWgnPfRjoSt5GZA0zXN9nxCIHYo6sSe6ybMyO1eT72uv9+W69ve74V9KmlWjhnW97v6cLJdnMo3vgpwNsgNtI06It8Gwi+vAZyG3Dx/9W+zhrZgB+Bnff31y7Qf0QZhzf02D3je4vKrfrqHb0c37qlPQa52S/a217Q4zXjMQ5yK6u6ce4pbzOOu/rk1uWnDu5AbI51taMcaY97OcVMXBkfagLYQ901QJ9CsZ8Bz/rTHX7P+tWyDtVk4qGl6tw3BKYPyJA9++kT2J9iEor4N9C92c8GSm9GraaovaZVFyKlEXzBBXirZmbsRtcatYrkHndhah1DpdtC16HujNq6TYLnm1vCJj3Vyu8vlpsaQ2dWLO1/28sWnEo59itKo+LmL7/+p327xlvfPhKiklXM71uTlmkBhb0e355pfNZ7R7R6+JLYZ9iE356xFhNxMJ37GU65fExQ3BGBxe0xjhLoWVpyQm3TWvyi90tpoW5my24QZuRHQdtTmGhCeRfxZeUZ86+vfsSZYZ+k7x+1skFsFoqMBqMNdkF+qnpJbq1fTsMdp0fzrFnskYqah/3KF99w8uzYA855bC941s5g0WU7SYrixzlDzrW7uJW2bGxNicR/KhdjONrltcq/PWBvN7NGuaMcRIDb12n8d+yEvWP9mG8Iaw0JNC6naQTmWQVyyMLvKkSXFAPFd7OaCJTdGhVo7ywIrwRANLWRmowlhEUKrJEcA29m0TcBqMEb18pr57woN1xZejQ00wirUCN36Y6Xsn/nUVy8+/YmNrFdE7P5qHGmmEYfc6jUiq9djmJoWreqShzTh18g0uMNjXrG28yMkapya1ogI6cRHHnCfJ197Y5pNSKsvAqqmW2GTBZI5VuCvns+sLBU69ed90w8ciYs4aWr9ZeDiLty2gY/07Fz7tKdc1++lxq2IX6bFt6FPb37ls9ftAOoP1wbKnHa/CcjU7MYsPqRsRvaz+BXILZtbNkEdeI67mlk+4L48B+1i5h9oH8Kpp23P31Suco1t6ziQC4hfu5XPLMxpMN6P+pKPgVsGhRnIISXtu4afpVlBzkTeOevj0nj3X3yw+1/s5oImt1rRoANqHNHUaGUatYZRv4htBOM7bWP8EToX7e/WbWQqjeM6W4XFd+STa+SoLAQA6MC1IY7kdvdW3uPILQIxRFYJTJ65jlvCAv+a1rkmN6Nrz5JQTroEjzCEh/DguSB+gwprEgYW4owCa4R01P2sLCPkc++nXLsWiOzKBgRhTddzMQiStneW1KMyprzCbxOsIIz2NivLCAMg93scueW5WSsdNULtlAYgT+Fm8UHZ8txq/Bn0rU0vmAeeg+flHnYxNX33kWeqHj7766/rwnkbgWuDyMcXXFKGELByGHSkXDCbsibo5ekZBLnWXzvBtGdk1oH7GP80mN2T+02emaXoeNDze7swO6FfaIezNLlrrwaEnkFkHlmY55mwF7u5qMgNCEaNkDDV+eNOMGswXh/QIWqcEQSrRpL1O+QGRsHSn8WpEFdHUg6dlmDwfhVBfcmDX9jTkkdtlJXcCB7kBhFEyjF2LsKwklW9rvZcj+FrWmeb3AgHZa7xpXffp1+3uOfjl9pbBFIXPi0suzw8JwKOoIr7cUBQ9f2i49Dbw0BK3EZyA2UAwoWAULa4j2FHRODPyjADzVI9V3LbRnAGQLRH7Yng0vb6u3LiNf8xTkUvXwujrlrWW7GJ3EZtTnpIBcEqT+A6GN0J69SH+P28qht9sA4SK7TBTeTmGXjucQdpe7byzPPST9dkMqKRylqDatef+/XXH2n/p8XsnsA9KzvYZZxydJJr5YgmV2d/1Lv70T6F0VbJnr4vocmV/+6blr+GQg4lzsVuLjpyC4xm64i2d55W6Sq/hhuhwSCfkFAFNw1oFi8Qv5KYPCM8dKo7X/aqxec87bW9MaaRwUhuI6QzI7dMPUrfuRLaaaclEVEI7kSa25DeiCp4TgOC0LOdlWMT+v2uBOi5hDwIq1kZNsHn5Wx0GslN+xjbBdRwNfxx6OUr7XMbZuSGVAwqZtOVIahAXM9c+Fs99Hkd1X+MH8hD3rMyaYO000pux6HmGa0oBLYNwo3t/7SY3VOF2Z+ufU/KGAJLWl3bb24wlpO296jn/kSXXdX9YjcXJbkZ6Y2jvU5uq3dACJvqFyCckdA6QTWi6mgN5zhyk4ZR1Tpui0PQx19HTdlqQzsJuUkjAjFkFgI7G+R2j8tfcWJyAyPybQQ3Ez4nQeplVoZNiDCo6cyE9GkgfSPnWf7b4F7EnbUD2vynP/X6xac88dVT/32QMp6E3Ewbmh2h6Z7t5wbIR5uclSXQBvXlWfxdMBLGJiAX9zoOSE+L2T2NkKd+b8CcsoTsaGRB9hOQcWM/lQZNNR/cDi52c9GRm4rUWTVGgiXuITeYdRpTWp/+pNceISUkpVEYSWcaY9MUSYW0xO+E+JXP7nPgs3C1odnlt5Xcmrufg68djCBMWiO5xT6SWq7FqfnvQm7C1DhJcxMipGuaFaOw2VdIZgRu+mWW/zbYLKCNKN8s7YqTCG/l8vrDScoG4kULq9AWxinrkyLl9Bzk17LdikpuSM30YyU3fQwS5jRQLzaKzMoRaIO9X7d7mKUR0BZn5aoEFtjVK6xz3JTFjE9t+7sCoUhP3zGtSYuKX+6DhobANm3sMbAQhhwyQ6GulCfraZCNI/YWyA+kCeLUMgUXu7moyC2NRMXe+dLlu1Dx4xZyY6/xQMPy3bZoaBaTd1lfmyG7noy2pIuQZuHSyGhtwh9HbgSa9BKPEExaVTAittOSG1Ibye0ul1/bn0tGgDXPGewO7F8vb3FH4gSjf/kSkichNsJ2ny3xI7QVgm9GcIS2smkrJ9VMDGpm+e4Kg7PUfUXaBO3tOA2OP+1mRobKaPClTvWdluUU/Ajl8Tm4RkBx19+6RtzqZkSNdxyE99xtTJmVJ1i320n6tazqUlsby9+Ja5jyC7kd2bHY2oe6qP1lV5AhSQMMmOOX+9BObFjx7AyM6z1ugjjSi8YW0OJsHkF00jNwMcisZQoudnNRkZsRisaTytXw49c7nQa2gdw0AA2Bn4Y87kA7CY7T8tLI3vGH7+3b0AmcKrwqumBr5fd1gcRLOgRhCCzEFnsE5UhykHRgRm4hNghBcUPG4tS0tsG6QU/D8y95hNw2rdtsAmFmnQVxzvLbFQQPgusa3CAgK7lV912hHRrUzPLdFdozYqrEVmEzCaSNzNbkkJt7GP16Gq0++P387777SLscYdbC85jdZ19DW9nV4T71GIxxlOu4tXHQBpV/Rm5VowzGawTmyzkhMeB2RGtr5KcdeCWk9hfQD8wAjO4Va3JbTScqL9Lml/uw8c3A2uaRXcnNYDjyrKJqckCWHTS3C9CMFa4SdYoZuXE3qtEAEJ2wNS4gtF0bFyCvTFfO3pUznSAf/sKNGlwaWZ++0zBXQqcKoSDCyKeGEk8aVRODSm6VzCq5CceedHTSkdxGnIbcwPP33O/15OvW+VRBsysIMhrbaYkN2tGh7pTtJIJ5BNJFlvVnT04DQpXw6yT2sCbAtIMVENaM0EbUNhU7Ieue+zT3pC9VaJ99E8jkfk8Lz3zcEIKYNk3RVehbfdA6ITdtpNbnrG6jpYXIZtDnDIDSVwLPDcHYrem3HUf/INOSNb3susx92LZPc5sRunuUvzqo7taz/ayNtCvqD5Pq0+LmvbYRF7u5qMhNg/O1iPyWUTpv/I2mNa5U/qZdWDMIC1Wj0/Cy4WQ2janxf4rvRRphtTDjRpY0MsR3EnJrSXQBGOKaEViuqz1IOqb2KunMcFpyC+SVNEdhcxwioKRx0vwr2nEEtvjvs/NuBE30bJDuDO45hDZrH/vgjHY46UsV2ue5IrcRiIpAnpWjQl9M+DGNXVFJbBNoWzNy66SqXzewj/4V+suShJfaG9LhPruvCoNn5CkPWt0or8Z8wGCoam3W58aNJMHFbi66DSUIJ1qaCvZeW/y4ayipeG5GQEZF26YQEeTtH/3yvo0fmaXzibfegNLIq3ZK6WnE8Q9sWkleaWRdc2vlInhCbp3MRrQwdVqyJbEWTJW8Uoa4VVKr9qTD9M53E5AbqCOjTALmOOHEP2EI2eR9mvyDdhxB6kXb8Kx3LZuw4szyOJvwDhyN0EaVsY2EuCqqvzIi3pbMGW29HUeuR6R9ru/3HCDP0zTnLrMn6V8b62QntOeywozU3DNySHur2IfcYBZ+dl8jaLA0zJnfmEdg40k+jFD7y4iL3Vx05GaKSaUSnvmtN43JoriRj44KtCxaGHcYO3ygo427KGlk/NadHr7y2WvhESBFcfknPpLMCCyNzMjKPHyfN2/pmNYyApO+KQ+L+RqrfN1fDIGXvEZBGBKbkRs065FG7pl5r219P43IfCrLs6PVOdNOEdO+P7kyg2cjLfdGW1rnu4JpJdM1wngOiC3lDWbp7oN2TKFtyNczGcsFhCgyS7nSnmZ5nAt4dsmXIKPVdeGp/azKaBrTs607fU+6jqxviK8vEPb1vjM4rG67Qnjpec40FG7ubddyCltfqPcMpDXmswm1vNIxXWgNjj3tbmxzgbwTl30WpmIWPvfhfuU3zvzEb+YO0iA7aOJ/+Vve1Osn+YmzjdjgYjcXHbmBhkIQR3vT6TUA7vx1VloczNbKKrKLspJbtvYjRYQD3DTaMb7O2wVPi5c0RnILdEzp/LvfPfqJHGXUETVWJn4EXchqhuofwZjrmj8jbZ+Xyv2Aa9BpkK8OkzjJ/zSQhnsjIOXn/oEdufOr+Y2YpbkP2rEV2kmeRS2bs7Y0S/OmRDvWUD8pH6iz49r2vmhDqOH6dCbp6A+bBPg2aAPIInWjrW6agjsOBpQ0JEsX6nYWZh9Y51In6mLmD+6BfEGm5JMykFv1HpVl0/qjNPRbMs7ucLuzN62vzXCxm4uS3EI6diBe8tjlj5kiF43IKDfz2KYSZ4RUofNoeD18Azu3WdhN0MgzRUmjjJY4a3DAVDsz8yPgEFU2kQQhsxBZruMW+5hmztU9ZuafdE6KmtZJMEtzH7TjVJileVOiHTcpzhW5nRSzNnESGEghNlOR9T20kyDESK4gSjMulXD5m+FBxkirT4GSLatpUOfIF2HJLDs4Q+DkWgYC0kNuBvH/7TOWmvrv/PHuxHyxm4uS3IwEjVw1rGhvpifX0zbt3N0a2WgwIZtMv2SqBUly9z022hew17x2hSm2z/+G1/fRZdxmDQ6YamdmfhFwzsoOm4it2oMxzZyre8zMv6Z1EtS0ToJZmvugHafCLM2bEu24SXExkhty6MSyIhezObNwx4G8QJLikykGtMimam406b6pza8+tLxMgRr05tUDZQiRub/sEVgT4AperSGbkq59BV/1rB/uee6juV7s5qIkN9CQNBINhLbk9QAI2YXc6kYQDVTj6e7trGGO6e4L5aDtWWsbpxdmDQ6Yameqf4Cskla0tnpdyaySG3/2Mb0xn5hN/kn7pKhpnQSzNPdBO9bIAGcfzNK8KdGOs4460Bv9RlTjl633ATNLcxNm5Zm1iX2B3BBKCM604CzcDCESSw+deI4hSeSHzISpm0Syi5u7suRe455NLkF+IcAAXvmt/5It47LBcbjYzQVNbscZFY+wsh7GmBLQYLom184aZhqZda28JsBv3CAyYtZgRiBWaQJ79ZsJrLONkFqIrbojwGpPmHas/bYh4RN3THNEjSdcs67daxhnfkmrpp/rfv5YC/vxlkYD+3h9Q7PEPrp1rNLcBvkoS87cxvzHvKAda3t1q2GSPiS/3Gvc5FndkncPm3RW98OuHNVt9Es522VPo+ZVrzdhDDde13DjOaj3U1HDJFx1b9Z+vSn+iMSB6lbdEUl+83HT2tYmWOMiK+qAObJjkwZoID0ubTz+pT+7lkniZ00+mhu3vL8WyJObATu5YrnlPe/7UJdxB7M0FzW5MUaJFllj7PTL4nttYBDNrTZU63M1TMWs8Y7Q8KRpKsL7d9WvdsT8JPwMM7+4jQKguo1CwHV1G88JE/txqPHYj7uu+TenM8LUsKO7eO10xC+Cexu6EF/Zq/DvBLBKaxuSNyHI3pLr5ejuLY2afs0jJNLzmbh3DPkErlMP1X+0S7OmXzG6rfMs7tJpxxquA9fJr+Y7+le3Maxz6nt0d575VdTwx4WdIWETtzlNX3uwtmWQu89uUssLXQu7dPlVELKi9/MG2p+Bde3rAXcDbfak1UmsyQfTi8oS92989S/09Glp4vDrRLxaVgF5Kwet8H0fWmrEB7M0Fz25bTIaWRpRoHEbvWkwGqlGpdGM4YI0WES5aVogREp7tJZX/WYdcl/MhGDcqnv8qrtwzToNN4afIWmwO1d7TW9Ma5N7xeifso5xx3D1upYp7vFrxzrONrSjnxMvaXCvRNnJQvlW5FFJZCSV2Gvam55ZzjN7TXNMe2Zvpw7Xyt6S6Wklb/a41bxm6PkPYeIW96Q73luNM8MYjn3fNGBMo/q141QwZUh76rJiRXBmevTzXacHk9Y/fcP/3TeOmGaseTz9lUuNzgC5hkVwITdI3AO5HTW3GHIz8qG6v+Xf/+lak9NYaGuQzSOg4WpQWYvbBASZXZm+xi2e0dWsIc9QO9u5wigQ2rF2JzBcx17DuE4a25A4Mzfniuqf9NtxRjhuYzqzc+zHXY/uo6DcBuHbsYa4KTvCqARSMXNvx9q9a3Al/ZRxVrb4OUPNP2k5u45brqsdmnXtVvNMmtUt19U9WJehuI1hnduxtjuLl3MNH/+KhIVZmBp3hoRpx9qeNON+UpANZASCMwjeZ60uSFqWQ6rGFmS6kmYWN+RmBijExv6Prv+/e/yDOWpuMeRGa/qib7m+q/55ORi8WzIjMqOvcZpCeESY94c0So3PqC3aHoKbNeQZ0glhn2nJbWErqnAA18Ho7ixOztxqWpuQ+M3aUdOahYu/sNydXVfEL9cpS85juKQzXidszrFvKuOIWX7tuNFtIJORZALuncxW1+swqzJIN2mmbBXxc4aUa4xT3ep1dYt7O7rd2T05J1z8N5WlYpNfrtuxtjsnzePSTrzRfVP4GRLOlLL8mtO6/sD1aUCm6O9kx6x/kxNeojewnu1inKUZiEsjywxSBt/s3CqxkUnZpHMwN5pbDLmpfFoWggsZrUnp0qMvec+A6DSoEBjyM+UofkZRpyG3k0Knda4dPm7QjjXiFnfndjrDv9q3QX7yynoURJCkPMehplfBr526fdM54Wo69do5ZanPZF9sih/SmhFaCK/6jSTXkjiSvnNF/JLfzJ6wQXVL2LjJI/fRjnUY9hqm+h8HYYPRPfc03tssfHWvqP5JJ+5j2BFj/nGPvR1boS2PqP6zPh0gNNoc+UDzyjpbYO1/lmbQSazJJajTkuzSNFtEizPAPpi5uUWtuSEvG0Q0Np/mCimBBoPgagNDYKABIsaEc84OqZuC3E66oSQdO0iYuCcN1+7RdcK55nca1Pxct6PDdS3PpnjCKIdz4JpfL9/H2n1ugWf88Y+3tNrAxjU7sHOr6c6grEHKlvJwQ1Ahr3Y6Qmgf/kgra/Ng5wfVH3KfMN6/PGKP/8w+u47bDKPfpjibwtXnsylM3BN+5u7cjnXcYBY2qHnmvA3CO7fjSBrV/TQY+3MFbSpENJIbvypDLJeMaYuzidzskLQedyC27eYWt6FEI7P5IwQXhKRMU2pE/aXrpvZnt6R4wiAwML0pHbus4u6swe5KcLUjnguMAiAdvLq1Y+3GPrptQxUSERrs8atpJO8g8WKv7s78Ehfa5dp97bcisP4sC6HVa2RmSij2SnA1/Rlyfylbs67z7m4rbSxkVcmMXzBqbJ3Y2FsaySt51OfmLL/qNpYp7nHb9NzZ29GRcDVM7PxjFybpzZC49Tqo/mO4WZo1bpCw7O04EraWfxOSj/OYTuxgwFIR9+OQtrYJZIbZHYNq10jNzsjP6T9fdOPMEbljerGmjcRm5PaBjyw3mthJeTDbzS2O3BiNzk/jIDgkRcV31sg0NuSUd1/Y07DMrXth0hcC8gKlRss9C8ziSMc7MMd9LaB2xJOgdvDages1RCikozu3ID1cOnr8wDX/xNkFydO5pjfanRMeaItJo6Jl38MmXjs6jriFpFbE5eyZ08pce8Yhs66pFT8mmqq8pCdfwi35xS2obsKFqEJoUg1xOX/ohiYs20XCBNz4Jb2aj3Rzf/Ve4+869iNlWbk1p3WaNawwCTfGE0fY8Tp5J3zSi1vccx6RNHJd00nazvJNenEb41XEPX7tWIdnr3FqOEjaiXcajP05QGZIbdw16bq+u9bJq9lnn/TbRG7kjPDI7fBe23ZziyQ3RgO0dRcJITqkReuixWlQSC4Nq77oLd6mDx+n4WZENpKbXZohQtDY0+lOgm2dOPbRPWjH2j/n2vHjdhyES5zxGtrRr/mxxz3XEagV/JtX94t/4tUyMiGuSmYhvJBeMLpLu5YVahlkMbrlusdT/kJeSA2ipcVPuIoQnDSSR+6r5l3zrPnWcHFvp7Wbc/WvbqN70hr9uNdwwRi/oh39LMy2+GNeCR+3dpzhXxH3+NVr2JQ31DTacSrUvh0YOBsQGziTK6M/0jMjZDB9+VU/3X/CyvTimHbIjRwx0DaYNn1pSvIzm5yi6ZEfB7PZ3GLJjdE4NEaw88nuJCMqyHw4stIYx8YHY8M1lSmeBuk8jtyMzqQXWMcbO98+qB27dtpct1M/V8Exhq3uwm0TDJswxnHdTuu0a/7JG4SpcRMG4lfjQtxyPSJpb3KPXzumbpDwY7zRLZpaBVJzbsfaPgM/abVg6ynX3GtPe1WOmh8791zX5zC6A7cavyLxxuvj3Nux9o+9+sEsbtwqqnvV4LnXe4t79Yd2HAkXJEwNW+NDns8IAx7ywCAW6Wx6sdtuRuGEca4yAHHp30ip+kUGGATXHZAzhNzIIIQWTc+Z5mZwbFB3MJvNLZrcamPSiDUYjU4D8tHlbLs1Cqthg9poA2mIIw27pXSC+OkIiC8N1Xren39gt239M4wddkQL0s86cnV3HaHgekxvdN+GpN2sR/KJn3PcoGpq8UtaQTvOcAtq3KAda3vKUP3jPvrFbeZeyxnEvx3LZ4ug3PeKrI4Q18q/uo3XLch6SnTMe7x2di18O3V7yug6biln3Gr5QTpJq4atYeLHPeHZgV/iVwifsEmjBT9S3hkSFoR1PaKGh+pe/Wu54t6OI/nnmn/sFWZp9Hf9VB8dpwsDfdsAVl9HROnjwlu3Fz99PT9DYwBdSctgGvnN0leGyB6yKGmJb1As3sFsNwdyW8FUox8GjfZmdJUGhuRmjTANuqKSGyC0+EVz6x2nnY3y0unOBdqxPsdeBcN4PdoTZhMSPmFH4VLTaMc6TOyb0I4jaVfEv56rX64jaOMWtKOfK4FwC+I2usPoZ0dkSCvExS3k1U5rMmM/47olMisrN+nHnjCxJ//kK61aBtfN2hG36p8wyaentUq7gjblOTl/6MM3rNcoublOmVLOhM29SHfTPeQ6qOFC2gG/im3uzu04I0zyiTu7cCN6/23kE3KaTRlCnTYM6aSfW44Qz/Qkf5oXZDaoQrxKoO6dxiceDZA8+qpn/1S/DrGZERL2YLabA7mtYIpAw0FoGp1NJkgtDVLD0vCAxmWqEgGmQQc+vxNyy8gvft5tcW3+XLh3/OF7153vpBg7cb2e+UVw5DodPmGCCJxtiIAQP2nVa2HiHnvcZ/lWf+UkQIMIWn7tWIeRjjP/hMl10nIWLuUA9oSPP3vNK/FrnKQNH/xwO68IzhoaO9gsEndEUtflYueX9FMWZ24pD792rJ+pMCEVfkkfkjeM+QVxEw+SbvKt95jr+AeuA2URVrjEzbOp7jWtuOW6ndbXNU51T35B3OMn31xXO7TjSFozvwoyYD0A/cpnHyGeCppb7+OrsOw2mtUfCxUXqQmzxkprA/EAoda0IztMP1qTQ3YjscHBbDcHcltBQ0RWdXTFDmm82Uhi2uGSv/E9fWSVhhzQ8DR8jXMktwo7LWcdbh+kY1ehs8u1c42f64oaZxta0H5OeuMZpFWvk351H90iyHMeBak4IReCG6G4BnYgwJss7wJ95ia9WgZ2boG8uaXc7CnPBz/04TWZSKvalYddfnGriJ80W9Y9/5qnc8pVy8YvZepxVvnUvMbzCPl7BiBvacvPOeVwf7nvFqSHS97CcHNOWRMXkl7qC6SV9CpyH8CetCDuSbOi+kHSaceRNGGMU9Npl2cA0ejrBrZe9dm0Lqaf5wslCIyM8PttldwMZn2bFikZzErbFCOSi4xhD7lZGiGDuEsPodk4Ir7NJJXY4GC2mwO5rRqVBqYx3eGxr1s3vEBDQ3IJLyyCm+2GAutsOodGn3dcZqidsCIdRz46xyxMsKnz5lpnh9qZa9j4xS2ogmYThKtpj345Q/yFZ08eCRc/4BYBC4Soa+eE7YKzSWjCugr5XBPuEeTOEfbN2iFMLRvUsgACy3OIf8oE0oaad9J3Lc+UsSLlcz89nZZ+7rOTZjvLj7v83XvIImWGpOOce0seyd+5hmtHD+csz9xz7inPOuVqQXtZuClb3Gq8+oyAW+qr3mPKzV4hDvfETdj4J14Qd2GVpYar53Y6Ei/uCdOOM6C/Iin9rsXumIUDfVhft7yAlPTbsY+PkD45Ew3O2bZ+n+nyxRFkZ8c2eePbksLLyzMe8z+Y7eYWTW5pcLQoZGJUdbcrrl3c6bGv6LjdI1/ScauHvqhf1/UzqA0tWh0YYWXNLo1zHxit9YbfGjpiNY05a9xjx705UIUIYQNxj9DLdc4RYKPAd45ApoHF3XXsuRYuEPYDH7phLbgTPkic+HOLlsetHT2M6/d/cKmRcYfYxRFXOHklTYjdGdqxjlPDKCu3+CVeDVfLJT9uuUfhE7/n1Z4veK7t6OfA880z5ydcyIAbO+IRhl+IvJJbJblKVDX90T3pipu0k3fiOZ8NtONUqH35JJiluQvIB8saGTibdoQMphFbyPJgTm4O5LaCERhNSaPKx5Q/7QlLogvJ3fsp1x3RxGqDFTeLz8jo1g99YYcphU3biTdBGY5MXaymN8dwsw5/U6IKrXac4R9EoLVjHY4bgR3hHeHO3gV3AfcQQAQ9O+HfvNd+7JD0nIPEqeSQcMmjnoURNqQibPzZ+bMHyYedXzvWaXATd8y7lingB816hNwSjps0epqr55/nW6+h+uUM3CspISJxk4Zzy6b7AbeEH/NMXjXt+LfLaZiEq9cnQTt6eZw3YZt/7f/bYINIUN1nae6DuuRR4f03mtzBnM4cyK2ABodE3vrrf9rnuE0LfN7XX9enCaLB1akHDVTnQYZ3v+JVizs/9uWLT3nCa7v99o+8enHrR768u33+17+2k9zYuAOEidByPSO32a6tWYe/KdGOfia4RoGXMBFsQXWPIK/CPxiFfjt6GIRAc+LPHoJAADWNZj3DnjTbccQt4Ba7tHLNnjzZnaUhz5oev5SBm7PrEFnCxV06rhMm4XIv/HPNLp7wiZPnmXPIx3W77Ocgz109CYPQgJvrIG6pz7gnHfaQYtySJvdKlNCOfk7YXIuTMCdFOzbCYNOHGfTN8dNWQe37m+DVAGnc5hEv6Rs8qt8szV3hGYXcsuxhQO3TWmTF4esjpzcHchtQR2kaNqIxVRntDdl5ZUBYjdR0JBKLpgZ9OrFeP+i5vdGODRxoeaYkNO4vfuYb1ut/rqUTkptNb846/E2NdkwFV4RX/ECHrkKNwI4Aj6AnwGEU6s3rCDlEyLNzd074nAEJ8Ie41TRyFidncbi3y3X6KWNIR1jn+DuLW+8l7q65s4uf9EEewsa9+omXPLhLv96b5w15nuPz9cxdx73aEZEw7ehoR7/mF7ekWcksaaROa17ck774zhVj+NhPinZsBELSbxAHUoq7TSKwy/oYWKpAbJc85EX9jICiwdX8ZjAbJDywj/4hty9u/V55rdPbpEbmmLo8mNOZA7ltgQbpE11+JifkhmyMrPinkXYyahqarcOf+ZTXrnc4WSiOu8Y7m54UrpNha+TOFpVpj9YAdcLssprFnXX4mxIRUBFezdoRd/YaPgKOO4QIIsAJ+QjySiYR9vzbaU0a/IRJvCr4kwa3xIuf6wp+IR/+zWlNptycpSPN5Jmw8ZeO64RzHbfEceYvDsgz4UA68RO++nETN+m79gzzXOvZM06dVHIKhOGeczut7QmTNGp8bhX8nMUPXCde0hrjyutsoB0bYcCo34H1LeXRH5EH6KPjNGMFP+Hvcvm1a2KD+z79ur4LUpgxTzsryQx9V/rZGQneV9OPhVEWBBby9R6bWSIk50eP+R3W205vDuS2BdHeNDyjqpCbRsq/NmykhMCQocbLjVang2jYiGo2epOWNDMFqeP5/twYboZZh785UAWY6yrAqlAb3SthVCEeEogfQZ9pQf7CsYNwiRf/hImbNNhDDgkTd8hGkqQhfsrhupYnbsoUEnYd/xoum0/acSSd0Q4Jk/jsKRMkvHA9bHvm2lolL8/V2fQg90wTjnXAj93ZtTixJ83ErWmn7rizQzvOsCfs6F7TOS3asREhF/i263+hk0ofQF66/Fixvlq37Y+wRFE1Nud7Pfm6dd+H5GXgaXelPPV3JJXBavo1u77NP7siQ240S2VMfOR4mJY8vTmQ2zEwgooWZoOJdTeN0OgtjVtHj31fRHOrnYDbLOyIWYe/OdCOdXkILogQq/aEjxthDSNBRKhH84o9fu1Yh+Vf7SEBZ+G4swf8An7xTxlGf+7Sdz3m6cw/JOe65hO7OI2LehzXNa/EhxqnRTlynymn66RTScjzdO3Zxr0/45Wf+kl9JIzzSH7CCZ/0nLnHLeESNvUpv6QTt9S3cJB41W8X6IOm5cF0XdzbsTMMNEMm+piXo2f9PUButLZobMjN9GINk7Sth6+Js4H9OKS/A6JFaO7tQGpnzxzI7RhkQdnoygK19Tedw9RBGrdOp2Pneh8YCdbGrnNwm4WtkF8VADcHCCkCL9cRgM26vnbOtXMVbgQ4RIAT2BH8Ab92rMMiAEAG/Nkj/CHhoB3rtHPtnLxCJq6Fq37Jl517PSsj/5qes/DgOuVLeP4JO8ZnFy5582eXFv+kK1zAXxtAKiGynGs9hLxq/YA6aN7Leih1knB5NYA97sIkftJsx7p+67UwyrOu61Xcms8ukEb6hX5nFiTfY23HzkBu3juVlv5mNmbW3wOD1y9uGljIDciBGiZpI7f0320wVUp7q/2dG03usMZ29s2B3I6BhmtO3CsBRm4hN52jdp5tQFaIcZNGZhpSmqChb/oqwohRENwciPAjtNqp26tQrMIsQjFuVViHCAht14Q6OwJyHSLoQr1BWFOJIcOQXgjLWfiklXzYIWG5taNDWkkv4aAda3JJvFynzM6Jxy9uKS93YBc/7imDc8LH7pyw7ejpOgvPLc8zzxfasX6+/EJ48Y9b4gkP4gTcE8c5cB3/xKlhuCVM/E4LZc3Giwwq49eOvaBfBe5/1t8rLEuY1rzn46/tMzejf02bdqmMykdmSJ+bXdcGv1mSsDzhPhCbXdhkCq3t8IX/s28O5LYDbPAwass7b6YmkdyM4Gh6Guy3veFX1m52Sno14NOf8KqeTg0fiAe7EhtUIbANOpkywRe30SgynYU7CarQa6cj70cF/PlF6EEXrs0t5BKhHcJwTbCPWkyEf0go/vxci9+sa7eES9r8YCSNGifXwnOD6iaus7CBMCm3sPzl7Zx0xEuZQdiajnjAnvSAPf7Cc+tprYhrRiTc+HnO7J4/xH10g9STszCVGKt/ELca37nG2QZhjoMyhNhsDjFIjJ9Bo7a873ukwayvj9B3kBVyGv3G9MgJGlh18/zrNX9ygyaqL2bn5sGcfXMgtx2R6UkE13/QtHU2H1euDVdH02D5ed8tXy0xv69j5tUAjXv2Uva+qEJgG5S9C4fV1I7RZV27OA0IqXZaX8c+Ci/XEXrQ7S0soR3h78ytEkHcR+EegZ+47O3opGFK0HVIpKbFXTqu2XMtbs0v+UjrfR9oI/3mLgx36cEYtl5DCKxZu3/CAHvSYRdO+gkrX+Fq2aWZuM4hCQIUPNMI0zzzPO+4JUxFNDnhhYPUV00D6vXML/Hq9SbUuNtgNgMJgH7zZ+/9YO9DNnl9cetvNJ8WbC8gLGkYeIL+MOv32zBLdxcgs2wcYT9obefGHMhtD5hioP1Ee2NPg9XpdDTkYfs/PwKDnxGmF7m970aDE8bagWlKae66O3LETBBUEALS1okzz4/gkLTyzuLsg3Z0tKNfRxjGPYhAHYUeQU6oI4EqvLkR4PwJfNf8Eh7izo1f3ENGlThCCBXVL+nELenx4/YX7/9gd29OR9wTnx1qPPbcFzdhnWtZ2cUTppYlZWjWdRhuziFs16mHkFSQ5x7/2D3z1AVCs66WNbmqBSa8c+L0+lqlUe3O1b36nyvoT/pQNDqk15x3Bk0PofVXBVp8MHU46/MjTFXaGakM+q7zW97xR9N8NsHzXn678mDOpTmQ2x7QAYwivfeG3L64kZmG+s53vbe/39Y7XNPMEJmRYW3QSIY2179ckpe7V5qUReVxOmMXzDp+RSfVZ1zf88gCNoFg1Ljvj6SalnH/RprArRVhDQKtCkeIkIu7cK49sy5kmyRvsrsL8Jy70BZfmu1fdXcO4g4J5yxNqGG4xy/2EAQkfEgk14GwIa+gpsU+u67pSSP+LXo/Syf3FeJKmYRpQdZ+FUkzzzx1BO3o7sHoV1H9x/C5Dsa63RSuusd+NqHtISbtOOSmnTevNYTRVjdNV/oCkQ1idZs/opr1+cDuSWnStnqclm8w/lK/9p21veoOrdv1NL6iDX4PGtu5NQdy2xM6jvU0XypBaLQvWhptLV8qQXpjowadw7qbsEiuEo7zPuttMOv8FaYfK7GZxjGV6qsos/CbgKjzQqqySqcSnHOEX+JUYccPmrW76fzcCXNCugp758A1v/jDaG+ndRgg+BGAdGfp5RyCgBBG3JQLEp6760osiXeEbFZpJx439qTJ3o6O+AnnOuGlFfeUI3nEHXpaq2fruea5s6cuKuI/Qw3Tjn5OnY1xEzbuNVwNOyvDiITdBzRMZFb7TiU3fYi7geNIehV9Y8eK3EJW+vKsz0N+pzHhIfnUGRwwkNX3kHB11/+53/1hL108+ZW/cCC3c2wO5HYCaKRe1qYB6UDsRoIhON+W5EeIp2ELhwyddUANf/2JLRpcg63KRoFGlrVTjDAilY5txaYYkc9MEIzkJjxiMo0yC78JmdYMLmmdkyCwptiKsya4dvRzFVxVmI0CM0I/gr4KedchDXbn2GETqUCuhWmnjvgJH6JIesrATbx2rN1dAzv/5FfzrGVwdh3SSxpxc25O3T1xINfCpCzc6rNJWu209huf8UgozevINWiT0Zxdp05yLY40XccO1V18YWvem+zbINxJYLqd9qMdG2Q1pw79Up8K6WQtLf4V+k8lK3Zus/6uL1dS6+EbMaZv6Wc17WiW/MzKZDlD/9YHhddnD+bcmgO5nRC+bqDjIKosTiO1Sx56TSeQd77nhnVjR378aHUZ5Znms+5ls4ez71WG5HQIHWSc2gy6Bljel5GmDjQKAZ2yp1kIDpRnDLsND3rOTy03xBRyM/L9r+9+Ty9PO9aIoOROgLFzdx2huravBHaEN7RjbecXge4cQmhH90cCIYDEq6QxImkmbkgkZCQuhGDY6zn2EBckbHM+kkfiCGsdMHnETZgWtId3rnklzeSTcDWOMJ6l+sk5z9vZ8611kLpMHSR83NnH62pPutUtcN2OHmaW9rlANsE06xr6kfaujWvz+tDsq0BgcFbJDWz5H7U3fVD/EjYQDhHKDyrBQgaV6S8GrH4n0qe17PbU14U7mHNrbtHkdlqTDlB/D05D1oBrB3G9XrxunU/46h/oMP1blDpGI8IxnaB34rL7Uvhx9AjCSVMn73lDi+ea9jcTGjNI43O+/vU3ptHAjZ8+CuxV4BE8VcDFvV7HflKMAjfgVoXsJthMESEpvPMI/jVMrtmRTICUQnyB9/CyuQUxAdIKXIe0kkb1h03p9/jtHlIudvdb7fxid652fuynQTvOK/R+sWqf+pE2OgsHwpr1ELYvJzSwZ6khfQ05mpXhbr3dwPC49TlTjvqlXdWQ2Rx9lLaZ/n8w59YcyO0UpjZomhwtTIdCdDqPhqwj6ES0OWSlgeeDrRp5CMg8PTcdSEeyNkfzqnkERop2WwqnE+nI23aM0S69iO6VhHzAdR9ys/lEHHGlgcRpj81rSm7sEbLCOLtOetV+GtT8Zu7Nus4/frlWhpSxXsct6VTyyHmdxoqYZuQUIqJhhdxCUAmTcPzizy3klfBBiC3XyqhMMxKrqO6j/TRox3kF/ULbBJ/IGzWqEfoerSyDxOxktiGs9jdtf9N6HPKzhi2vuOm3+iQgNX1Z3ycP0vfhYM6tOZDbKUwa6QgNWIf4nxuh3fnSqxaf8sTr+/UYTmPPlIcOkBGdjrSpM1UgNKS5z1dNKmYCax+0JNbEVokBYucXt2Zd+9V0Toqku8k9xFTdct2OI3FqGH65r7ixc09Y/iG3dloT1IzwEBI7wuLOrZNe+a6jNJUtmmG0Q/65D26x1zg1DWDnXq9n9tOiHRc09CGk1AlutRlMX/ziZ77hjL42g36ORJGYZQm7prnr61/1rB9eEy2yqxpbcDDn1hzI7RSmNtQKjT4vfff5/0uf3zW2Mdx6bn6lfRlJjmG2YdZh98FMYO2DlsSaBEZEiDqPwvVsCdikNUsfIvSb8xF/18pdSWKMzy5c3HIdkunuhcCc27EGvxBZNDdoR/fvcUr+0nauqATVjl5m50BcYcb7YAfhc139nON3GrTjgkbtS1WDY69+m5D+q++KY0clAgMzG/ozVK2u4mDOrTmQ2ynMrMFCyM1cfRa3x/Uz/usOtZrz10l0ihquwoufRpXSdT3rsPtgJrD2RQRphKYzYYtYqv8YPtdnA0lzTLsd/TwSAHvVghJ+TId/NKi4CdeSXabTWApJ1enFkBs/1/Fnz5SjDSaQPIJalp5+yRea05F6iz97DRf/lLO6xR6/06AdFxRoVHWGo/YthGSKEUYNawYD1/Rd/VafHKcdj8PBnFtzILdTmFmDDYzWjOw+/8pX9mmJP/2LGxt9Xy976vV9k0Z2UeokvmCyjdz67scWRmdi10Hlw470TIHs87WTmcDaFxGW7VinGSEbv9j5O49C/LRI+kHcW3brPOOW65E4KhLOubrVMIC4KrmF0JyhrpEhPHbTkcBNHsqBQEOiNW/nMc/qjxDrtfhjGpB4o/20aMdO+Nnfftfie9/ya4vrfv6dR9xpNTY3GeQF2nMN4x4RCT9tfN+vkUCmHq1R065CcLM+NoMlAtP/yuq6E9tqGjPkxs2A9UBu5485kNspzKzBBhq5jSWIJ9MS3Fz37fSXPr93CgQHvaM0GF1u6iB91+WXPqvHs86mgyJDHTfTm+wEQu3cmzATWPuiCl2oApZ7O/Vz3BIm9rOBlCGI+1gWyHU7joSPPdf8qzt7c1qnyX/U3Cq5ua7kxj3Exk2Yj3+8uX+0+d9wQ4d6/9jHWvlWUOfOwgTxY6/3MpZ1vN5kPw3acSwQ2ld+708s7vPU6xZ/49t/cPFNr/nFtZ/1qmziMGhzRng1fv8dtoRZzYBU/10gzcTXv+I+9i/QZ+2IzLXwSNEuY/2UG6JDasplN6T+aMB6ILfzyxzI7RRm1mAr/CaUXZTelaFRGXUitrxvhoyM+Lp7s+ssyElnFF9HsdvSdCQSE054BJmXU+161LF0XGnogCE358z9p0NXzATWvhiFpjyd2+URAVrD5Tr200JaIZ1teYzXylrjOI+o6QbrsGXaMQRGQ0Nc3Ni5hfS4sXMH5AbIajxD2lHC5TpEp1y5l5StWdfXqYvqX/0S96Rox7G433N+YnGbR71icZuHvWhxq69+Xj/ns1hZs9LuQ2DHkZuNG9V/F+grSFE/qS9153mCfPUv2iGyyg7I/u5qIzZu0dz0R5/S09+QnDD8pHEgt/PHHMjtFGbWYGfQaT5z9ZtUITbQYYwSdQiklk6cX/rWidKpjRZDekE6qfA6mDRMu8RdeFOV3GdfapgJrJMigjNEUAmhOU/tYxr7oh1H0oOarzDVPl7HvgkIQPoQImQXlz0kVkkt5IXsqltILnb+6j3Ehaxyru4hvNhDes7K2MvRMN5P7jeIW55PK9oZYfZFO47Ft7zulxf3fOJ1ndTu8KiXLL7gGdetnyuiorFlYEdDMhir8YVFOJnCR4imFU+yO3hE+pG+0bWz1s86Ya1gdsRaGiJDXnUtDlnqv8jNTmf9+EBu55c5kNspzKzBzkD70kFNYay1tkZ0CMu0hzBGib2ztE7lHHuf22/Q8cbXA2YdtmLcjZmf4AlmAmsfVEFaBex4noHfadGOI0JauqOgr36z6xlqmHZa2+O+RvNDVEGIK4hWxy5sJ7RmSbzUY0grJAbVfSNW5aj33E5n3EfFTU1uSIj2Rmv7K//wdYuf/g9/vPYzEMu7moirDiZmyCYtYc1eHBf+OHjGtd+lr6U8BpipoxmUQZ8WFvltWy+f4WDOrTmQ2ynMrMHOoAMZ2dGikBz4gLFOATr4Fz3zTZ3sgKZlNIiYjGjT4XTsvOwNsw5b0dfoVuQmnXNBbiOpQTuOhKl+4/Vp0LI5Q0iPeVX77LoifpvCxG19zysSi0YWxH30r9fOLYl1ms6ucz/Jk1vs3Gt4Z+GFgZQL4jbGSxh+cT8p2rETTEP+5z//4BnaFnLiZofiLpoYAgkJISR9Z9T0KmiG2r2p/Jm/uNIRpvezlrb+og8et2OSlvYl3/Pji7s/9urez6zV7aO1wcGcW3Mgt1OYWYOdQaPXgXUIU420NdApPuWKppU9dElgfQTZzojQWh1NLZ1Zp0N6Rq9Jd9ZhK0y3mLJEpqZGR/+ZwNoHVVhWgVv9navQHcMfh7zojtiBHcHza7ewFu4JL91cs8sP2GfXkLgjapyES/xubySVtbaQVogr7u1Yh2un7pa1t6SZfJp1nUf84lZRy9JOa4zxoF6zp+yunUFbRACerfM7/nD5iw/HoR03KdaDtdVgz5Qm7S9reIG1NfeC/IRBXNxGTU9/zGfx9D19hZs18tp/s1sSWcaNnZsyzV7Q3gUHc27NgdxOYWYN9jjoBIHRns9Z0dI6ia1GjgSMUeV6Qbu5mWJEbOIYweqIu0zLGBHrfLOR8Uxg7YsIz9kZmnXtFvfRbRsIFvffd9OtdtQRLAYLLZmt5JbrMf/j8m7HuozO3GZxEBWSQlohriCENrrF3uPUtFblSj7t6PYQ1uhfz9pB0kk8iH1ML9eJ09e+POMGbVD78nzjDwZKBkjaYF5ib8fid//sg/18U8DMRy8jclsRnCn/+CtztLvcSzQy0Ifq7IXw1tVAO+ttauiv692SLT2/4xjis+FE3q5PQmxwMOfWHMjtFGbWYPeBUSLBYrFcB6JhGWHqxDqpOX3urtOBjFQv+dvf0wX9OGLdF1V4nQbtWAvRCOOqRQD7eB37NoTcqkBbT8+qg4YaflMeu+TfjiNwD878pvezIqmRyKKlhcycZ3ZphGwASYWoklf173k2NOsR/1mcMVz8kx6/uNe1WWTg24oGVvEn9LVF2s2XfMebOhkQ+i96628uvv6a/2vxin/7zjPaIhLxGsCv/9G7dxqEBdumJ+Wpr6SsBn7KGf9oYiGzINOO4il78hj74ww9v9bX5KUfvv7n5j+LcxIczLk1B3I7hZk12H1AQNPSdCCjYqPB+LnOFmSj5rib1tTREOFMaHCrHX4bIrxOgwjPXc6j2y4g0DL67gKqCRpCxoi5eR8hN+lGeMeefNnHa/G3IaQB7GPaSKodncwy1QghOn4Qd/YQnDDOsw0nruM+Q9JRjpSvHet7A9fxq8gzaN5rN7MA2hloWwZYldw6aawIBaJF2wGZLf5e1G5B1/it//IX/f02L2/vqt1p58jH7MSmgZs+ooymBJW7kqEyGwzqTwjaWdjeflaDI/ehTQmfPrUN+pl7lp+y1b54WhzMuTUHcjuFmTXYfWDqUUcmPEY/HbALlNYhCZ3ZTqx06oAANlWiM0tz9B8R4XVSEJJV4OfcTusw8a+YuW0CgUVr8BxCcp4Nv3Z0yDOI8AZhqn28FncbhHNOvKSR6xDRSDrVvRJdyCvh2nFGeH7xj7vzLM1aPud6PSLln5EbIA1T5AijuoOBhOfu+WuLztDfX1u9w/bvfv/dPe9AW3zJ23+nk94uMwzCSLuTZ2v3tMlZuOMg39il2dtOS7OSm9kA/mN/msHa3X/79cvdmbN+ehoczLk1B3K7mY33mkbzvg99tG8qMfKMQEduo0knDuruLyNWdp1yDHcuUIXK2Ya07bYDWkDyascahDZUt01+sY/57IuRBG5qREjuu0svaEkcATIYd9SC522tzWyCwUZebUEUt334VX32YabRpFzaoHA0wjEMiGv38G0f+dIO6dqoMQtb4Rn8vX/+o4u7XHZNB/v4jDKtfZuHv3iNe3zda3r6iPxTn/DqxWc85foO9uBzv/76ReuGi/e870Md+uTBXFjmQG7nmTH1YbSI2PpI1oizkZvOSAhU0/ruEaynj1ZxwAuohE/dLYY45QGzXWTBrtObNxfacYS8ZgRW/Ue/mhbB/qjnv23xt/7ZmxfP+dHf3Lr2E4yC9KbGTODvg5bEXsgzQYC0ORuVkJ52solgTb2HCO/46Jf2KeWEtX6cdnjJQ6/qYYDWtm36T37a7d/5rh9d3OHRL1tc8uAXdLB/9b9863rDCyBihDYSHDJEYvL91CteuviMJ7xyccdHtjIoRwOStR6O2A7mwjQHcjvPjNHxlzzzTZ3Y8ku+eVFUh7bmFm0vQicgcGhtfU2EoMi5AdFleqhvqV5tgfbz+pXcaH8I1mhbfjo4t/ifT2jHEfKaEVj1H/2SDm3wcVf9TBdo1o+M4m2WqHnNUInm5sBM8APhT2NRh7STTcTTkjgVZmmO0NaQGs3tkgc/v7c5L0crYye13k6f3599ystvllaQQdwaK3KL3Y/r5hnlWUj3r//jN3YCDMEhs7/5j1+/3rz1v/z/3rLWHv/aN79+8Y9a2x8HlAdz4ZgDuZ1nRme0pkTbQmiZXgSdl0ZH87JWh+gqMemIOqrRMVhDIUBob3UDSnbHIbY7POYVPc+k0df6HvKipaBYnRHcLppMhfBG9ueSGNtxhLxmBFb9R7+kY10IqUWwsSO7mtcMlWhuDswEPxgg3fWyV/a6Qyqb1opaEmuor2hh1X0bZmmOUJbPeFLTkFpZkJy2x107vesVS80pmtIYdxOU0cCLlhZ82T9/ayen+/+rt0+fFdDi7vO013WCu9eTXtPD60PaqIEhgjMd2YmtkSG3g7lwzYHczkODpJAMUglRITs7wbIGF61M52z9diMIApqY9OKm43bNcEVuBFC0uvUaRfML7vv0647EPw5IVJrSVu5zRXDtOEJeI0b/eu2cdGxXN0V1sZBbBi+IDaGo09m7WC2JDtOM6uuznnZ9j7vrQGZMbxO0t0xJxq1PVa40NuT2WU959bGfuxoxPo93/N6frAlaH6rTkwFCQ3AIUZuOMf3oGunqL9I4mAvbHMjtPDUWsJGCUbcRpN1shASysM257v7SGVu/3Qs6ckjsXk++bk1A3b1pbCE2diS7z4i+aoZJw33Mwp4G7TiCkFhFdY894WtadvvRJCJsn/Cy/+uI/wyj4LypMRP4oL5MASI3Gpy2M5uabEl0zMgwg51tSDraxr7EtF5nazANrN3Nwm3D+Dz0k7qmZnaj+iM8Wpmpy/s+7TV9BqQa7/MhyAOxXRzmQG7nubG+ljU2nY6g+rY3/EoXDsjNehwtzFdOTD8ivl00pUpuQDDETx78wPs9rmvc4zCSG9zz8dd2YTMLvw9oWX4TDPn8yL//4zVRQUisorrHnvBj2tmNCbsI9yo4bw7MBD4YSCA4AyHPfNuam3r3UnzIELmZvtu0yahCO/ukr3t1BxKVJ7dZXiO0K+u+2rE4KaMyG2SAqccxXsX4PNwL4kJuztp4/Ghx9/2GH1yuubU+c8+vu6YPCg/m4jUHcrvADKJDcqaRCKXPecqrOrFZm0MopixN+RynafUvnTThgnhoVpXcCDbrZXa6cd9F0FX0DSsDuZmiJDRn4feBHY0Rfv/DM9+8+Cdv+OUjhBUiC6pbwgReMLY70nmW13GognUTbG4wdZxvYxKoNIhZ2H1A69AG1PMo9BGFPPhtIjZoyXQgkWwwQnDixm8bsrFDHOSIsNTxLK8R4ho0jWRIi5Nm1uHqVOaI8Zloq9HcpEEDjR9yMx15nydd07U3bVT+B3PxmgO5XaCG4DIyNVWpoxoB5/UB6wbvfNeS3ITTycd1FO40rJCb6+o/AtFJV37HkZ11j64NEFItbSCI992UMoMFf2tifUrrEa9c/G/P/okjxBUiq4RW7cH3/chv9nW27I70u2Oz/LahCtZN8Fw7eXgWDbQcz6Lu6NsXNj5YH7NRI0J6JvyPQ0uqw0BGvSJeZYv7cejkZgfkahek9uR+Z3ntCuTYtbrVlCVkF6Vz4Hp8LvKO5vY//pM3drKr/jRLcQ0MtOfDNv+L2xzI7QI2ps6MfGlhRriEAg0u61tG4AQOt9m6XBcGjXgQHH9rDmMYMLXVNwCsNL1ZmBHKYIqJYBeHQNllqu841C37n/L4Vy9e9rbfPEJcIbJKaNUefM7TlySZNTbYt3xVcI4gWAlQwhQJmbYz5YcI/tI3XN+ft+c/i1uhDqUD7D//u+9ea0ogTQQ3I4oZ1DECQYjyb1mcGH65AmFoewYz6nyWpzYqzzf+0u/vRH4GUchS3fT6WQ0MjuBBz19vGIkWqI3lhW7t3uDvje/4L93PgCv37BmIezAXtzmQ2wVsCBjaEMHR1+AeuvxRUgJHJ870IHfrc4RMBJMdcjQ6xNO1txYOSca/goDuYRoRml6UDkE7+5rFDHe5/NpOjJvS3we+WYjg7vjYVy6+/Fk/cYSwoBJbCK3ag//pO36kE1oE6N/49h/ce/p1JKIKxF4JCKF1cnv4kuCQnec6i1uBBIVFkIQ+IpFOCI4GR6jPSGIGGk+fgmxxtZNNA5pt0Oa0L21g27RnkGlP5ZbncXG0yz49Weqnk9zq+pOueGUfyCm7QQQtTfuNxvY3/8lb+ldIMkUJX/Zdb+nlrc/2YC5ucyC3C9hE2Bih+jkOC+VIzOsC1uEIgPXrA3ZXNpIjDBKnC4RCbtyS5ogefqXlJfwuU1gIsJPbMemfBO04A5XYQmjVHnzDq39x/YUK626z9I9DFZQjuqaL3JDZAMSElDy/WdyKbemEoGYEMUM2+tT4aQ/7IOkgKyS+jayUDzm7Z2Df5Sdi0j5HcvM8Mg0rjPfVKomdgdYnaHLKMb4acDAXtzmQ2wVsImyMoo3IkVkIDpHZPQmV3IQVx+iY8KhkxS1pzmCkLH4Pv9Li5Plt12/+fiVtyJSV1w3Oxm7JinacgUpi28jtPR9Yfq/SzsiTrgVWQTnCc+nC+dFLwY5Icg4pzeKNWJNbA2LIupa6oIns81tiZ4PcaGEhKvER3LYyIKD+LFpY2qfrWbgRaZ8hNVOa8jEVGjL1fL7wm9+4uMfDX9Y3ifgCiffYgJ0bTc59m5Ycn+3BXNzmQG4XsNE/A1OFNIGsvdHYkIrpSmtuiA3JcdfRCcZMW4K4m9ac+NU1uy5wG7klrusafoTXAExJbpr28y1H2hP8g+e8befpwXbshBm5wSzNfTAKywo7JGlnpuNsIkHs1s1s3gAENYs3oj9r04gNyAGptZw7KhnsAtOgSCnTo+xZnx1BO9JGRvd+T6t6d1/a0iyvimyoka/2WP08C27abdUAkZh2h9hAWWo88HyU37NGmkG9NmWvjKPWBgdzcZsDuV3ARv+sIAB0doIUEIpPcCE305QETBb+hUeIND7YRCgEBHK6x+WvWGt20rbOY0qKYBJmjAcEsXUimh7hJX5d9wvu95yfWNzq73zveoPHWBbX3m2zoxHY/RBm89oZNzW5EaaeE0LxfGZhdgHhbGBBO375236jZfyRNUZhfxw8ewOarnVtIDdh5KdekRJiqP7uJW2GPWlra+53NkUpj+yelac2EW1PGohbvY8aoAFAJ9JGbsrtuvrX52T36SbMiA0O5uI2B3K7gI3+uQ0EE6FikwltDhkRELOwASIh4Agqo2rTidHS7vPka4+EJbSqcDTaN2rOiJ9f1zpW8ZFc1QADv/uVLf4juZky/N9/8Je7X3DJ33tOf9+teR/Br/7huxfX/MzvLF73S/9p8bZfP/qC9wy1DCNMVyLQYEb+o7B033/23g+e4T7C8/WcsotvFmYXVEG/KzqZIAxTne1c60/5+9Qlv5U/ktvUZpKme6CVaWO005pfIB9aaCfWlm4GOtkZaYPQGEe+2myfmmxhMr2obXp2eX7CzZ7PcTiYi9scyO0iNjq/Ee9f/+bX9h1muxhCyJoFYQLW7JCjaU0/MVJNFRRGyF1wfemz+iie26/+wZ/1qTTTV1njIcwSpx1rKCsBZ62kEom0lIOACyLoRmHYp1mR6YNf0DcaHLcrT/rI8zf+858v/uOfvr8j+b7gJ35znZb8CO34BUnHp6f409L+xZt/radT86mgnXiO/fk+5IWLz3jya/vvhu1raMXySdm3rXtVIH87Cb3Q7Bmpo/j1wUgrV92QkZ+RqWlUyP+2j7i634u4f+9Zb9343BMWPvXxr1rc5XHLHzoFdv4zc48rr12Hg0subQOcFb7gqa9YfN+b37H4o3e/fxX6YA5maQ7kdpGbd/7JeztBIIPZD6OOJiP7vgElaMSG8H7xd/9sFWppQlJg6seGB3GlUf1ogAiOkCRM496OY9HL89BhS3jLY7ZLkFuEsx1yxwl8ZemEuHrxl8AnYOX74rf9zjot8PziFyQdpJafUnH2rISteQXyS1hC/q6Xv2rrD2FuqrO//y9+bF02ZGWa8DgyPw7ILWkGeWdsFt49/p3veMvijo95+Zq04Mu+50c3hv/cp792HT6/5H2HR72k4//zf/zrHqYaz+Z/+Ec/0Mnv//VtP9TtneTEfeRrehyEfXgh+2BGcyC3W4AhIMbOT5BZj7PBBHzdBJEQkoT6eoflitxob4RcNZXAwJQcLWK2xmFkTburbu3YCaaefDW+by5oZcvU5ig85R2Ci/aGaMSv4QhQ7gR3iCagWdpY4+XwpOOMwKRfy5X0PLOaDgITtuZZwyIjaRLy3tmbERi+I8hpOAjQOmM1hHovW4P0aJqz/PYBcnzzO/5Tv4d+7w3btDbwLBFVwtPcqj/y027Uv2fiXnr4pumtSWoFBHbPJ163uM9TjyIa3v/7n/7rft/3feq1nej+7nf/2OL7f+TXziDEgzkY5kBut1BjGs1Hli956DWdvPyEjg8yE0B9l9pKWOWndaKNVBOS4o5AYCSwbWhHJ9ldtuILZzu46cvs6qxCNFB+4azLdCHdhL/1rfgT4H/vn9/4C87ChJhcIzGCWJle83PvXPzgLy3hHsd1t6RpZ19fO2rxTavScOOHLDw7Al7ev//uD/fnZF3wp//DH/f1opkxIEEAWWP0oehqxJOusiuzMiTP00LbcO/gvmdhKtyP6Vja7hgeOUebQ3wI3X3d/9lv7QRFY4sW1t9Ja0R2nycuwX7Jw5r/yk94gwNETltTPvV9MAczMwdyu4Wad/zOnywef9VPdoLrvyhwxfLLJlm7IERoSNwIURsARoNo+BvdCxMhTtjSAuvmimiFSCpu0rf+JA6/CmkgCSQyA6KpQnSGaCDKVbU390Jr6+TdCClnbohslt8MNS9C3f0QuNWd0LcOiYTGadLjzLPe8uud1Gg7n/X01/eNNRCDOKO5JE2kmecH43MFxFDLcTaw6Sdv5PWF3/T6TmhIDkxNei40r2ht1tXu+4wf6Fpvysn+V7/xusW9nnht1+AMILQfsxDIf9t07sEczIHcbqHmQx9a/vIybQ1BITrb+wnKaggQa1PCZgdlDFJbbrpY7a4ru+xsJEEiSAwJ9vW45mcq1Gjb1GWmGadohKA8I6EQbjRLYJ8JVKAlZX1Lel7mrZsnCH6kR4sD90Kg7qJF0hwRCyJEZgYENe+KaG6e8bgmtovx/JGcjSddi2sk8ap/+7vdvaYVuOc6rTgD7XIW9zhoA+7Xc9/n99vcu3wRG83NYIYbMqO5mX5Vbm1RHtqHdsiOBIVVN2/99T89ENrB7GwO5HYLN4QIEPzbBAetBJFZi6vanS3gdkk615eDI0SRG6LjlnCEFXdfkPANQbsk64YR4OYdr0oqIM0I6S/4htd14WlKLgJx1I6QVoR9wgdj2ruCRplpTOl6DjXdXTEaGont+EE1CA25IQjnn/3td03TRAbuU/k2gbYsbJ4bHLf5BplZw3S/vt1II9t1h6aBRDaR0EKRm7N1NMSmbSFM5RhN6hV22RB1MAcTcyC3gznWED6mLW0usbHE7ktEiKD6bsZGaEjn/v/q7X1XZCe3pqXRloQBAjGCkSbHDVEA4VeJDSERavGvMDXltQZfhZencIR1NDTEOQrXaA7KU91n6e8CgriSxaZ8j8NoTEGGwAj/Oti4+u03khtsIjewJjX75iIypqV6ZnXt0YYUpDhLK0Bkpm1rWn/tW964VWutUCYER0ML0ZmKRHSe58EczNk2B3I7mGMN4YNU+k/0P/aaTnCmjEJcBJyNJDQtgjO7JrknjKk5X8ZHhnFrR4dpPuGDbVODwtqUIRzNg9AlnKsQJ7SrYBXGyH8UxLP0d4HngdCqoH/yK3/hSNq7YDR2TmbqEQFUcrOBxIvr/LdpbkDLcq/1mQbZeOKZ9AHBSvtUv4mvnvnV9UPh6zMGZTRdGnzS41/bN4rUDTWB529DSXZL2iBiHY3Wq1wHczBn2xzI7WCONaaDCHQaVie4h17dtSYalnUQRPVl//ytXStDYvVdNkB6vklIo5NG3NtxKkRwRqOI9qZsVbBuwizNwIYVa2qIkpCvOyXZTcshBnlGQI/pi++5je7BaJCXnZHIzc7AOkusDhDca3/+DxYvfOtv9SnMWZr7wAAlryV4x0990oI9S260v7r5pIY/glbeAOH9zWe+sRMZZJekVwIQYHY+gjU3swIGKwdzMGfbHMjtYHY2v/wHf94FOYIzTXnXR1/VBeL3vPk3mqBffiGesCMgCS2bPhAbsul+LQztDcHxR4K0NFv1uUl7hDRmXwcB2oR4aw1kpYUQyjSFKshnmKUZyNPalTSRtvTGMO7BdNuoEdrBqFyIHsbdiUiPpvTyt//W6skuzRv/3R/099nsiERixxk7I6VjC35Nfx8om/rJs3OuAwV1rbw1vHtLHTpnmjHnSnbA7a6PuXrxSZe/vL8agOT++re8vk/l2nBzWEs7mHNhDuR2MHsZQh7hEKrWT2g2BDgCQGrR0AhGZ4KzrsN1dCH6/L7eQkD62ZLuNsNDlwQ6EgvYjSkMYZwXtpVBurSMKsSDSkRJB8ES4MgiGhptrWspK6FPA0v4oKYbZPqul30Vl1ZUw9gxajcoQW968aTGc7nkbz2r33tNH9QTIkJ87kW5xjCBulyXd0RzH9cqRyA494LcwNRjxf/yvy9/dgaZgfwMADzTw+7HgzlX5kBuB7O3MQVHeBJOXg+wjuYMBJ3Rvt8x69+TbEA6CAzxIbrsrLR5pL8OMHxeq8LGEemFdBARyLOutdHytr3IbAOF8gqn7O5BmkD76sK9ARGEvBAe4kDQM81tlo/1LuWl+aRsCLeG6WTSiAMReNfrpJqLZy2fcY1RWZHJmrDaedv0KMJRTiQ84p5fd00vv0GB6UOEaeAwvgrgnkxBfvWzltOQOUvb117kr1wVB43tYM6lOZDbwZzY1HW1wGaCEJx1FeSGyLjzJxizPofwZoRWgfjuesWru5Bs0TtRhgwJZMKdECYsq7Ad0T/A3AS98JlyI6gJXfFDRNwJY3kdh1k+AW1HWso7apGuudsGfxqDsGfvm3lW8s49wTZyU18w84O8+gB5dvIYw6kD+VSYet6kNR7MwZxLcyC3gzmxGYktINBoSAR43nH71f98487J99/wicV/ee9HOmn5qRtnApN9tsuPG3SNcEV4IbfgOHLzQnh/4bzl09HsNLZWnE42NS3aGk3E9vj7Pu01XZDTWoQN6vTmCGW2Xmejy2yLPVISf/nDo0eNacrxO5IxfiLGepWvlZjuM406pg2mi90jInI/7DNyQzq0MvdrmnD0B2XlZ2BQn5G0aWezOLviYA7mXJoDuR3MiU0ltBHIxtQhjYAWQ7jGz2sDfnwTQSE2YRCMOM17Cu/G1SnMbg9RNSA+GiFhPdNCEI5pU+kAe75RiYCq0M65f6JrJdRtphFWOsLLz3SgdS/nCqQuvulM2uFYlmA0XtRGXDQ6350czS/93n9dvyoANE5a5piu6dmsoym7MowaHtJSTv7CCV/9QX1wR37Z4eiZ9GfU7KZVN5HiLjiYgzmX5kBuB3POzLve99EuIK1d0VRi2BHQFzzjuv5dwce+5BcXL/uZdy6+70d+s3+CCWw0CWiBvghv6zj41qCvw8cPpEcI08gIYEL3OEPDpJXVL3ogs6/+3h/v8fvGjyb4//q3vmFNvNb7rMtFO+qwrhXErUHa7jUEDVm3UuZ6jwjzC//hG3r5rXMpWyUC+d//OctPawGCkYe1tRouYeXtt/j82OfoD8iNhujjxF6m9okvmzu8LJ5vWPqFdF/p9yURYdTXP/jeH1n8rX/25v6Omh8y/e52H4e1s4M5H82B3A7mJjeEIU0oBOcnTBDWXS59UUcnh9WPUd7hYc9bu9NoAlOKo0EYIShAItXIl4Zo+zlN8sv+zx/v4UIYIQ3+IbK/850/3Mk5G1oC18imazFDfHH+l3/2pp5XjQNIbPqu2AqIeaZ5cuNf8/IpNCTrXpQx9+XX1/0qtvvP/YIwiC9pMn/7O5dkFUJDWp47DRGpIT8DCkT3HW/+1f66gvfsvuV1v9wHANI7mIM5H82B3A7mZjM2KtDWHnPVzy7+t+/7yf4DnP/TP/2hxT2vXP7cCRL78u/+192dpsbNh3YRIW1n1BgIcOEi/BEXgU4j8dIz/7h3MhmIDf7mt7+pa2amLD/wweM/oozIkk6IbRbOdCbisYaXsDVf14CgK6lZF7OdX7kSLlODf/mbru8k5osxfpooP13k3qLRyRcJhjy/6tk/1acoaZDvfM8N/cVx5OWZI7P8cCgYeCA1pFd/nsfzZK/a+MEczPlmDuR2MDe7IYB//nff3YU/bcM6D+FMM/AyddxpL6YnTZHRLnzFoxpaRN8C38iG8LfNPq8LhDwqoWwDAlGOGVFVKFM0MQQ0C6P80pS/KVDh1utYq/yQHiKuxAbCVvI0Rapcpk5NOyK09Y/KNiAyPz6L9Jz9nFH1Txjn/NzMbR/12sVdnviKxd/49h/sWhz4FNhzf/TXFz/2K398xkecD+ZgLgRzILeDOS8MLQxoBUgKaFvtcg1+1pJocNngUAku05IhAhofkopbgIhoZ6YdaR+m7pDGGE5cZGT6UtgZcdHUEj7kM05hIjcEdZ8nLaccbQLJRo1KuIh5XGvr5NbKy19eeZfPtCdiWxNVexbO+VX1u1+xJDVnv9lHu8szE4fbf/+tP9iB1Hy02XrbW9pgAn7h994z3c15MAdzoZgDuR3MBWVoN9aZ/h/f+AOdHEIYtLw+dfnoRhQrIX75VT+91Koe2giO24qAshZXCQjBIYyRcBIHySCpGgdonX1qckVAwo5hTL/eq7kLJ43suKSt1bzY67SkKUlkiRhBfO79RfFvXZKb+0JiNDSw3vaXv+VNaxKzoUSaX/GsH+/a3Bc9802Lr3n2j/dpXZ//Ars0vYJg8FBxMAdzIZsDuR3MBWVocwjCOhRSI7gRmw0mrr/8X/xkX6uj0fGzlodEsk7lHIN4pCUcIIy/9g+v74SC5OxajOaHvGhw8soOR3YaII0r4UJQQPuUR76C4r0019byXHdtsZCuPLJWBn5poH6FRZmQInJWFmRFA/viZy6nKt2/+HYx0uAQm7DKYXpXeUE5EGwlsgOXHczFZg7kdjAXpDGFSWgT0vWaZkegAzvyQiSmM01TWrOjpXFHTNau7vDAF3SN7x6XvazvgERMIQr+SAV5dQ2qEVBHs4cskRS47iS1Coec5GOqMVpcyM7mluy2BCQnnnJGa4ufPID9npe9uBN77jHELg/3zy2vFiC0+kkyaXpezq4P5mAuZnMgt4O5RZisrQHSsgvzy77zTYu/93/+cNeCkBgyQnhIIhAeUfD30nQIp8L7aaYMpWNqM+7RuLgh2kpwyoOYKil+wdOW7+chHu+h9Q9Tr8qXMiLdkFUQsqrXo9sMB3MwF7M5kNvB3CKNqTjaTrQ4oNVUAqrgj+RoW//jt7+hExYgG4RoXU16SAx5IjvTmre54jVd86Nd1fRMTdKshJUO4qKRIb2QD3JN2UD61f+0OJiDuZjNgdwO5hZrKtnsAjsmkQwCA6Tmuu6kNOWYMJk6BG41LaBdcTdF6bztVw3OBQ7mYC5mcyC3g7nFmpFsdgUCA9qX88w/fhVjOARj+hFG4rkpcDAHczGbA7kdzC3WjGRzU2NGODclDuZgLmZzILeDucWaGeHclJgRzk2JgzmYi9kcyO1gbrFmRjg3JWaEc1PiYA7mYjYHcjuYW6yZEc5NiRnh3JQ4mIO5mM2B3A7mYA7mYA7mojMHcjuYgzmYgzmYi84cyO1gDuZgDuZgLjpzILeDOZiDOZiDuejMgdwO5mAO5mAO5qIzB3I7mIM5mIM5mIvOHMjtYA7mYA7mYC46cyC3gzmYgzmYg7nozIHcDuZgDuZgDuYiM4vF/x/m+/N4wMIc3wAAAABJRU5ErkJggg==;" vertex="1" parent="1">
          <mxGeometry x="795.37" y="554.4" width="172.27" height="155" as="geometry" />
        </mxCell>
        <mxCell id="9LpieoBSz1Jyjha2kcl3-8" value="" style="image;aspect=fixed;perimeter=ellipsePerimeter;html=1;align=center;shadow=0;dashed=0;spacingTop=3;image=img/lib/active_directory/database_cube.svg;" vertex="1" parent="1">
          <mxGeometry x="856.5" y="421" width="54" height="60" as="geometry" />
        </mxCell>
        <mxCell id="9LpieoBSz1Jyjha2kcl3-9" value="" style="points=[[0.35,0,0],[0.98,0.51,0],[1,0.71,0],[0.67,1,0],[0,0.795,0],[0,0.65,0]];verticalLabelPosition=bottom;sketch=0;html=1;verticalAlign=top;aspect=fixed;align=center;pointerEvents=1;shape=mxgraph.cisco19.user;fillColor=#005073;strokeColor=none;" vertex="1" parent="1">
          <mxGeometry x="1223" y="620" width="50" height="50" as="geometry" />
        </mxCell>
        <mxCell id="9LpieoBSz1Jyjha2kcl3-10" value="向量数据库" style="text;html=1;align=center;verticalAlign=middle;resizable=0;points=[];autosize=1;strokeColor=none;fillColor=none;" vertex="1" parent="1">
          <mxGeometry x="842.5" y="470" width="80" height="30" as="geometry" />
        </mxCell>
        <mxCell id="9LpieoBSz1Jyjha2kcl3-11" value="" style="edgeStyle=none;orthogonalLoop=1;jettySize=auto;html=1;rounded=0;exitX=0.5;exitY=0;exitDx=0;exitDy=0;" edge="1" parent="1" source="9LpieoBSz1Jyjha2kcl3-7" target="9LpieoBSz1Jyjha2kcl3-10">
          <mxGeometry width="100" relative="1" as="geometry">
            <mxPoint x="1072" y="480" as="sourcePoint" />
            <mxPoint x="1172" y="480" as="targetPoint" />
            <Array as="points" />
          </mxGeometry>
        </mxCell>
        <mxCell id="9LpieoBSz1Jyjha2kcl3-12" value="嵌入" style="text;html=1;align=center;verticalAlign=middle;resizable=0;points=[];autosize=1;strokeColor=none;fillColor=none;" vertex="1" parent="1">
          <mxGeometry x="842.5" y="510" width="50" height="30" as="geometry" />
        </mxCell>
        <mxCell id="9LpieoBSz1Jyjha2kcl3-13" value="" style="edgeStyle=none;orthogonalLoop=1;jettySize=auto;html=1;rounded=0;" edge="1" parent="1">
          <mxGeometry width="100" relative="1" as="geometry">
            <mxPoint x="282" y="455.7" as="sourcePoint" />
            <mxPoint x="382" y="455.7" as="targetPoint" />
            <Array as="points" />
          </mxGeometry>
        </mxCell>
        <mxCell id="9LpieoBSz1Jyjha2kcl3-14" value="视频" style="text;html=1;align=center;verticalAlign=middle;resizable=0;points=[];autosize=1;strokeColor=none;fillColor=none;" vertex="1" parent="1">
          <mxGeometry x="214" y="481.4" width="50" height="30" as="geometry" />
        </mxCell>
        <mxCell id="9LpieoBSz1Jyjha2kcl3-15" value="音频" style="text;html=1;align=center;verticalAlign=middle;resizable=0;points=[];autosize=1;strokeColor=none;fillColor=none;" vertex="1" parent="1">
          <mxGeometry x="403" y="481.4" width="50" height="30" as="geometry" />
        </mxCell>
        <mxCell id="9LpieoBSz1Jyjha2kcl3-16" value="文档" style="text;html=1;align=center;verticalAlign=middle;resizable=0;points=[];autosize=1;strokeColor=none;fillColor=none;" vertex="1" parent="1">
          <mxGeometry x="210" y="781" width="50" height="30" as="geometry" />
        </mxCell>
        <mxCell id="9LpieoBSz1Jyjha2kcl3-17" value="PDF" style="text;html=1;align=center;verticalAlign=middle;resizable=0;points=[];autosize=1;strokeColor=none;fillColor=none;" vertex="1" parent="1">
          <mxGeometry x="402" y="781" width="50" height="30" as="geometry" />
        </mxCell>
        <mxCell id="9LpieoBSz1Jyjha2kcl3-18" value="" style="edgeStyle=none;orthogonalLoop=1;jettySize=auto;html=1;rounded=0;" edge="1" parent="1">
          <mxGeometry width="100" relative="1" as="geometry">
            <mxPoint x="282" y="769" as="sourcePoint" />
            <mxPoint x="382" y="769" as="targetPoint" />
            <Array as="points" />
          </mxGeometry>
        </mxCell>
        <mxCell id="9LpieoBSz1Jyjha2kcl3-19" value="" style="edgeStyle=none;orthogonalLoop=1;jettySize=auto;html=1;rounded=0;" edge="1" parent="1">
          <mxGeometry width="100" relative="1" as="geometry">
            <mxPoint x="462" y="460" as="sourcePoint" />
            <mxPoint x="562" y="620" as="targetPoint" />
            <Array as="points" />
          </mxGeometry>
        </mxCell>
        <mxCell id="9LpieoBSz1Jyjha2kcl3-20" value="" style="edgeStyle=none;orthogonalLoop=1;jettySize=auto;html=1;rounded=0;" edge="1" parent="1">
          <mxGeometry width="100" relative="1" as="geometry">
            <mxPoint x="462" y="770" as="sourcePoint" />
            <mxPoint x="562" y="620" as="targetPoint" />
            <Array as="points" />
          </mxGeometry>
        </mxCell>
        <mxCell id="9LpieoBSz1Jyjha2kcl3-21" value="" style="edgeStyle=none;orthogonalLoop=1;jettySize=auto;html=1;rounded=0;" edge="1" parent="1">
          <mxGeometry width="100" relative="1" as="geometry">
            <mxPoint x="652" y="621.4" as="sourcePoint" />
            <mxPoint x="768" y="621" as="targetPoint" />
            <Array as="points" />
          </mxGeometry>
        </mxCell>
        <mxCell id="9LpieoBSz1Jyjha2kcl3-22" value="纯文本+json" style="text;html=1;align=center;verticalAlign=middle;resizable=0;points=[];autosize=1;strokeColor=none;fillColor=none;" vertex="1" parent="1">
          <mxGeometry x="545.8" y="656.9" width="90" height="30" as="geometry" />
        </mxCell>
        <mxCell id="9LpieoBSz1Jyjha2kcl3-23" value="" style="sketch=0;pointerEvents=1;shadow=0;dashed=0;html=1;strokeColor=none;fillColor=#505050;labelPosition=center;verticalLabelPosition=bottom;verticalAlign=top;outlineConnect=0;align=center;shape=mxgraph.office.devices.hard_disk;" vertex="1" parent="1">
          <mxGeometry x="861.5" y="759" width="40" height="54" as="geometry" />
        </mxCell>
        <mxCell id="9LpieoBSz1Jyjha2kcl3-24" value="硬盘" style="text;html=1;align=center;verticalAlign=middle;resizable=0;points=[];autosize=1;strokeColor=none;fillColor=none;" vertex="1" parent="1">
          <mxGeometry x="856.5" y="810" width="50" height="30" as="geometry" />
        </mxCell>
        <mxCell id="9LpieoBSz1Jyjha2kcl3-25" value="" style="edgeStyle=none;orthogonalLoop=1;jettySize=auto;html=1;rounded=0;exitX=0.5;exitY=1;exitDx=0;exitDy=0;" edge="1" parent="1" source="9LpieoBSz1Jyjha2kcl3-7" target="9LpieoBSz1Jyjha2kcl3-23">
          <mxGeometry width="100" relative="1" as="geometry">
            <mxPoint x="1032" y="730" as="sourcePoint" />
            <mxPoint x="1132" y="730" as="targetPoint" />
            <Array as="points" />
          </mxGeometry>
        </mxCell>
        <mxCell id="9LpieoBSz1Jyjha2kcl3-26" value="元信息" style="text;html=1;align=center;verticalAlign=middle;resizable=0;points=[];autosize=1;strokeColor=none;fillColor=none;" vertex="1" parent="1">
          <mxGeometry x="832.5" y="718" width="60" height="30" as="geometry" />
        </mxCell>
        <mxCell id="9LpieoBSz1Jyjha2kcl3-27" value="" style="edgeStyle=none;orthogonalLoop=1;jettySize=auto;html=1;rounded=0;" edge="1" parent="1">
          <mxGeometry width="100" relative="1" as="geometry">
            <mxPoint x="1172" y="620" as="sourcePoint" />
            <mxPoint x="992" y="620" as="targetPoint" />
            <Array as="points" />
          </mxGeometry>
        </mxCell>
        <mxCell id="9LpieoBSz1Jyjha2kcl3-28" value="查询" style="text;html=1;align=center;verticalAlign=middle;resizable=0;points=[];autosize=1;strokeColor=none;fillColor=none;" vertex="1" parent="1">
          <mxGeometry x="1067" y="590" width="50" height="30" as="geometry" />
        </mxCell>
        <mxCell id="9LpieoBSz1Jyjha2kcl3-29" value="" style="edgeStyle=none;orthogonalLoop=1;jettySize=auto;html=1;rounded=0;" edge="1" parent="1">
          <mxGeometry width="100" relative="1" as="geometry">
            <mxPoint x="995.5" y="645" as="sourcePoint" />
            <mxPoint x="1176" y="645" as="targetPoint" />
            <Array as="points" />
          </mxGeometry>
        </mxCell>
        <mxCell id="9LpieoBSz1Jyjha2kcl3-30" value="结果" style="text;html=1;align=center;verticalAlign=middle;resizable=0;points=[];autosize=1;strokeColor=none;fillColor=none;" vertex="1" parent="1">
          <mxGeometry x="1067" y="645" width="50" height="30" as="geometry" />
        </mxCell>
        <mxCell id="9LpieoBSz1Jyjha2kcl3-31" value="" style="edgeStyle=none;orthogonalLoop=1;jettySize=auto;html=1;rounded=0;dashed=1;" edge="1" parent="1">
          <mxGeometry width="100" relative="1" as="geometry">
            <mxPoint x="1172" y="680" as="sourcePoint" />
            <mxPoint x="992" y="680" as="targetPoint" />
            <Array as="points" />
          </mxGeometry>
        </mxCell>
        <mxCell id="9LpieoBSz1Jyjha2kcl3-32" value="反馈" style="text;html=1;align=center;verticalAlign=middle;resizable=0;points=[];autosize=1;strokeColor=none;fillColor=none;" vertex="1" parent="1">
          <mxGeometry x="1067" y="679.4" width="50" height="30" as="geometry" />
        </mxCell>
        <mxCell id="9LpieoBSz1Jyjha2kcl3-33" value="" style="rounded=1;whiteSpace=wrap;html=1;" vertex="1" parent="1">
          <mxGeometry x="1293" y="610" width="70" height="80" as="geometry" />
        </mxCell>
        <mxCell id="9LpieoBSz1Jyjha2kcl3-34" value="用户" style="text;html=1;align=center;verticalAlign=middle;resizable=0;points=[];autosize=1;strokeColor=none;fillColor=none;" vertex="1" parent="1">
          <mxGeometry x="1242" y="637" width="50" height="30" as="geometry" />
        </mxCell>
        <mxCell id="9LpieoBSz1Jyjha2kcl3-35" value="答案" style="text;html=1;align=center;verticalAlign=middle;resizable=0;points=[];autosize=1;strokeColor=none;fillColor=none;" vertex="1" parent="1">
          <mxGeometry x="1303" y="690" width="50" height="30" as="geometry" />
        </mxCell>
        <mxCell id="9LpieoBSz1Jyjha2kcl3-36" value="1. ____&lt;div&gt;2. ____&lt;/div&gt;&lt;div&gt;3. ____&lt;/div&gt;&lt;div&gt;4. ____&lt;/div&gt;" style="text;html=1;align=center;verticalAlign=middle;resizable=0;points=[];autosize=1;strokeColor=none;fillColor=none;" vertex="1" parent="1">
          <mxGeometry x="1293" y="613" width="60" height="70" as="geometry" />
        </mxCell>
        <mxCell id="9LpieoBSz1Jyjha2kcl3-37" value="" style="edgeStyle=segmentEdgeStyle;endArrow=classic;html=1;curved=0;rounded=0;endSize=8;startSize=8;sourcePerimeterSpacing=0;targetPerimeterSpacing=0;exitX=0.5;exitY=0;exitDx=0;exitDy=0;entryX=0.542;entryY=-0.021;entryDx=0;entryDy=0;entryPerimeter=0;" edge="1" parent="1" source="9LpieoBSz1Jyjha2kcl3-33" target="9LpieoBSz1Jyjha2kcl3-2">
          <mxGeometry width="100" relative="1" as="geometry">
            <mxPoint x="1322" y="480" as="sourcePoint" />
            <mxPoint x="1328" y="290" as="targetPoint" />
            <Array as="points">
              <mxPoint x="1328" y="280" />
              <mxPoint x="242" y="280" />
            </Array>
          </mxGeometry>
        </mxCell>
        <mxCell id="9LpieoBSz1Jyjha2kcl3-38" value="原视频定位" style="text;html=1;align=center;verticalAlign=middle;resizable=0;points=[];autosize=1;strokeColor=none;fillColor=none;" vertex="1" parent="1">
          <mxGeometry x="232" y="350" width="80" height="30" as="geometry" />
        </mxCell>
        <mxCell id="9LpieoBSz1Jyjha2kcl3-39" value="" style="edgeStyle=none;orthogonalLoop=1;jettySize=auto;html=1;rounded=0;" edge="1" parent="1">
          <mxGeometry width="100" relative="1" as="geometry">
            <mxPoint x="432" y="280" as="sourcePoint" />
            <mxPoint x="432" y="430" as="targetPoint" />
            <Array as="points" />
          </mxGeometry>
        </mxCell>
        <mxCell id="9LpieoBSz1Jyjha2kcl3-40" value="原音频定位" style="text;html=1;align=center;verticalAlign=middle;resizable=0;points=[];autosize=1;strokeColor=none;fillColor=none;" vertex="1" parent="1">
          <mxGeometry x="432" y="350" width="80" height="30" as="geometry" />
        </mxCell>
        <mxCell id="9LpieoBSz1Jyjha2kcl3-41" value="定位功能" style="text;html=1;align=center;verticalAlign=middle;resizable=0;points=[];autosize=1;strokeColor=none;fillColor=none;" vertex="1" parent="1">
          <mxGeometry x="752" y="250" width="70" height="30" as="geometry" />
        </mxCell>
        <mxCell id="9LpieoBSz1Jyjha2kcl3-42" value="" style="edgeStyle=segmentEdgeStyle;endArrow=classic;html=1;curved=0;rounded=0;endSize=8;startSize=8;sourcePerimeterSpacing=0;targetPerimeterSpacing=0;exitX=0.42;exitY=0.933;exitDx=0;exitDy=0;exitPerimeter=0;" edge="1" parent="1" source="9LpieoBSz1Jyjha2kcl3-35">
          <mxGeometry width="100" relative="1" as="geometry">
            <mxPoint x="1182" y="750" as="sourcePoint" />
            <mxPoint x="432" y="810" as="targetPoint" />
            <Array as="points">
              <mxPoint x="1324" y="930" />
              <mxPoint x="432" y="930" />
            </Array>
          </mxGeometry>
        </mxCell>
        <mxCell id="9LpieoBSz1Jyjha2kcl3-43" value="文档定位并高亮" style="text;html=1;align=center;verticalAlign=middle;resizable=0;points=[];autosize=1;strokeColor=none;fillColor=none;" vertex="1" parent="1">
          <mxGeometry x="432" y="860" width="110" height="30" as="geometry" />
        </mxCell>
        <mxCell id="9LpieoBSz1Jyjha2kcl3-44" value="" style="points=[];aspect=fixed;html=1;align=center;shadow=0;dashed=0;fillColor=#FF6A00;strokeColor=none;shape=mxgraph.alibaba_cloud.log_streaming;" vertex="1" parent="1">
          <mxGeometry x="932" y="675" width="57.55" height="55" as="geometry" />
        </mxCell>
        <mxCell id="9LpieoBSz1Jyjha2kcl3-45" value="反馈日志" style="text;html=1;align=center;verticalAlign=middle;resizable=0;points=[];autosize=1;strokeColor=none;fillColor=none;" vertex="1" parent="1">
          <mxGeometry x="925.78" y="730" width="70" height="30" as="geometry" />
        </mxCell>
      </root>
    </mxGraphModel>
  </diagram>
</mxfile>
